SplineFontDB: 3.0
FontName: CoelacanthItalic
FullName: Coelacanth Italic
FamilyName: Coelacanth
Weight: Regular

StartChar: a
Encoding: 97 97 0
Width: 469
VWidth: 1159
Flags: HMW
HStem: -16 53<294.393 362.732> -10 65<80.818 170.187> 406 20G<381.893 404.893> 406 20G<381.893 404.893>
VStem: 18.9996 71.2207<76.4066 192.266> 259.893 69<37.2478 82>
AnchorPoint: "Top" 319.894 465 basechar 0
AnchorPoint: "Ogonek" 360.894 23 basechar 0
AnchorPoint: "Bottom" 176.894 -15 basechar 0
LayerCount: 2
Fore
SplineSet
313.893554688 352.954101562 m 1x4c
 303.893554688 354.954101562 276.893554688 356.954101562 267.893554688 356.954101562 c 3
 236.893554688 356.954101562 201.099609375 339.661132812 179.893554688 324.954101562 c 0
 135.161132812 293.932617188 90.220703125 229.286132812 90.220703125 144.540039062 c 3
 90.220703125 97.201171875 107.87890625 55 151.893554688 55 c 3
 193.942382812 55 261.9453125 136.065429688 288.893554688 214 c 0
 301.293945312 249.864257812 326.893554688 340 313.893554688 352.954101562 c 1x4c
335.893554688 150 m 0
 326.404296875 117.13671875 326.893554688 78.0498046875 326.893554688 68 c 3
 326.893554688 47.974609375 332.893554688 42 341.893554688 42 c 3
 358.893554688 42 402.893554688 78 419.893554688 96 c 1
 435.893554688 78 l 1
 402.893554688 44 352.893554688 -11 300.893554688 -11 c 3x9c
 283.893554688 -11 268.779296875 -6.0361328125 261.893554688 16 c 0
 258.575195312 26.6171875 257.083984375 38.1103515625 257.083984375 54 c 3
 257.083984375 68.9609375 258.965820312 86.6513671875 260.893554688 106 c 1
 211.573242188 40.4345703125 146.1484375 -10 106.893554688 -10 c 3
 54.7431640625 -10 19 39.220703125 19 98.2998046875 c 3
 19 164.444335938 60.20703125 236.26953125 92.8935546875 277 c 0
 122.96875 314.478515625 157.19921875 343.34375 180.893554688 356.954101562 c 0
 224.125 381.787109375 279.538085938 399.240234375 346.893554688 406 c 0
 361.01171875 407.416992188 368.913085938 412.8515625 379.893554688 419 c 1
 431.893554688 424 l 1x5c
 373.282226562 310.826171875 367.111328125 258.112304688 335.893554688 150 c 0
EndSplineSet
Validated: 33
Substitution2: "case-1" A
Substitution2: "pcap-1" a.pcap
Substitution2: "smcp-1" a.smcp
EndChar

StartChar: b
Encoding: 98 98 1
Width: 440
VWidth: 1159
Flags: HMW
HStem: -9 58<115.119 228.592> 347 56<241.651 322.02>
VStem: 344.843 70.1571<192.971 323.898>
AnchorPoint: "Top" 265 749 basechar 0
AnchorPoint: "Bottom" 162 -15 basechar 0
LayerCount: 2
Fore
SplineSet
129 240 m 1
 116.611328125 190.9140625 105.771484375 153.515625 97.25390625 113 c 1
 97.25390625 99 97.25390625 91 101.25390625 85 c 0
 110.932918596 64 133.74773341 49 157.25390625 49 c 3
 248.425897259 49 344.842773438 137.7109375 344.842773438 254.865234375 c 3
 344.842773438 313.650390625 322.73828125 357 278 357 c 3
 223.404296875 357 164.740234375 291.084960938 129 240 c 1
147.25390625 699 m 1
 161.25390625 720 193.25390625 737 225.25390625 754 c 1
 253.25390625 734 268.25390625 708 282.25390625 683 c 1
 242.522460938 655.286132812 203.053710938 529.505859375 141 295 c 1
 165.89453125 325.904296875 260.05859375 413 325 413 c 3
 378.723632812 413 415 355.814453125 415 287.098632812 c 3
 415 144.262695312 244.760445208 -9 126.25390625 -9 c 3
 83.4626974588 -9 76.0257984203 15 60.25390625 20 c 0
 45.826171875 23.3173828125 28.25390625 26 22.25390625 25 c 1
 8.25390625 39 l 1
 53.3505859375 168.291015625 122 461 139.106445312 539 c 0
 147.731445312 578.329101562 151.25390625 613.137695312 151.25390625 640 c 3
 151.25390625 659.865234375 149.733398438 681.0234375 147.25390625 699 c 1
EndSplineSet
Validated: 33
Substitution2: "case-1" B
Substitution2: "pcap-1" b.pcap
Substitution2: "smcp-1" b.smcp
EndChar

StartChar: c
Encoding: 99 99 2
Width: 367
VWidth: 1159
Flags: HMW
HStem: -15 53<138.021 225.281> 359 63<200.666 292.636>
VStem: 31.6688 74.9532<71.9391 229.688>
AnchorPoint: "Top" 278 465 basechar 0
AnchorPoint: "Bottom" 158 -15 basechar 0
LayerCount: 2
Fore
SplineSet
319 309 m 1
 301.055555556 327.24 276.777777777 366 243 366 c 3
 168.939214155 366 106.622070312 290.968601726 106.622070312 149.185546875 c 3
 106.622070312 91.5898558244 136.160683194 41 190 41 c 3
 231 41 254 61 275 76 c 1
 286 57 l 1
 260 30 207 -12 152 -12 c 3
 102.96323145 -12 31.6689453125 24.5660778825 31.6689453125 127.46484375 c 3
 31.6689453125 278.204099193 165.556157033 422 277 422 c 3
 323.978723404 422 362.787234043 389.523076923 373 353 c 1
 367.304347826 338.583333333 353.130434783 319.583333333 319 309 c 1
EndSplineSet
Validated: 1
Substitution2: "case-1" C
Substitution2: "pcap-1" c.pcap
Substitution2: "smcp-1" c.smcp
EndChar

StartChar: d
Encoding: 100 100 3
Width: 464
VWidth: 1159
Flags: HMW
HStem: -23 54<297.635 374.885> -9 55<97.3336 209.668> 357 50<188.71 289.162> 659 30<325.178 370.283> 748 20G<468.878 507.878>
VStem: 29.9995 69.6452<81.7189 228.754>
AnchorPoint: "TopRight" 536.378 581 basechar 0
AnchorPoint: "Top" 382.878 734 basechar 0
AnchorPoint: "Bottom" 180.878 -15 basechar 0
LayerCount: 2
Fore
SplineSet
266.877929688 109 m 1xbc
 220.071289062 52.08984375 149.256835938 -9 109.877929688 -9 c 3x7c
 53.158203125 -9 19 37.6728515625 19 103.672851562 c 3
 19 228.280273438 167.877929688 409 310.877929688 409 c 3
 327.888671875 409 348.20703125 396.797851562 353.877929688 383 c 1
 379.00390625 480.905273438 396.919921875 590.6328125 396.919921875 617.481445312 c 3
 396.919921875 656.666992188 380.426757812 668 364.877929688 668 c 3
 359.877929688 668 324.877929688 660 315.877929688 659 c 1
 312.877929688 689 l 1
 364.877929688 700 435.877929688 734 481.877929688 768 c 1
 497.877929688 750 l 1
 492.877929688 705 423.159179688 393.3828125 360.877929688 189 c 0
 345.229492188 137.647460938 334.319335938 96.259765625 334.319335938 68.447265625 c 3
 334.319335938 54.41796875 338.141601562 43 348.877929688 43 c 3
 365.877929688 43 401.877929688 65 426.877929688 87 c 1
 441.877929688 69 l 1
 404.877929688 27 336.877929688 -11 304.877929688 -11 c 3
 274.392578125 -11 261.676757812 9.4384765625 261.676757812 40.1328125 c 3
 261.676757812 61.6640625 263.366210938 84.8349609375 266.877929688 109 c 1xbc
271.877929688 359 m 3
 201.763671875 359 89.64453125 279 89.64453125 146.091796875 c 3
 89.64453125 95.142578125 110.598632812 53 148.877929688 53 c 3
 184.477539062 53 258.698242188 120.669921875 284.877929688 187 c 0
 298.65625 223.185546875 315.736328125 259.479492188 315.736328125 300.551757812 c 3
 315.736328125 342.380859375 285.75 359 271.877929688 359 c 3
EndSplineSet
Validated: 1
Substitution2: "case-1" D
Substitution2: "pcap-1" d.pcap
Substitution2: "smcp-1" d.smcp
EndChar

StartChar: e
Encoding: 101 101 4
Width: 365
VWidth: 1159
Flags: HMW
HStem: -15 51<132.518 227.037> 367 54<183.549 254.884>
VStem: 34.5302 71.9619<61.4685 197.627> 272 60<289.245 349.853>
AnchorPoint: "Top" 244 465 basechar 0
AnchorPoint: "Ogonek" 232 26 basechar 0
AnchorPoint: "Bottom" 149 -15 basechar 0
LayerCount: 2
Fore
SplineSet
240 415 m 3
 290.054014627 415 333 361.006033517 333 306 c 3
 333 299.736842105 334.75 291.236842105 340 289 c 1
 335 262 l 1
 283.233183857 246.242424242 191.64573991 218.666666667 113 197 c 1
 110.686357693 181.831410421 107.4921875 160.733813662 107.4921875 144.0625 c 3
 107.4921875 79.5570254575 137.932981594 41 178 41 c 3
 222 41 252 59 280 82 c 1
 295 65 l 1
 259 28 213 -10 145 -10 c 3
 67.1278400171 -10 35.5302734375 49.5962980715 35.5302734375 125.344726562 c 3
 35.5302734375 295.579105898 175.659944421 415 240 415 c 3
215 367 m 3
 176.787878788 367 133.676767677 299.472222222 118 224 c 1
 143.614814815 233.75 240.345987999 255.897325333 251 263 c 0
 260 269 272 274 272 290 c 1
 272 333 249 367 215 367 c 3
EndSplineSet
Validated: 1
Substitution2: "case-1" E
Substitution2: "pcap-1" e.pcap
Substitution2: "smcp-1" e.smcp
EndChar

StartChar: f
Encoding: 102 102 5
Width: 302
VWidth: 1159
Flags: HMW
HStem: -326 36<-130.972 -90.346> 341 42<187.132 325> 697 57<342.061 431.684>
AnchorPoint: "Top" 332 748 basechar 0
AnchorPoint: "Bottom" 109 -204 basechar 0
LayerCount: 2
Fore
SplineSet
425 754 m 3
 456 754 527 728 548 706 c 1
 543 679 534 672 482 646 c 1
 446 664 408 697 371 697 c 3
 289 697 259 623 218 498 c 0
 214 488 196 417 186 369 c 1
 209 370 306 382 329 383 c 1
 325 341 l 1
 303 342 201 334 179 335 c 1
 157.522836642 240.739116371 107.1160128 -78.4959638592 74 -172 c 0
 52.7928760016 -235.621371995 21.2425420274 -278.946822466 -14 -323 c 1
 -24 -322 -23 -321 -65 -321 c 3
 -86 -321 -118 -325 -130 -326 c 1
 -135 -290 l 1
 -75.8916897822 -275.814005548 -40.2939883182 -237.058594717 -12 -187 c 0
 40.4094488189 -94.8213592233 83.4704204794 155.895983663 116 329 c 1
 92.6617647059 327.875 70.3382352941 324.5 47 320 c 1
 52 362 l 1
 75.3285714286 360.5 99.6714285714 366.5 123 365 c 1
 131.608695652 413.620155039 143.086956522 481.093023256 145 493 c 0
 166 626 220 654 290 701 c 0
 331 728 368 754 425 754 c 3
EndSplineSet
Validated: 33
Substitution2: "salt-1" f.alt
Substitution2: "case-1" F
Substitution2: "pcap-1" f.pcap
Substitution2: "smcp-1" f.smcp
EndChar

StartChar: g
Encoding: 103 103 6
Width: 430
VWidth: 1159
Flags: HMW
HStem: -337 64<28.3907 164.021> 325 55<357.704 437.962> 378 38<178.549 268.83>
AnchorPoint: "Top" 271 465 basechar 0
AnchorPoint: "Bottom" 191 -318 basechar 0
LayerCount: 2
Fore
SplineSet
117 5 m 1xc0
 115 -12 144 -28 176 -30 c 1
 204 -32 213 -30 241 -31 c 1
 328 -36 359 -83 352 -132 c 1
 336 -256 151 -337 70 -337 c 3
 -26 -337 -59 -280 -53 -231 c 1
 -43 -149 71 -89 96 -80 c 1
 55 -58 41 -36 36 10 c 1
 67 30 105 42 139 53 c 1
 81 70 36 129 47 218 c 1
 63 342 174 416 256 416 c 3xa0
 297 416 328 389 344 364 c 1
 369 375 395 380 416 380 c 3
 431 380 451 378 456 374 c 1
 431 306 l 1
 414 318 390 325 372 325 c 0
 367 325 363 324 357 323 c 1
 363 300 364 274 359 244 c 1
 347 147 267 83 198 53 c 0
 128 22 119 23 117 5 c 1xc0
224 378 m 3
 169 378 125 309 116 228 c 1
 105 152 146 110 198 85 c 1
 244 110 280 160 289 236 c 1
 298 318 283 378 224 378 c 3
9 -205 m 1
 0 -257 61 -273 111 -273 c 3
 182 -273 292 -220 301 -166 c 1
 307 -122 281 -106 234 -101 c 1
 211 -99 191 -100 169 -98 c 1
 153 -97 138 -97 123 -93 c 1
 58 -119 13 -168 9 -205 c 1
EndSplineSet
Validated: 33
Substitution2: "case-1" G
Substitution2: "pcap-1" g.pcap
Substitution2: "smcp-1" g.smcp
EndChar

StartChar: h
Encoding: 104 104 7
Width: 443
VWidth: 1159
Flags: HMW
HStem: 343 60<237.319 333.902> 662 38<101.027 133.78>
VStem: 4.02655 78<-4 76.7172> 360.027 56.9735<180.359 316.446>
AnchorPoint: "Top" 240.026 733 basechar 0
AnchorPoint: "Bottom" 153.026 -15 basechar 0
LayerCount: 2
Fore
SplineSet
123.026367188 196 m 1
 102.078125 139.833984375 88.73046875 62.576171875 82.0263671875 -4 c 1
 4.0263671875 -4 l 1
 42.0263671875 138 127.279296875 498.5546875 145.823242188 592 c 0
 150.6640625 616.395507812 153.026367188 631.544921875 153.026367188 638 c 3
 153.026367188 654 151.026367188 668 134.026367188 668 c 3
 129.026367188 668 106.026367188 663 97.0263671875 662 c 1
 99.0263671875 669 101.026367188 693 101.026367188 700 c 1
 153.026367188 711 215.026367188 722 283.026367188 759 c 1
 298.026367188 738 l 1
 284.026367188 724 266.782226562 701.142578125 261.026367188 691 c 0
 226.28515625 629.780273438 176.974609375 483.0859375 131.026367188 259 c 1
 153.736328125 296.360351562 240.247070312 412 317.026367188 412 c 3
 378.3359375 412 417 353.778320312 417 288.192382812 c 3
 417 155.81640625 323.486328125 40 238.026367188 -20 c 1
 200.065429688 -6.7373046875 189.21875 8.4208984375 191.026367188 52 c 1
 285.026367188 58.4912109375 360.026367188 112.248046875 360.026367188 238 c 3
 360.026367188 309.530273438 325.842773438 352 285.026367188 352 c 3
 226.1171875 352 148.798828125 264.112304688 123.026367188 196 c 1
EndSplineSet
Validated: 33
Substitution2: "case-1" H
Substitution2: "pcap-1" h.pcap
Substitution2: "smcp-1" h.smcp
EndChar

StartChar: k
Encoding: 107 107 10
Width: 410
VWidth: 1159
Flags: HMW
HStem: -6 21G<0.5 3> 372.562 46.4375<250.867 342.466> 661 28<74.25 116.112> 749 20G<215 254>
VStem: 0 70<-5 81.6634> 319.899 68.0957<292.691 368.052>
AnchorPoint: "Top" 237 749 basechar 0
AnchorPoint: "Bottom" 152 -15 basechar 0
LayerCount: 2
Fore
SplineSet
70 -5 m 1
 64 -5 39 -5 32 -5 c 0
 26 -5 6 -6 0 -6 c 1
 1 50.87109375 67.138722313 197.849596716 86 273 c 0
 150 528 152.875490181 610.992157097 151 641 c 0
 150 657 144 669 127 669 c 3
 122 669 84 662 75 661 c 1
 72 689 l 1
 124 700 192 735 238 769 c 1
 254 752 l 1
 242.424804688 610.631835938 108.439453125 203.750976562 70 -5 c 1
110 198 m 1
 194.477675525 220.744275822 319.899414062 268.77946527 319.899414062 336.72265625 c 3
 319.899414062 357.671875 299.88671875 372.5625 280.14453125 372.5625 c 3
 232.619917344 372.5625 161.505706403 303.017996652 110 186 c 1
 99 211 l 1
 145.706296546 323.629464286 242.696886865 419 322 419 c 3
 362.932617188 419 387.995117188 386.326171875 387.995117188 351.640625 c 3
 387.995117188 257.894369965 265.948138283 208.043019561 161 186 c 1
 197.303678654 100.528368794 258.470545745 28.484929078 412 -70 c 1
 407.162109375 -86.9326171875 367.880859375 -97.51953125 347 -101 c 1
 276.540129009 -69.8071484375 148.527523643 63.5443359375 110 198 c 1
EndSplineSet
Validated: 37
Substitution2: "case-1" K
Substitution2: "pcap-1" k.pcap
Substitution2: "smcp-1" k.smcp
EndChar

StartChar: l
Encoding: 108 108 11
Width: 261
VWidth: 1159
Flags: HMW
HStem: -10 21G<67.6731 112.5> 749 20G<232 262>
VStem: 37 82<53.6655 157.415>
AnchorPoint: "TopRight" 310.5 581 basechar 0
AnchorPoint: "Top" 246 749 basechar 0
LayerCount: 2
Fore
SplineSet
188 413 m 0
 162 318 123.334960938 163.696289062 119 90 c 0
 118 73 118 54 135 53 c 1
 150 52 188 80 210 101 c 1
 231 81 l 1
 205 44 133 -10 92 -10 c 3
 43.345703125 -10 40.453125 11.5498046875 37 37 c 0
 35.25 52.0634765625 38.1181640625 69.9814453125 44 96 c 0
 59 170 103.391601562 309.90234375 126 401 c 0
 160 538 167.331054688 583.969726562 169 604 c 0
 170 616 173 644 173 654 c 3
 173 664 174 673 173 685 c 0
 169 713 l 1
 183 734 216 752 248 769 c 1
 276 749 286 724 300 699 c 1
 280 682 259.458984375 647.83984375 253 630 c 0
 232 572 218.931640625 526.018554688 188 413 c 0
EndSplineSet
Validated: 33
Substitution2: "case-1" L
Substitution2: "pcap-1" l.pcap
Substitution2: "smcp-1" l.smcp
EndChar

StartChar: m
Encoding: 109 109 12
Width: 707
VWidth: 1159
Flags: HMW
HStem: -11 73<533 588.373> 346 53<506.358 604> 362 56<297.403 382>
VStem: 37 17<275.412 284.988> 55 63<0.266968 30.8002> 498 75<62.0058 150.361>
AnchorPoint: "Bottom" 300 -15 basechar 0
AnchorPoint: "Top" 406 465 basechar 0
LayerCount: 2
Fore
SplineSet
578 125 m 0xdc
 576 110.348632812 573 94.720703125 573 83 c 0
 573 71 575 63 584 63 c 3
 606 63 641 116.280273438 657 137 c 1
 675 121 l 1
 653 80.310546875 595 -10 536 -10 c 3
 530 -10 525.727539062 -5.86328125 520 -3 c 0
 516 -1 516.219726562 4.423828125 513 7 c 0
 508 11 504 21 502 26 c 1
 498 36 497.446289062 50.970703125 498 63 c 0
 499 84.7353515625 512.651367188 127.009765625 518 145 c 0
 529 182 550.27734375 243.924804688 555 262 c 0
 564.42578125 298.077148438 563.400390625 345 533 345 c 0xdc
 487.099609375 345 392 220 371 153 c 0
 369.921875 149.559570312 370.000976562 148.202148438 369 144 c 0
 359 102 357.469726562 90.2236328125 352 68 c 0
 349.8359375 59.20703125 348.38671875 49.93359375 347 43 c 0
 346 38 344.461914062 33.078125 344 28 c 0
 343 17 340 8 335 1 c 1
 331 0 304 -2 298 -2 c 1
 294 -2 273 -2 271 -1 c 1
 267 1 273 26 273 31 c 0
 273 32 276 43 276 44 c 0
 276 50 283.534179688 72.05859375 285 79 c 0
 286.900390625 88 300.930664062 137.155273438 303 144 c 0
 316 187 331.965820312 234.390625 338 267 c 0
 345.497070312 307.512695312 346 349 315 349 c 3
 257.044921875 349 162 194 151 154 c 0
 142.615234375 123.508789062 133.73828125 90.6416015625 132 75 c 0
 131 66 128.776367188 54.8798828125 127 46 c 0
 126 41 124.912109375 36.0166015625 124 31 c 0
 122 20 120 8 118 1 c 1
 117 -1 87 0 82 0 c 1
 76 0 59 2 55 4 c 1
 53 6 55 27 55 31 c 0
 55 32 58 46 58 47 c 0
 58 52 61.6533203125 73.0146484375 62 77 c 0
 64 100 79.6689453125 142.124023438 94 180 c 0
 108 217 117.03125 250.9921875 121 268 c 0
 128 298 115 327 100 327 c 3
 90 327 63 297 54 266 c 1
 37 282 l 1
 55 346 125 393 167 413 c 1
 177 411 188.153320312 400.541015625 192 389 c 0
 194.349609375 381.952148438 197.043945312 366.96875 197.043945312 347.49609375 c 3
 197.043945312 321.1640625 192.813476562 290.565429688 181 258 c 1
 214.466796875 309.333007812 295.133789062 412 357 412 c 3xbc
 401.2109375 412 415.711914062 372.125976562 415.711914062 327.635742188 c 3
 415.711914062 309.256835938 413.017578125 290.62890625 408 272 c 1
 442.408203125 311.134765625 510.182617188 401 579 401 c 3
 629 401 637.747070312 346.045898438 620 279 c 0
 602 211 584.54296875 172.928710938 578 125 c 0xdc
EndSplineSet
Validated: 33
Substitution2: "case-1" M
Substitution2: "pcap-1" m.pcap
Substitution2: "smcp-1" m.smcp
EndChar

StartChar: n
Encoding: 110 110 13
Width: 506
VWidth: 1159
Flags: HMW
HStem: -11 73<324.5 380.755> 346 65<301.711 397.5>
VStem: 39 17<275.412 284.988> 55 65<0 38.5218>
AnchorPoint: "Bottom" 212 -15 basechar 0
AnchorPoint: "Top" 310 465 basechar 0
LayerCount: 2
Fore
SplineSet
122 268 m 1xd0
 129 291 116 327 101 327 c 3
 91 327 65 297 56 266 c 1
 39 282 l 1xe0
 57 346 127 393 169 413 c 1
 179 411 190.153320312 400.541015625 194 389 c 0
 196.349609375 381.952148438 199.043945312 366.96875 199.043945312 347.49609375 c 3
 199.043945312 329.869140625 191.430664062 289.928710938 180 257 c 1
 217.25390625 311.799804688 302.197265625 411 366 411 c 3
 429 411 431.479492188 345.034179688 414 279 c 0
 396 211 380.584960938 171.076171875 372 123 c 0
 367 95 361 62 378 62 c 3
 387 62 405.955078125 79.1943359375 421 98 c 0
 433 113 446 130 452 137 c 1
 469 121 l 1
 453 90 432.071289062 59.0712890625 404 31 c 0
 384 11 353 -9 330 -9 c 3
 319 -9 311.314453125 0.513671875 307 6 c 0
 303.041992188 11.033203125 298 20 296 25 c 1
 292 35 291.453125 49.970703125 292 62 c 0
 293 84 306.592773438 126.813476562 312 145 c 0
 323 182 344.125976562 243.965820312 349 262 c 0
 359 299 355 346 319 346 c 3
 259.022460938 346 165 201 148 145 c 0
 141.14453125 122.416992188 134.711914062 97.98046875 133 86 c 0
 132 79 130.280273438 70.96484375 129 62 c 0
 128 55 125.640625 43.0419921875 125 36 c 0
 124 25 121 12 120 0 c 1
 115 0 85 0 83 0 c 1
 81 0 57 0 55 0 c 1
 53 6 55 29 55 39 c 1
 55 44 58 60 58 62 c 0
 58 67 63.6962890625 86.0888671875 65 90 c 0
 70 105 98 182 104 200 c 1
 125 266 117 246 122 268 c 1xd0
EndSplineSet
Validated: 33
Substitution2: "case-1" N
Substitution2: "pcap-1" n.pcap
Substitution2: "smcp-1" n.smcp
EndChar

StartChar: o
Encoding: 111 111 14
Width: 422
VWidth: 1159
Flags: W
HStem: -10 41<134.779 223.828> 373 46<198.884 294.653>
VStem: 30 77.0654<59.4979 237.319> 318.209 75.4111<171.49 348.6>
AnchorPoint: "Top" 270 465 basechar 0
AnchorPoint: "Horn" 378.5 341.8 basechar 0
AnchorPoint: "Ogonek" 237 19 basechar 0
AnchorPoint: "Bottom" 169 -15 basechar 0
AnchorPoint: "Middle" 213 206 basechar 0
LayerCount: 2
Fore
SplineSet
278.326171875 419 m 3
 349.990731036 419 393.620117188 361.002080836 393.620117188 283.104492188 c 3
 393.620117188 124.498469349 265.836666126 -10 151.326171875 -10 c 3
 79.3259418905 -10 30 40.0314321416 30 129.212890625 c 3
 30 312.876916517 192.915065832 419 278.326171875 419 c 3
249.326171875 373 m 3
 190.82159006 373 107.065429688 282.876005122 107.065429688 151.232421875 c 3
 107.065429688 74.3779634491 135.025064109 31 175.326171875 31 c 3
 235.535743983 31 318.208984375 130.723177661 318.208984375 266.88671875 c 3
 318.208984375 341.862694641 285.007926892 373 249.326171875 373 c 3
EndSplineSet
Validated: 1
Substitution2: "case-1" O
Substitution2: "pcap-1" o.pcap
Substitution2: "smcp-1" o.smcp
EndChar

StartChar: p
Encoding: 112 112 15
Width: 451
VWidth: 1159
Flags: HMW
HStem: -322 34<69.3031 148> -1 42<114.987 237.247> 351 46<232.027 352.5>
AnchorPoint: "Bottom" 84 -318 basechar 0
AnchorPoint: "Top" 292 465 basechar 0
LayerCount: 2
Fore
SplineSet
48 39 m 0
 71 137 95.259765625 231.744140625 98 266 c 0
 100 291 96 302 91 309 c 1
 81 308 48 292 39 290 c 1
 37 326 l 1
 103 348 120 345 151 445 c 1
 217.969726562 453.505859375 208.697265625 469.571289062 185 359 c 1
 223 376 276 402 324 402 c 3
 382.385742188 402 429.885742188 334.9296875 419 240 c 1
 403 112 287 25 192 5 c 1
 164 -1 126 -3 103 -1 c 1
 83 -88 53 -214 51 -256 c 1
 51 -276 75.197265625 -283.166992188 90 -284 c 0
 107.77734375 -285 137.407226562 -287 154 -288 c 1
 148 -322 l 1
 111 -321 96 -321 68 -321 c 3
 41 -321 -36 -331 -64 -336 c 1
 -63 -304 l 1
 -56.845703125 -300 -51.7333984375 -296.4296875 -47 -290 c 0
 -40.375 -281 -33.146484375 -260.474609375 -25 -234 c 0
 -9 -182 21.8984375 -72.21484375 48 39 c 0
270 356 m 3
 221 356 191 334 174 313 c 1
 114 62 l 1
 135 50 160 41 194 41 c 3
 274 41 340 116 350 216 c 1
 360.864257812 283.407226562 332.22265625 356 270 356 c 3
EndSplineSet
Validated: 33
Substitution2: "case-1" P
Substitution2: "pcap-1" p.pcap
Substitution2: "smcp-1" p.smcp
EndChar

StartChar: q
Encoding: 113 113 16
Width: 439
VWidth: 1159
Flags: HMW
HStem: -342 36<312.462 380.838> -5 43<135.047 233.432> 369 49<207.5 320.703> 409 20G<422.338 452.838>
AnchorPoint: "Bottom" 216 -318 basechar 0
AnchorPoint: "Top" 290 465 basechar 0
LayerCount: 2
Fore
SplineSet
301 149 m 1xe0
 314.842773437 204.939393939 326.378417969 260.090909091 334.837890625 305 c 1
 334.837890625 311 332.720906989 322.323921319 328.837890625 330 c 0
 312.650390625 362 279.504557292 369 254.837890625 369 c 3
 183.578631366 369 117.800853588 286 106.837890625 191 c 1
 99.2531005859 105.117647059 119.249365234 45 162 45 c 3
 220.805309735 45 289.92920354 121.869565217 301 149 c 1xe0
290 95 m 1
 232.651006711 26.8620689655 185.563758389 -9 119 -9 c 3
 51.7475557718 -9 30.5523032214 68.8830566524 30.5523032214 127.379011724 c 3
 30.5523032214 244.008985283 158.321318133 418 299.837890625 418 c 3xe0
 349.076171875 418 357.225184944 392 369.837890625 392 c 3
 390.50951629 392 407.422664561 417.945945946 414 424 c 1xd0
 441 411 l 1
 439.436598558 405.967741935 433.823485341 392.677243555 430.837890625 385 c 0
 423.837890625 367 413.360922893 335.147106023 393.837890625 271 c 0
 386.837890625 248 364.837890625 164 355.837890625 122 c 0
 307.837890625 -102 288.710058181 -203.026656616 286.837890625 -250 c 0
 285.5625 -282 310.167023725 -294.672721984 323.837890625 -298 c 0
 336.1640625 -301 369.442382812 -306 376.837890625 -306 c 1
 371.837890625 -342 l 1
 349.837890625 -341 314.837890625 -338 275.837890625 -338 c 3
 248.837890625 -338 182.837890625 -344 154.837890625 -348 c 1
 156.837890625 -316 l 1
 162.837890625 -315 162.701943867 -312.737039717 168.837890625 -308 c 0
 181.791015625 -298 192.754089872 -283.597164079 202.837890625 -256 c 0
 215.289620536 -221.922330097 260.568638393 -40.1747572816 290 95 c 1
EndSplineSet
Validated: 33
Substitution2: "case-1" Q
Substitution2: "pcap-1" q.pcap
Substitution2: "smcp-1" q.smcp
EndChar

StartChar: r
Encoding: 114 114 17
Width: 373
VWidth: 1159
Flags: HMW
HStem: 406 20G<321.483 341.983> 413 20G<153.483 179.483 321.483 341.983>
VStem: 43.4832 19<295.105 306.953> 54.4832 68<0 66.3041>
AnchorPoint: "Bottom" 107.489 -15 basechar 0
AnchorPoint: "Top" 230.489 465 basechar 0
LayerCount: 2
Fore
SplineSet
165.489257812 166 m 0xa0
 157.358398438 129.825195312 152.1171875 103.138671875 148.489257812 85 c 0
 146.489257812 75 145.291015625 66.8056640625 142.489257812 57 c 0
 140.489257812 50 136.977539062 38.841796875 134.489257812 32 c 0
 130.489257812 21 127.489257812 11 122.489257812 0 c 1
 118.489257812 0.5556640625 90.4892578125 -2.037109375 84.4892578125 -2 c 1
 78.4892578125 -2 58.4892578125 -3 54.4892578125 1 c 1x90
 54.4892578125 8 60.4892578125 30 61.4892578125 34 c 0
 62.4892578125 38 65.6455078125 55.3125 67.4892578125 59 c 0
 68.4892578125 61 72.5283203125 80.29296875 74.4892578125 85 c 0
 79.4892578125 97 100.141601562 169.440429688 113.489257812 208 c 0
 122.489257812 234 127.489257812 266 128.489257812 288 c 1
 129.489257812 321 121.489257812 347 106.489257812 347 c 3
 96.4892578125 347 71.4892578125 316 62.4892578125 285 c 1
 43.4892578125 301 l 1
 64.8017578125 361.606445312 129.092773438 407.060546875 169.489257812 426 c 1x60
 196.412109375 421.4921875 206.340820312 397.630859375 206.340820312 365.287109375 c 3
 206.340820312 340.921875 203.530273438 312.112304688 195.489257812 281 c 5
 242.152505287 348.028320312 325.130110432 416.23828125 348.489257812 423 c 5
 371.104492188 417.911132812 394.796875 392.463867188 390.489257812 366 c 1
 386.366210938 345 355.443359375 305 323.489257812 295 c 1
 319.270507812 312.727539062 306.614257812 334 296.489257812 334 c 3
 265.782235689 334 193 264 169.489257812 182 c 0
 167.634964414 175.532655946 166.166015625 169.01171875 165.489257812 166 c 0xa0
EndSplineSet
Validated: 33
Substitution2: "case-1" R
Substitution2: "pcap-1" r.pcap
Substitution2: "smcp-1" r.smcp
EndChar

StartChar: s
Encoding: 115 115 18
Width: 348
VWidth: 1159
Flags: HMW
HStem: -10.1663 54.1517<56.9964 180.46> 369 47<182.037 258.457>
VStem: 81.6577 70.1657<259.483 332.875> 195.908 68.2592<62.772 153.436> 286 44<317.5 339.554>
AnchorPoint: "Bottom" 131 -15 basechar 0
AnchorPoint: "Top" 236 465 basechar 0
LayerCount: 2
Fore
SplineSet
29 87 m 1
 59.7960571476 52.991853589 107.631916358 35.9853515625 140.233398438 35.9853515625 c 3
 165.372109718 35.9853515625 195.908203125 56.699706584 195.908203125 100.663085938 c 3
 195.908203125 129.840657406 170.91724727 160.653494989 145 185 c 0
 115.347410789 212.855462592 81.6577414728 228.599684869 81.6577414728 276.489045958 c 3
 81.6577414728 281.89516287 82.0870697848 287.710925184 83 294 c 1
 90.0411764706 342.540983607 189.623529412 420 254 420 c 3
 285.5 420 300.265625 408.6 317 401 c 1
 320 390 323 358 330 321 c 1
 286 299 l 1
 274.176470588 333.1 252.5 376 219 376 c 3
 181.387228257 376 145.823242188 347.034106513 145.823242188 316.326171875 c 3
 145.823242188 290.267163752 164.687471349 260.630537458 202 231 c 0
 237.30339386 202.964951935 264.167446422 168.864965327 264.167446422 134.710968391 c 3
 264.167446422 46.8085822376 186.608133361 8.81095974308 137 -3 c 0
 119.082214047 -7.26595870955 96.7964242779 -9.166015625 74.7236328125 -9.166015625 c 3
 43.5102397997 -9.166015625 12.7016733849 -6.10813070592 -6 -1 c 1
 0.666666666667 20 10.6666666667 60 14 83 c 1
 29 87 l 1
EndSplineSet
Validated: 1
Substitution2: "case-1" S
Substitution2: "pcap-1" s.pcap
Substitution2: "smcp-1" s.smcp
EndChar

StartChar: t
Encoding: 116 116 19
Width: 310
VWidth: 1159
Flags: HMW
HStem: -15 53<93 172.53> 342 26<67 100.899> 352 38<198 303.931> 358 41<199.065 305>
VStem: 44 267
AnchorPoint: "TopRight" 299.5 538 basechar 0
AnchorPoint: "Bottom" 98 -15 basechar 0
AnchorPoint: "Top" 203 477 basechar 0
LayerCount: 2
Fore
SplineSet
67 373 m 1xc8
 131.881355932 394.112903226 142.694915254 396.032258065 183 492 c 1
 234 493 l 1
 229.277777778 481.582524272 204.722222222 408.32038835 200 395 c 1xa8
 222 396 291 403 313 404 c 1
 307 363 l 1x98
 285 363 211 357 189 357 c 1xa8
 168.718309859 293.762264151 132.211267606 180.335849057 117 91 c 1
 113 63 120 42 150 42 c 3
 175 42 220 73 246 91 c 1
 246 91 253 80 257 70 c 1
 219 39 158 -11 103 -11 c 3
 85 -11 33 0 45 81 c 1
 57.1643835616 167.318518519 97.7123287671 272.707407407 119 352 c 1
 119 352 79 348 69 347 c 1
 67 373 l 1xc8
EndSplineSet
Validated: 33
Substitution2: "case-1" T
Substitution2: "pcap-1" t.pcap
Substitution2: "smcp-1" t.smcp
EndChar

StartChar: u
Encoding: 117 117 20
Width: 502
VWidth: 1159
Flags: HMW
HStem: -18 56<294.5 386.569> -10 70<86 176> 341 75<127 186> 387 20G<438.5 446>
AnchorPoint: "Ogonek" 384 23 basechar 0
AnchorPoint: "Bottom" 206 -15 basechar 0
AnchorPoint: "Top" 325 465 basechar 0
LayerCount: 2
Fore
SplineSet
399 399 m 1x60
 403.891601562 402.200195312 433.239257812 407 444 407 c 1
 448 407 474 406 474 400 c 1
 458 323 406.3359375 287.9140625 372 155 c 0
 365 127.903320312 358 89.9677734375 357 71 c 1
 355 55 359 47 368 47 c 3
 379 47 408 61.2373046875 447 103 c 1
 464 87 l 1
 438 51.3876953125 409.1015625 26.3134765625 383 10 c 0
 367 0 345 -9 324 -9 c 3x90
 294.296875 -9 285.124023438 12.1279296875 285.124023438 39.443359375 c 3
 285.124023438 72.1220703125 295.172851562 112.102539062 303 142 c 1
 255.534179688 98.34375 164.643554688 -8 99 -8 c 3
 73 -8 54 11 50 41 c 1
 48 66.5869140625 62.849609375 121.439453125 76 165 c 0
 92 218 115.836914062 266.184570312 127 322 c 0
 129 332 131 340 127 341 c 1
 116 341 71 290 57 276 c 1
 43 292 l 1
 69 335 139 416 186 416 c 3
 216 416 223 396 217 369 c 1
 210 322 186.161132812 312.876953125 151 194 c 0
 130 123 121 60 163 60 c 3
 190.559570312 60 273.240234375 141.111328125 322 206 c 1
 331.23046875 234.892578125 349.259765625 290.954101562 352 298 c 0
 359 316 370.25 343.328125 378 360 c 0
 385.349609375 375.810546875 393.75 389.513671875 399 399 c 1x60
EndSplineSet
Validated: 33
Substitution2: "case-1" U
Substitution2: "pcap-1" u.pcap
Substitution2: "smcp-1" u.smcp
EndChar

StartChar: v
Encoding: 118 118 21
Width: 401
VWidth: 1159
Flags: HMW
HStem: 327 68<84.4914 191.923> 428 20G<425.923 456.923>
VStem: 418.923 59.0557<298.23 368.797>
AnchorPoint: "Bottom" 118 -15 basechar 0
AnchorPoint: "Top" 265 465 basechar 0
LayerCount: 2
Fore
SplineSet
179 72 m 1
 326.591699646 200.392157216 340 265 340 344 c 3
 340 359.376569038 333.6949218 379 311 379 c 3
 307.584570312 379 305.837304688 378.565321181 302 377 c 1
 294 400 l 1
 310.408397544 412.425789587 326.191750404 417.265625 335.748046875 417.265625 c 3
 384.790313479 417.265625 406 388.326880259 406 345 c 3xa0
 406 255 274.983291139 116.966851327 201 57 c 0
 178.112019908 38.4482421875 145.560089761 11.865234375 129 -11 c 1
 109 -5 l 1
 106.082640048 102.701171875 103.006835938 197.666992188 103.006835938 306.432617188 c 3
 103.006835938 317.366210938 102.262695312 344 96 344 c 3
 81.2890625 344 57.7529296875 320.581054688 45 304 c 1
 28 324 l 1
 46.7072596396 346.8046875 113.46922253 414 141 414 c 3
 167.592773438 414 172.626953125 391.987304688 172.626953125 363.965820312 c 3
 172.626953125 265.901302547 175.649125467 148.555158711 179 72 c 1
EndSplineSet
Validated: 1
Substitution2: "case-1" V
Substitution2: "pcap-1" v.pcap
Substitution2: "smcp-1" v.smcp
EndChar

StartChar: w
Encoding: 119 119 22
Width: 587
VWidth: 1159
Flags: HMW
HStem: 353 46<503.406 554.928> 395 20G<375.248 382.581>
VStem: 341 70<269.962 371.091>
AnchorPoint: "Top" 380 465 basechar 0
AnchorPoint: "Bottom" 172 -15 basechar 0
LayerCount: 2
Fore
SplineSet
583 333 m 3xa0
 583 228.598236603 452.288267127 113.773413782 376 57 c 0
 347.04 35.4480874317 303.62 11.865497076 282 -11 c 1
 262 -5 l 1
 269.240506329 67.3760683761 297.544303797 158.47008547 314 287 c 1
 258.43153527 180.484320557 178.165975104 49.4668989547 66 -12 c 1
 47 -2 l 1
 75.8027696233 102.700972569 103.006835938 197.666528361 103.006835938 306.432617188 c 3
 103.006835938 317.36645443 102.262397929 344 96 344 c 3
 81.2895411243 344 57.7528083312 320.581317883 45 304 c 1
 28 324 l 1
 48.5283555728 346.80506462 108.621244642 414 152 414 c 3
 178.593257664 414 183.626953125 391.987731024 183.626953125 363.965820312 c 3
 183.626953125 270.939886354 167.680481185 159.622058506 150 87 c 1
 187.649963559 120.038961039 261.874177432 233.61038961 348.908203125 405 c 1
 383 407 l 1
 372.115233208 276.178055696 351.714882282 151.972261874 341 67 c 1
 408.719839516 120.832143721 514.172851562 248.495007554 514.172851562 331.223632812 c 3
 514.172851562 346.5024302 509.787449049 366 494 366 c 3
 486.410201393 366 482.527230345 364.043478261 474 357 c 1
 458 377 l 1
 482.661978283 405.978313253 506.385076169 417.265625 520.748046875 417.265625 c 3
 566.902390969 417.265625 583 383.52125915 583 333 c 3xa0
EndSplineSet
Validated: 1
Substitution2: "case-1" W
Substitution2: "pcap-1" w.pcap
Substitution2: "smcp-1" w.smcp
EndChar

StartChar: x
Encoding: 120 120 23
Width: 465
VWidth: 1159
Flags: W
HStem: -10 73.4414<26.6165 104.772> -9.8394 61.8394<265.315 365.612> 326.156 82.8438<353.1 438.168> 344.576 67.4238<120.199 218.227>
VStem: 54.8428 18<273.778 280.661>
AnchorPoint: "Bottom" 186 -15 basechar 0
AnchorPoint: "Top" 297 465 basechar 0
LayerCount: 2
Fore
SplineSet
32.8427734375 101 m 1x88
 56.5936137042 73.9508366028 70.3334131441 63.44140625 81.2412109375 63.44140625 c 3
 104.613997213 63.44140625 177.780264419 165.756549645 207.842773438 202 c 1
 195.591044248 250.842317036 187.569726099 344.576171875 143.319335938 344.576171875 c 3
 113.194824393 344.576171875 90.6425591899 298.083434341 72.8427734375 264 c 1
 54.8427734375 280 l 1
 79.9999999999 364.333333333 119.999011962 412 189.842773438 412 c 3x98
 246.611796711 412 247.88805274 300.551463814 254.842773438 256 c 1
 318.566505225 372.836363636 369.208789632 409 401.842773438 409 c 3
 434.965606426 409 466 364.25259412 466 338.643554688 c 3
 466 328.965262035 463.136749799 319.696681813 457.842773438 311 c 1
 433.842773438 314 l 1
 425.395174977 322.44758672 415.27501298 326.15625 403.923828125 326.15625 c 3
 335.749675376 326.15625 296.583661332 253.449015279 260.842773438 218 c 1
 305.405273438 84.8023952096 317.030273438 52 353.842773438 52 c 3
 368.842773438 52 386.842773438 78 409.842773438 111 c 1
 429.842773438 93 l 1
 397.680571754 40.5875231819 362.000234723 -9.83939718491 307.056067871 -9.83939718491 c 3x68
 223.573789766 -9.83939718491 238.015832279 104.66935883 220.842773438 164 c 1
 112.380213946 19.8011049724 110.366134005 -10 45.8427734375 -10 c 3
 7.39015727618 -10 -2.173828125 21.9295488942 -2.173828125 53.3466796875 c 3
 -2.173828125 66.3147500098 1.7966734467 82.1621086743 11.8427734375 106 c 1
 32.8427734375 101 l 1x88
EndSplineSet
Validated: 1
Substitution2: "case-1" X
Substitution2: "pcap-1" x.pcap
Substitution2: "smcp-1" x.smcp
EndChar

StartChar: y
Encoding: 121 121 24
Width: 403
VWidth: 1159
Flags: HMW
HStem: 388 20G<126.55 140.09>
VStem: 47.5501 22<273 332.219>
AnchorPoint: "Bottom" 150.274 -161 basechar 0
AnchorPoint: "Top" 265.274 465 basechar 0
LayerCount: 2
Fore
SplineSet
0.548828125 -325 m 1
 -1.451171875 -326 -36.451171875 -325 -67.451171875 -325 c 1
 -106.168153007 -325 -113.337964328 -325 -143.451171875 -326 c 1
 -143.451171875 -326 -138.451171875 -304 -138.451171875 -298 c 1
 -67.8996833205 -275 16.9891573431 -224 127.548828125 -42 c 1
 137.485706513 5.00907852664 141.535489833 62.5947601932 141.535489833 118.57447918 c 3
 141.535489833 208.384272389 121.192872482 342 94.548828125 342 c 3
 84.4907261215 342 62.6542888924 304.098591549 51 273 c 1
 30 290 l 1
 59.7638515194 363.257352941 109.748003472 413 135.548828125 413 c 3
 175.954360347 413 196.182617188 374.686060211 196.182617188 267.951171875 c 3
 196.182617188 201.422977265 194.63865856 125.711488632 192.548828125 50 c 1
 267.675889284 191.020736046 307.663707998 281.676734658 338.274414062 407 c 1
 342.727151538 406.487304688 401.154761905 402.60546875 411.274414062 402 c 1
 413.77734375 399.9140625 409.49456579 387.561763975 403.142578125 373 c 0
 394.267578125 352.654296875 380.78402052 328.296951557 377.274414062 321 c 0
 362.071289062 289.390625 280.679291131 115.276637179 173.548828125 -42 c 0
 126.548828125 -111 31.548828125 -271 0.548828125 -325 c 1
EndSplineSet
Validated: 33
Substitution2: "case-1" Y
Substitution2: "pcap-1" y.pcap
Substitution2: "smcp-1" y.smcp
EndChar

StartChar: z
Encoding: 122 122 25
Width: 382
VWidth: 1159
Flags: HMW
HStem: -79 29<283.396 314.052> 399 20G<145 160.5>
VStem: 319 68<-39.3516 32.8313>
AnchorPoint: "Bottom" 179 -15 basechar 0
AnchorPoint: "Top" 283 465 basechar 0
LayerCount: 2
Fore
SplineSet
80 14 m 3
 54.043834379 14 22.1552404708 -6.57822971289 11 -12 c 1
 0 -12 -13 8 -13 15 c 1
 39.8537950544 106.29296875 116.896081075 156.661132812 288 334 c 1
 274 330 245 329 224 331 c 1
 193.376 336 157.88 352 137 359 c 1
 116 348 105 332 87 309 c 1
 73 309 69 309 69 318 c 1
 69 343 140 434 156 434 c 1
 166.327868852 428 182.163934426 407 240 402 c 1
 326 397 360 400 385 418 c 1
 397 404 l 1
 323.015508396 274.331621628 167.358870686 186.022140364 78 53 c 1
 178.289590231 73.2783712015 230.530823817 -33 319 -33 c 3
 329.69592888 -33 362.118644714 -20.9847627155 367 -6 c 1
 376.545572917 -6 381 -7.54839409722 381 -9 c 1
 381 -52.4817307692 344.143470982 -97 292 -97 c 3
 199.445749659 -97 142.589136544 14 80 14 c 3
EndSplineSet
Validated: 33
Substitution2: "case-1" Z
Substitution2: "pcap-1" z.pcap
Substitution2: "smcp-1" z.smcp
EndChar

StartChar: A
Encoding: 65 65 26
Width: 671
VWidth: 1159
Flags: HMW
HStem: -10 43<105.227 162.116 546.577 585.188> 245 42<255.295 433.093> 691 20G<496.822 542.39>
VStem: 439.779 92.5742<383.39 544>
AnchorPoint: "Ogonek" 449 23 basechar 0
AnchorPoint: "Top" 516 699 basechar 0
AnchorPoint: "Bottom" 279 -15 basechar 0
LayerCount: 2
Fore
SplineSet
255.294921875 287 m 1
 304.184570312 282 403.9609375 282 449.857421875 282 c 1
 446.498046875 382 443.444335938 442 439.779296875 544 c 9
 368.03515625 443 320.206054688 378 255.294921875 287 c 1
384 -10 m 9
 384 -10 385 13 385 27 c 1
 426.471679688 37 452.770507812 47 450.747070312 75 c 0
 450.029296875 138 449.55078125 173 448.833007812 236 c 1
 396.020507812 246 308.331054688 252 226.620117188 245 c 9
 182.334960938 183 149.404296875 147 110.796875 87 c 0
 90.38671875 51 105.9375 28 173 33 c 9
 160 -10 l 1
 111 1 10 4 -43 -5 c 9
 -43 -5 -38 21 -37 33 c 1
 12.64453125 47 37.9736328125 57 54.1845703125 80 c 0
 210.862304688 289 345.967773438 470 465.178710938 640 c 0
 492.642578125 677 490.254882812 679 503.389648438 711 c 9
 542.389648438 711 l 1
 535.880859375 684 532.137105299 657.322393457 532.353515625 642 c 0
 535.530655685 417.050521578 535.716796875 281 542.610351562 62 c 24
 547.6484375 36 567.801757812 33 594 31 c 9
 594 31 589 8 585 -4 c 1
 526 6 444 6 384 -10 c 9
EndSplineSet
Validated: 33
Position2: "cpsp-1" dx=0 dy=0 dh=10 dv=20
Substitution2: "c2pc-1" a.pcap
Substitution2: "c2sc-1" a.smcp
EndChar

StartChar: B
Encoding: 66 66 27
Width: 599
VWidth: 1159
Flags: HMW
HStem: -4 38<3.55189 79.4726 174.677 353.052> 349 30<245.552 380.756> 653 41<172.552 219.865 323.136 443.537>
AnchorPoint: "Top" 385.546 699 basechar 0
AnchorPoint: "Bottom" 255.546 -15 basechar 0
LayerCount: 2
Fore
SplineSet
3.5458984375 34 m 1
 47.5458984375 36 82.9755859375 35.1494140625 90.5458984375 73 c 0
 91.5458984375 78 119.6484375 175.720703125 148.545898438 292 c 0
 190.545898438 461 221.64453125 604.989257812 222.545898438 614 c 0
 223.545898438 624 224.268554688 640.092773438 206.545898438 646 c 0
 200.545898438 648 162.545898438 655 156.545898438 656 c 1
 172.545898438 694 l 1
 181.545898438 694 214.545898438 684 266.545898438 684 c 3
 308.598632812 684 354.016601562 694 393.545898438 694 c 3
 513.549804688 694 560.30078125 578.6796875 546.545898438 518 c 0
 530.451171875 447 476.486328125 402 386.545898438 369 c 1
 510.022460938 363 577.315429688 278.422851562 551.545898438 181 c 0
 522.184570312 70 404.740234375 -4 249.545898438 -4 c 3
 199.545898438 -4 154.545898438 2 101.545898438 2 c 3
 47.5458984375 2 4.5458984375 -2 -2.4541015625 -2 c 1
 3.5458984375 34 l 1
340.545898438 381 m 0
 401.83203125 391 442.630859375 440.204101562 457.545898438 499 c 0
 472.545898438 547 473.874023438 653 372.545898438 653 c 3
 365.182617188 653 351.069335938 650.999023438 345.545898438 649 c 0
 323.545898438 644 316.897460938 624.235351562 313.545898438 614 c 0
 276.545898438 501 245.545898438 379 245.545898438 379 c 1
 321.545898438 379 330.626953125 379.381835938 340.545898438 381 c 0
308.545898438 349 m 0
 238.545898438 349 l 1
 215.545898438 251 190.776367188 154.501953125 176.545898438 96 c 0
 167.545898438 59 170.185546875 45.4716796875 192.545898438 41 c 0
 202.545898438 39 243.545898438 34 266.545898438 34 c 3
 357.909179688 34 441.592773438 83.3291015625 467.545898438 178 c 0
 490.573242188 262 454.387695312 349 308.545898438 349 c 0
EndSplineSet
Validated: 33
Position2: "cpsp-1" dx=0 dy=0 dh=10 dv=20
Substitution2: "c2pc-1" b.pcap
Substitution2: "c2sc-1" b.smcp
EndChar

StartChar: C
Encoding: 67 67 28
Width: 668
VWidth: 1159
Flags: W
HStem: -10 42<277.499 457.928> 659 40<400.534 593.525>
VStem: 644 38<526.02 598.357>
AnchorPoint: "Bottom" 331 -15 basechar 0
AnchorPoint: "Top" 502 699 basechar 0
LayerCount: 2
Fore
SplineSet
79 348 m 0
 120.421166307 520 273.583153348 699 525 699 c 3
 579.108695652 699 606.637681159 694 656 678 c 0
 690 667 709 673 724 678 c 1
 746 664 l 1
 694 604 687 566 682 544 c 0
 677 524 675 518 644 518 c 9
 639 555 660 592 633 613 c 0
 593.115107914 645 559.877697842 659 501 659 c 27
 359.428152493 659 221.656891496 553 177 367 c 0
 129.376237624 160 231.034653465 32 362 32 c 3
 454.229166667 32 539.6625 86 595 175 c 9
 620 167 l 1
 600 119 585 95 562 47 c 1
 498.008695652 16 423.352173913 -10 339 -10 c 3
 146.581227437 -10 30.1913357401 140 79 348 c 0
EndSplineSet
Validated: 33
Position2: "cpsp-1" dx=0 dy=0 dh=10 dv=20
Substitution2: "c2pc-1" c.pcap
Substitution2: "c2sc-1" c.smcp
EndChar

StartChar: D
Encoding: 68 68 29
Width: 762
VWidth: 1159
Flags: W
HStem: -10 40<-22.5205 46.199> -7 44<114.437 416.042> 655 34<142.351 192.277 292.186 458.793>
VStem: 653.702 89.2979<252.556 477.288>
AnchorPoint: "Bottom" 269.479 -15 basechar 0
AnchorPoint: "Top" 449.479 699 basechar 0
LayerCount: 2
Fore
SplineSet
270.479492188 37 m 3x70
 498.25084925 37 653.702148438 176.061226388 653.702148438 369.3828125 c 3
 653.702148438 552.821141418 508.547504535 655 360.479492188 655 c 3
 349.038814222 655 328.704634136 656.241089105 315.479492188 652 c 0
 289.48828125 643.665039062 282.586100707 629.972614522 277.479492188 610 c 0
 230.392578125 425.836914062 197.245620859 265.158063217 147.479492188 86 c 0
 142.479492188 68 138.445286596 50.8211491837 164.479492188 46 c 0
 191.479492188 41 228.479492188 37 270.479492188 37 c 3x70
143.479492188 692 m 1
 182.479492188 690 204.479492188 684 245.479492188 684 c 3
 307.532123767 684 335.111071135 689 376.479492188 689 c 3
 566.240472645 689 743 578.539180429 743 369.661132812 c 3
 743 96.8861917141 476.688106792 -7 255.479492188 -7 c 3x70
 185.479492188 -7 150.479492188 0 80.4794921875 0 c 3
 10.4794921875 0 -0.5205078125 -5 -28.5205078125 -10 c 1
 -22.5205078125 30 l 1xb0
 15.4794921875 34 47.7034794441 35.930556012 57.4794921875 68 c 0
 108.616210938 235.75 175.193359375 513.283203125 192.479492188 617 c 0
 198.479492188 653 182.479492188 650 132.479492188 650 c 1
 143.479492188 692 l 1
EndSplineSet
Validated: 33
Position2: "cpsp-1" dx=0 dy=0 dh=10 dv=20
Substitution2: "c2pc-1" d.pcap
Substitution2: "c2sc-1" d.smcp
EndChar

StartChar: E
Encoding: 69 69 30
Width: 624
VWidth: 1159
Flags: W
HStem: -10 36<3.93848 60.0571> 337 36<236.938 430.102> 659 31<168.938 210.62> 680 20G<580.799 601.259>
VStem: 444.938 37<251 329.452> 533.938 26<536 576.959>
AnchorPoint: "Ogonek" 484 23 basechar 0
AnchorPoint: "Bottom" 261.938 -15 basechar 0
AnchorPoint: "Top" 421.938 699 basechar 0
LayerCount: 2
Fore
SplineSet
168.938476562 690 m 1xec
 254 677 569.597202224 689 592 700 c 1xdc
 610.518694196 674.789473684 601.419782366 675.5 559.938476562 536 c 1
 533.938476562 533 l 1
 536 584 533.408704395 614.818542565 530 618 c 0
 500 646 404.997851603 650.183455887 343.938476562 643 c 0
 326.938476562 641 310.534089332 627.129785375 304.938476562 609 c 0
 279.938476562 528 256.938476562 447 236.938476562 373 c 1
 288.52233586 375 416.740966242 374.144523514 426.938476562 376 c 0
 454.41796875 381 464.924804688 406 485.938476562 450 c 1
 516.938476562 444 l 1
 494.795898438 379.329842932 486.224609375 315.670157068 481.938476562 251 c 1
 444.938476562 242 l 1
 443.938476562 313 452.865123277 326.445578903 415.938476562 332 c 0
 380.742367266 337 302.623683342 336 227.938476562 337 c 1
 201.407864317 238.067729084 181.902671998 148.391322407 177.938476562 81 c 0
 176.938476562 64 182.988747863 50.5829124505 197.938476562 49 c 0
 282.938476562 40 345.837892907 32.2998054482 422.938476562 58 c 0
 482.938476562 78 499.938476562 100 554.938476562 176 c 1
 576.938476562 170 l 1
 545.938476562 102 524.938476562 62 497.938476562 0 c 1
 319.938476562 -1 127.938476562 11 3.9384765625 -10 c 1
 3.9384765625 26 l 1
 55.9384765625 36 80.9384765625 48 87.9384765625 76 c 1
 110.105143229 153.716945996 205.076221205 532.343821073 220.938476562 618 c 0
 225.938476562 645 222.938476562 645 157.938476562 659 c 1
 168.938476562 690 l 1xec
EndSplineSet
Validated: 33
Position2: "cpsp-1" dx=0 dy=0 dh=10 dv=20
Substitution2: "c2pc-1" e.pcap
Substitution2: "c2sc-1" e.smcp
EndChar

StartChar: F
Encoding: 70 70 31
Width: 553
VWidth: 1159
Flags: W
HStem: -12 54<169.147 251.128> -10 36<-12.4648 45.1163> 335 39<224.535 405.13> 657 31<144.535 188.975>
VStem: 407.535 37<251 325.661> 555.535 29<537 581.498>
AnchorPoint: "Top" 402.535 699 basechar 0
AnchorPoint: "Bottom" 140.535 -15 basechar 0
LayerCount: 2
Fore
SplineSet
248.53515625 -12 m 1xbc
 157.53515625 14 111.53515625 11 -12.46484375 -10 c 1
 -12.46484375 26 l 1x7c
 39.53515625 36 64.53515625 48 71.53515625 76 c 1
 93.7005697838 153.430167598 190.422374295 530.525139665 205.53515625 616 c 0
 210.53515625 643 197.53515625 643 132.53515625 657 c 1
 144.53515625 688 l 1
 327.53515625 678 604.53515625 688 614.53515625 703 c 1
 641.53515625 683 621.53515625 670 584.53515625 537 c 1
 555.53515625 534 l 1
 554.53515625 570 569.53515625 618 538.53515625 628 c 0
 485.53515625 646 391.53515625 654 314.53515625 644 c 0
 297.53515625 642 291.53515625 625 285.53515625 607 c 0
 260.53515625 526 242.53515625 448 224.53515625 374 c 1
 275.612079327 376 380.38016266 372.50661859 390.53515625 374 c 0
 424.53515625 379 438.53515625 404 464.53515625 448 c 1
 493.53515625 442 l 1
 462.53515625 378 450.53515625 315 444.53515625 251 c 1
 407.53515625 240 l 1
 406.53515625 311 417.53515625 325 380.53515625 330 c 0
 345.563350111 334.725919748 287.66270727 334 213.53515625 335 c 1
 188.03515625 220.64940239 167.63515625 147.788844622 162.53515625 81 c 0
 161.53515625 64 165.53515625 42 268.53515625 42 c 1
 248.53515625 -12 l 1xbc
EndSplineSet
Validated: 33
Position2: "cpsp-1" dx=0 dy=0 dh=10 dv=20
Substitution2: "c2pc-1" f.pcap
Substitution2: "c2sc-1" f.smcp
EndChar

StartChar: G
Encoding: 71 71 32
Width: 718
VWidth: 1159
Flags: W
HStem: -9 39<293.674 485.36> 317 32<465.759 572.557> 668 38<398.373 592.58> 677 20G<701 732>
VStem: 57.9736 94.8721<186.111 421.199> 678 28<532 570.168>
AnchorPoint: "Top" 511 699 basechar 0
AnchorPoint: "Bottom" 348 -15 basechar 0
LayerCount: 2
Fore
SplineSet
535 706 m 3xec
 590.079799107 706 626.166183036 690 667 676 c 0
 692 667 694 677 708 697 c 9xdc
 732 696 l 9
 706 532 l 9
 678 525 l 1
 661.657623626 621 598.210476048 668 504 668 c 3
 287.22822412 668 152.845703125 473.916309718 152.845703125 312.783203125 c 3
 152.845703125 149.151425648 244.705319648 30 382 30 c 11
 429.762962963 30 458.237037037 37.1470588235 506 57 c 24
 522 64 526 80 531 96 c 0
 541.714285714 135.683544304 561 201.474683544 576 261 c 0
 585 292 582 313 538 317 c 0
 507 319 489 319 458 320 c 9
 467 352 l 1
 559 342 665 343 712 349 c 9
 707 325 l 1
 679 316 669 311 663 290 c 0
 640.811320755 214.338541667 622.849056604 144.895833333 607 91 c 0
 600 68 605 62 622 47 c 9
 616 26 l 1
 542.912891986 16 388.083623693 -9 340 -9 c 3
 170.163453085 -9 57.9736328125 113.525843727 57.9736328125 295.528320312 c 3
 57.9736328125 560.733470509 310.178107959 706 535 706 c 3xec
EndSplineSet
Validated: 33
Position2: "cpsp-1" dx=0 dy=0 dh=10 dv=20
Substitution2: "c2pc-1" g.pcap
Substitution2: "c2sc-1" g.smcp
EndChar

StartChar: H
Encoding: 72 72 33
Width: 758
VWidth: 1159
Flags: W
HStem: -7 42<-31.7461 42.0393> -7 34<148.438 197.037 448.72 514.516 623.791 663.624> 327 40<213 605> 662 38<139.974 190.623 296.357 373 623 666.944>
AnchorPoint: "Top" 502 699 basechar 0
AnchorPoint: "Bottom" 320 -15 basechar 0
LayerCount: 2
Fore
SplineSet
142 700 m 1xb0
 218 689 282 685 379 696 c 1
 373 659 l 1
 347 655 298.069335938 654.971679688 292 640 c 0
 277 603 243 473 213 367 c 1
 616 367 l 1
 633 436 649.618164062 515.762695312 674 616 c 0
 683 653 643 652 609 663 c 1
 623 697 l 1
 700 681 748 679 840 704 c 1
 836 667 l 1
 787 656 777.22265625 657.248046875 768 627 c 0
 715.70703125 455.499023438 617.458984375 118.518554688 620 55 c 0
 621 30 648 29 676 27 c 1
 676 27 665 7 663 -7 c 1
 600 8 531 10 447 -10 c 1
 447 -10 448 13 449 25 c 1
 495 35 523.390625 36.873046875 532 64 c 0
 563.146484375 162.134765625 578.719726562 223.958984375 605 327 c 1
 202 327 l 1
 179.708007812 238.698242188 152.546875 136.66796875 139 67 c 0
 132 31 181 35 209 28 c 1
 209 28 200 5 195 -9 c 1
 109 7 42 10 -35 -7 c 1x70
 -35 -7 -33 17 -31 35 c 1
 3 41 40.9169921875 40.7001953125 49 67 c 0
 107.19140625 256.333007812 194.890625 593.3984375 193 635 c 0
 192 657 165 657 131 662 c 1
 142 700 l 1xb0
EndSplineSet
Validated: 33
Position2: "cpsp-1" dx=0 dy=0 dh=10 dv=20
Substitution2: "c2pc-1" h.pcap
Substitution2: "c2sc-1" h.smcp
EndChar

StartChar: I
Encoding: 73 73 34
Width: 389
VWidth: 1159
Flags: W
HStem: -2 40<-7 97.1236 201.416 278> 656 43<165.721 242.788 349.288 442>
AnchorPoint: "Ogonek" 156 23 basechar 0
AnchorPoint: "Top" 311 699 basechar 0
AnchorPoint: "Bottom" 137 -15 basechar 0
LayerCount: 2
Fore
SplineSet
168 699 m 1
 270 678 333 680 451 695 c 1
 442 652 l 1
 388 650 355.224903956 660.922513454 341 620 c 0
 300.280821918 502.858181818 241.163740527 325.626554364 196 74 c 0
 189 35 239 40 289 38 c 1
 278 -1 l 1
 187 10 72 10 -13 -2 c 1
 -7 38 l 1
 48 38 99.9913102385 33.301626214 116 85 c 0
 163.639097744 238.845437616 227.987845376 497.927072256 248 618 c 0
 254 654 203 651 154 656 c 1
 168 699 l 1
EndSplineSet
Validated: 33
Position2: "cpsp-1" dx=0 dy=0 dh=10 dv=20
Substitution2: "c2pc-1" i.pcap
Substitution2: "c2sc-1" i.smcp
EndChar

StartChar: J
Encoding: 74 74 35
Width: 358
VWidth: 1356
Flags: HMW
HStem: 652 39<149 219.656 334.62 423>
AnchorPoint: "Top" 294 699 basechar 0
AnchorPoint: "Bottom" 104 -138 basechar 0
LayerCount: 2
Fore
SplineSet
230 620 m 0
 232 654 185 653 136 658 c 1
 151 697 l 1
 253 676 316 682 434 697 c 1
 425 654 l 1
 371 652 338.265625 662.908203125 324 622 c 0
 282.21875 502.189453125 255.50390625 381.420898438 217 225 c 0
 185 95 179.483398438 42.884765625 169 0 c 0
 147 -90 77.390625 -147.073242188 4 -196 c 0
 -26 -216 -56 -234 -86 -251 c 1
 -101 -218 l 1
 -71 -204 -46.755859375 -190.296875 -26 -173 c 0
 -20 -168 -15.2021484375 -163.7890625 -10 -159 c 0
 53 -101 82.1162109375 -23.77734375 105 65 c 0
 115.163085938 104.42578125 227.859375 583.612304688 230 620 c 0
EndSplineSet
Validated: 33
Position2: "cpsp-1" dx=0 dy=0 dh=10 dv=20
Substitution2: "c2pc-1" j.pcap
Substitution2: "c2sc-1" j.smcp
EndChar

StartChar: K
Encoding: 75 75 36
Width: 683
VWidth: 1159
Flags: W
HStem: -6 30<176.548 218.567> -1 35<-18 53.1575> 660 35<647.062 697> 660 29<155 189.215 313.916 381 498 529.359>
AnchorPoint: "Top" 434 699 basechar 0
AnchorPoint: "Bottom" 296 -15 basechar 0
LayerCount: 2
Fore
SplineSet
498 686 m 1x50
 556 679 632 681 698 695 c 1
 697 660 l 1
 656 650 630.343174612 637.554410114 598 613 c 0
 490 531.008163265 384 448.004081633 278 365 c 1
 522 93 l 0
 548 65 577 41 600 27 c 1
 590 2 l 1
 564 5.33333333333 530 7 504 7 c 0
 473 7 434 3.44444444444 403 -1 c 1x60
 404 25 l 1
 434 34 448.463671971 36.7071247768 435 62 c 0
 422.946666667 84.6434108527 282.324444444 233.302325581 209 316 c 1
 189.363636364 237.338912134 166.259835644 134.796992519 155 81 c 0
 146 38 175 38 227 24 c 1
 216 -6 l 1x80
 147 6 73 10 -23 -1 c 1
 -18 34 l 1
 34 35 56.8872865262 41.0333542104 67 75 c 0
 116.62406015 241.677606178 164.804062683 421.020313414 199 592 c 0
 210 647 198 649 143 660 c 1
 155 689 l 1
 226 678 311 681 386 691 c 1
 381 660 l 1
 327 655 301.319269451 652.549937558 288 609 c 0
 262 523.987951807 241 445.048192771 219 357 c 1
 315 434.004405286 412.558256869 504.095068796 503 587 c 0
 515 598 531 614 534 624 c 0
 540.908311707 647.02770569 523 652 491 659 c 1
 498 686 l 1x50
EndSplineSet
Validated: 33
Position2: "cpsp-1" dx=0 dy=0 dh=10 dv=20
Substitution2: "c2pc-1" k.pcap
Substitution2: "c2sc-1" k.smcp
EndChar

StartChar: L
Encoding: 76 76 37
Width: 666
VWidth: 1159
Flags: W
HStem: -7 44<-1 66.6264> 2 50<167.456 520.276> 652 41<159.605 205.673 315.742 405>
AnchorPoint: "TopRight" 438.5 581 basechar 0
AnchorPoint: "Top" 284 699 basechar 0
AnchorPoint: "Bottom" 258 -15 basechar 0
LayerCount: 2
Fore
SplineSet
412 693 m 1xa0
 405 652 l 1
 321 641 314.013124349 659.996092828 289 576 c 0
 274.871559633 528.555555556 179 149 179 149 c 0
 164 90 157 52 194 52 c 0
 234.145 52 424.532816776 51.6677344929 453 53 c 4
 519 57 553 91 595 166 c 5
 627 159 l 5
 613 102 605 122 545 -21 c 5
 527 -12 522.845034358 -5.08450343577 482 -1 c 4
 468.810810811 -6.52472867402e-016 363.297297297 2 238 2 c 0x60
 39 2 2 -7 -8 -7 c 1
 -1 37 l 1
 56 43 68.170944013 43.6837760521 76 75 c 0
 77 79 103.825663108 177.793169613 134 300 c 0
 172.513513514 455.980707395 207.009265869 603.851888869 209 615 c 0
 214 643 203 648 146 650 c 1
 161 696 l 1
 236 675 338 682 412 693 c 1xa0
EndSplineSet
Validated: 33
Position2: "cpsp-1" dx=0 dy=0 dh=10 dv=20
Substitution2: "c2pc-1" l.pcap
Substitution2: "c2sc-1" l.smcp
EndChar

StartChar: M
Encoding: 77 77 38
Width: 943
VWidth: 1159
Flags: W
HStem: -7 38<588 658.049> -4 41<-22 60.9275 156.818 213 781.422 837> 648 40<913.143 1001> 652 44<156.977 225.069>
AnchorPoint: "Top" 586 699 basechar 0
AnchorPoint: "Bottom" 397 -15 basechar 0
LayerCount: 2
Fore
SplineSet
837 -4 m 1x60
 767 10 680 11 583 -7 c 1
 588 31 l 1x80
 667 42 689.186523438 54.2177734375 708 123 c 0
 747.857421875 268.71875 778.516601562 412.413085938 801 547 c 1
 698.310546875 417.098632812 599.953125 279.734375 503 144 c 0
 473 102 439 46 419 0 c 1
 381 0 l 1
 393 55 385.518554688 109.893554688 376 153 c 2
 289 547 l 1
 237.387695312 414.870117188 193.16796875 269.815429688 156 123 c 0
 136 44 157 51 228 37 c 1
 213 -4 l 1
 148 6 59 12 -28 -4 c 1
 -22 37 l 1
 64 47 86.1396484375 62.958984375 102 115 c 2
 230 535 l 2
 240.130859375 568.241210938 244.205078125 602.665039062 233 621 c 0
 222 639 200 651 141 652 c 1
 160 696 l 1x50
 212 687 274.965820312 683 334 683 c 0
 351 683 351.124023438 670.01953125 353 658 c 0
 380 485 415 319 462 162 c 1
 843 675 l 0
 849 684 856.97265625 687.822265625 863 687 c 0
 907 681 958 683 1006 688 c 1
 1001 648 l 1
 930 646 901.122070312 637.969726562 886 578 c 0
 847 423.341796875 810.163085938 268.662109375 779 117 c 0
 764 44 785 40 848 39 c 1
 837 -4 l 1x60
EndSplineSet
Validated: 33
Position2: "cpsp-1" dx=0 dy=0 dh=10 dv=20
Substitution2: "c2pc-1" m.pcap
Substitution2: "c2sc-1" m.smcp
EndChar

StartChar: N
Encoding: 78 78 39
Width: 791
VWidth: 1159
Flags: W
HStem: -5 44<8 77.2401> 647 44<142.091 199.907 794.04 885> 657 38<648.237 708.285>
VStem: 586 37<0 60.1148>
AnchorPoint: "Top" 524 699 basechar 0
AnchorPoint: "Bottom" 351 -15 basechar 0
LayerCount: 2
Fore
SplineSet
144 691 m 1xd0
 185.950195312 687 240.704101562 683 285 683 c 0
 299 683 300.943359375 679.5859375 305 672 c 0
 399.203125 495.836914062 500.975585938 327.50390625 612 167 c 1
 649.16015625 289.721679688 681.692382812 411.680664062 713 539 c 0
 743 661 689 650 636 657 c 1
 651 695 l 1xb0
 742.31640625 681 813.33984375 681 890 686 c 1
 885 649 l 1
 822.137695312 643 796.166992188 645.13671875 778 603 c 0
 724.845703125 438.103515625 676.10546875 261.4375 634 86 c 0
 628 61 623 23 623 0 c 1
 586 -11 l 1
 581.833007812 32 564.712890625 72.7509765625 546 105 c 0
 456.65234375 258.977539062 364.776367188 409.975585938 267 557 c 1
 162 159 l 2
 134.280273438 53.9306640625 167 46 248 36 c 1
 228 -10 l 1
 147 21 67 2 2 -5 c 1
 8 39 l 1
 61 39 81.4638671875 50.1591796875 96 98 c 0
 142.139648438 249.852539062 180.23828125 410.952148438 220 570 c 0
 228 602 200.587890625 648 132 647 c 1
 144 691 l 1xd0
EndSplineSet
Validated: 33
Position2: "cpsp-1" dx=0 dy=0 dh=10 dv=20
Substitution2: "c2pc-1" n.pcap
Substitution2: "c2sc-1" n.smcp
EndChar

StartChar: O
Encoding: 79 79 40
Width: 776
VWidth: 1159
Flags: W
HStem: -10 53<284.863 468.334> 655 50<353.459 534.992>
VStem: 48.7354 96.0459<202.593 413.03> 674.638 100.362<290.286 501.723>
AnchorPoint: "Middle" 418.735 358 basechar 0
AnchorPoint: "Ogonek" 397.735 10 basechar 0
AnchorPoint: "Top" 486.563 699 basechar 0
AnchorPoint: "Bottom" 351.563 -15 basechar 0
LayerCount: 2
Fore
SplineSet
439.563476562 655 m 3
 295.125 655 144.78125 545.053710938 144.78125 322.274414062 c 3
 144.78125 167.192382812 238.79296875 43 380.563476562 43 c 3
 530.885742188 43 674.637695312 200.982421875 674.637695312 384.791015625 c 3
 674.637695312 535.33203125 581.92578125 655 439.563476562 655 c 3
486.563476562 705 m 3
 659.458984375 705 775 579.896484375 775 411.1640625 c 3
 775 183.0703125 557.200195312 -10 350.563476562 -10 c 3
 170.209960938 -10 48.7353515625 117.641601562 48.7353515625 287.963867188 c 3
 48.7353515625 530.426757812 267.122070312 705 486.563476562 705 c 3
EndSplineSet
Validated: 1
Position2: "cpsp-1" dx=0 dy=0 dh=10 dv=20
Substitution2: "c2pc-1" o.pcap
Substitution2: "c2sc-1" o.smcp
EndChar

StartChar: P
Encoding: 80 80 41
Width: 628
VWidth: 1159
Flags: W
HStem: -11 37<13.0845 69.3362> -7 47<194.329 259.463> 247 36<244.15 396.042> 645 42<168.13 232.157> 654 28<327.215 422.531>
AnchorPoint: "Top" 402 699 basechar 0
AnchorPoint: "Bottom" 147.463 -15 basechar 0
LayerCount: 2
Fore
SplineSet
304.462890625 283 m 3x28
 400.697265625 283 505.137695312 338.01171875 534.462890625 452 c 0
 556.270507812 536.767578125 516.443359375 611.611328125 480.462890625 632 c 0
 452.227539062 648 411.7578125 654 352.462890625 654 c 3
 338.462890625 654 324.581054688 642.208007812 321.462890625 627 c 0
 306.426757812 553.663085938 272.595703125 423.8359375 243.462890625 295 c 1
 260.891601562 286 279.2890625 283 304.462890625 283 c 3x28
170.462890625 687 m 1xb0
 193.462890625 685 225.462890625 682 261.462890625 682 c 3
 324.393554688 682 362.533203125 693 425.462890625 693 c 3
 581.05078125 693 650.734375 570.385742188 621.462890625 458 c 0
 592.252929688 345.846679688 474.436523438 247 288.462890625 247 c 3
 266.462890625 247 252.462890625 252 235.462890625 256 c 1
 219.279296875 186.220703125 198.294921875 108.416992188 194.462890625 77 c 0
 189.462890625 36 211.462890625 45 277.462890625 40 c 1
 259.462890625 -7 l 1x68
 167.462890625 9 124.462890625 14.6669921875 13.462890625 -11 c 1
 11.462890625 26 l 1
 87.462890625 53.0341796875 98.033203125 42.7763671875 109.462890625 82 c 0
 150.462890625 227.723632812 196.446289062 444.322265625 232.462890625 610 c 0
 237.462890625 633 221.462890625 644 156.462890625 645 c 1
 170.462890625 687 l 1xb0
EndSplineSet
Validated: 33
Position2: "cpsp-1" dx=0 dy=0 dh=10 dv=20
Substitution2: "c2pc-1" p.pcap
Substitution2: "c2sc-1" p.smcp
EndChar

StartChar: Q
Encoding: 81 81 42
Width: 725
VWidth: 1361
Flags: W
HStem: -162 49<503.768 707.576> 684 32<406.175 558.168>
AnchorPoint: "Top" 500 699 basechar 0
AnchorPoint: "Bottom" 256 -15 basechar 0
LayerCount: 2
Fore
SplineSet
485 684 m 3
 357 684 235.243587414 566.939967267 192 392 c 0
 148 214 198 46 349 46 c 3
 478 46 599.194501881 170.95148869 643 347 c 0
 696 560 615 684 485 684 c 3
716 -137 m 1
 697.843575419 -144.876712329 634.659217877 -162 586 -162 c 7
 436.277404922 -162 327.07606264 -99.3643410853 279 -2 c 1
 125 25 44.6480227006 172.838313865 92 364 c 0
 146 582 326 716 503 716 c 3
 681 716 792.470726356 567.131574805 743 367 c 0
 699 189 541 33 374 1 c 1
 427.740384615 -84.2233009709 543.182692308 -113 650 -113 c 3
 673.303448276 -113 701.524137931 -109.142857143 712 -106 c 1
 716 -137 l 1
EndSplineSet
Validated: 33
Position2: "cpsp-1" dx=0 dy=0 dh=10 dv=20
Substitution2: "salt-1" Q.alt
Substitution2: "c2pc-1" q.pcap
Substitution2: "c2sc-1" q.smcp
EndChar

StartChar: R
Encoding: 82 82 43
Width: 733
VWidth: 1159
Flags: HMW
HStem: -32 36<596.465 649> -10 44<-2 66.8601 174.733 220.705> 322 45<232 342.514> 649 37<157 205.042> 664 42<320.443 473.118>
AnchorPoint: "Top" 382 699 basechar 0
AnchorPoint: "Bottom" 340 -15 basechar 0
LayerCount: 2
Fore
SplineSet
232 371 m 1x28
 269 369 289 367 326 367 c 3
 461 367 512.8203125 455.28125 526 508 c 0
 541 568 507 664 399 664 c 3
 371 664 310.637695312 655.787109375 296 613 c 0
 270 537 249 447 232 371 c 1x28
157 686 m 1x70
 198 685 219 685 260 685 c 0
 325 685 356 705 429 705 c 0
 552 705 634.911132812 622.46875 609 520 c 0
 587 433 507 372 426 342 c 1
 486 139 540 8 664 4 c 1
 649 -32 l 1xa8
 482 -37 368 153 341 323 c 1
 332 322 325 322 318 322 c 0
 280 322 260 325 223 327 c 1
 203.392578125 232.170898438 188.563476562 164.038085938 173 84 c 0
 166 48 184 42 236 37 c 1
 219 -7 l 1
 149 10 74 11 -5 -4 c 1
 -1 37 l 1
 49 39 64 42 75 73 c 1
 140.50390625 303.684570312 161.345703125 392.1796875 207 599 c 1
 212 635 205 647 147 649 c 1
 157 686 l 1x70
EndSplineSet
Validated: 33
Position2: "cpsp-1" dx=0 dy=0 dh=10 dv=20
Substitution2: "salt-1" R.alt
Substitution2: "c2pc-1" r.pcap
Substitution2: "c2sc-1" r.smcp
EndChar

StartChar: S
Encoding: 83 83 44
Width: 535
VWidth: 1159
Flags: W
HStem: -10 43<145.445 319.821> 672 38<293.763 435.402> 681 20G<523.5 563>
VStem: 27 33<105.171 202> 490 40<533.255 621.073>
AnchorPoint: "Top" 365 699 basechar 0
AnchorPoint: "Bottom" 216 -15 basechar 0
LayerCount: 2
Fore
SplineSet
27 202 m 1xd8
 60 208 l 1
 61.529296875 149 60.28515625 128.506835938 73 108 c 0
 102.454101562 66.58203125 177.072265625 33 235 33 c 3
 330 33 390.96875 102.38671875 402 157 c 0
 428.948242188 290.41796875 295.204101562 317.834960938 228 362 c 0
 210 373.829101562 120 436 152 556 c 0
 171.506835938 629.151367188 257.198242188 710 387 710 c 3xd8
 436.248046875 710 474.602539062 695.456054688 492 688 c 0
 506 682 511 671 536 701 c 1xb8
 563 692 l 1
 527 612 530 610.009765625 530 558 c 0
 530 537 521 519 490 525 c 1
 488 541 490.198242188 565.840820312 487 584 c 0
 478.545898438 632 427.818359375 672 363 672 c 3
 322.592773438 672 238.01953125 644.06640625 224 564 c 0
 207.541992188 470.0078125 269.903320312 453.661132812 382 399 c 0
 502.545898438 339.081054688 500.7109375 237.479492188 484 174 c 0
 463.711914062 96.931640625 382.561523438 -10 202 -10 c 3
 152.166992188 -10 104.119140625 2.4521484375 64 26 c 0
 46.5 35.5458984375 45.40625 34.181640625 29 -4 c 1
 -4 0 l 1
 19.25 71.845703125 20.4169921875 90.587890625 27 202 c 1xd8
EndSplineSet
Validated: 33
Position2: "cpsp-1" dx=0 dy=0 dh=10 dv=20
Substitution2: "c2pc-1" s.pcap
Substitution2: "c2sc-1" s.smcp
EndChar

StartChar: T
Encoding: 84 84 45
Width: 714
VWidth: 1159
Flags: HMW
HStem: -21 51<147 251.578> -11 44<363.845 434> 632 51<196.079 407 497.327 715.943> 676 34G<182 198.5 775 798>
AnchorPoint: "Top" 455 699 basechar 0
AnchorPoint: "Bottom" 298 -15 basechar 0
LayerCount: 2
Fore
SplineSet
247 687 m 0x20
 411 685 575 683 741 685 c 0
 756 685 771 690 781 700 c 1
 799 684 l 1
 777 648 753 608 739 561 c 1
 704 567 l 1
 719 597 l 0
 741 646 556 635 503 635 c 1
 452.634765625 456.666992188 407.306640625 281.35546875 365 100 c 0
 350 37 354 43 451 33 c 1
 434 -11 l 1x60
 359 9 225 2 144 -21 c 1
 147 30 l 1
 259 41 261 53 268 76 c 0
 304.258789062 197.870117188 405.985351562 573.553710938 408 636 c 1xa0
 349 637 289 636 231 630 c 0
 185 625 185 630 132 556 c 1
 100 573 l 1
 128 612 175 692 191 714 c 1x10
 208 696 227 687 247 687 c 0x20
EndSplineSet
Validated: 33
Position2: "cpsp-1" dx=0 dy=0 dh=10 dv=20
Substitution2: "c2pc-1" t.pcap
Substitution2: "c2sc-1" t.smcp
EndChar

StartChar: comma
Encoding: 44 44 47
Width: 183
VWidth: 1159
Flags: W
HStem: -125 247
VStem: 5.56055 162.308
LayerCount: 2
Fore
SplineSet
16.6875 -125 m 1
 5.560546875 -100 l 1
 42.2939453125 -79 89.5859375 -42 80.66796875 -11 c 0
 74.4365234375 11 55.9599609375 26 38.3447265625 37 c 0
 34.4140625 39 32.6591796875 46 32.8681640625 52 c 1
 33.078125 58 38.251953125 63 43.322265625 65 c 0
 64.7060546875 76 81.2646484375 92 95.998046875 113 c 0
 98.1728515625 118 105.3125 122 111.3125 122 c 3
 117.3125 122 122.172851562 118 122.998046875 113 c 0
 131.264648438 92 145.706054688 76 163.322265625 65 c 0
 167.251953125 63 168.078125 58 167.868164062 52 c 1
 167.659179688 46 141.95703125 -60 16.6875 -125 c 1
EndSplineSet
Validated: 33
Position2: "cpsp-1" dx=0 dy=0 dh=10 dv=20
EndChar

StartChar: period
Encoding: 46 46 49
Width: 184
VWidth: 1159
Flags: W
HStem: -18 140<84.9007 113.663>
VStem: 31 136
LayerCount: 2
Fore
SplineSet
156.44140625 36 m 0
 135.057617188 25 117.568359375 11 102.834960938 -10 c 0
 100.66015625 -15 93.5556640625 -18 87.5556640625 -18 c 3
 81.5556640625 -18 74.66015625 -15 73.8349609375 -10 c 0
 65.568359375 11 54.0576171875 25 36.44140625 36 c 0
 32.5107421875 38 30.7900390625 46 31 52 c 1
 31.2099609375 58 36.3837890625 63 41.4541015625 65 c 0
 62.837890625 76 79.396484375 92 94.1298828125 113 c 0
 96.3046875 118 104.444335938 122 110.444335938 122 c 3
 116.444335938 122 122.3046875 118 123.129882812 113 c 0
 131.396484375 92 143.837890625 76 161.454101562 65 c 0
 165.383789062 63 167.209960938 58 167 52 c 1
 166.790039062 46 161.510742188 38 156.44140625 36 c 0
EndSplineSet
Validated: 1
Position2: "cpsp-1" dx=0 dy=0 dh=10 dv=20
EndChar

StartChar: uni0307
Encoding: 775 775 50
Width: 0
VWidth: 1159
Flags: W
HStem: 451 102<-126.919 -55.6741>
VStem: -143.509 104.425<467.528 536.472>
AnchorPoint: "TopMark" -118.415 405 mark 0
AnchorPoint: "TopMark" -83.9316 539 basemark 0
AnchorPoint: "Top" -124 389 mark 0
LayerCount: 2
Fore
SplineSet
-80.4560546875 553 m 0
 -52.4560546875 553 -33.1328125 531 -39.083984375 503 c 0
 -45.4609375 473 -75.13671875 451 -102.13671875 451 c 0
 -130.13671875 451 -149.885742188 471 -143.508789062 501 c 0
 -137.1328125 531 -107.456054688 553 -80.4560546875 553 c 0
EndSplineSet
Validated: 1048609
EndChar

StartChar: dotlessi
Encoding: 305 305 51
Width: 277
VWidth: 1159
Flags: HMW
HStem: 354 75<141 212>
VStem: 60 202
AnchorPoint: "Top" 207 465 basechar 0
LayerCount: 2
Fore
SplineSet
173 197 m 0
 160.555555556 157.071428571 152.555555556 100.428571429 157 80 c 1
 159 71 166 70 178 74 c 1
 191.575757576 77.3571428571 222.606060606 101.696428571 242 121 c 1
 262 106 l 1
 235.382978723 68.075 159.475177305 -5 123 -5 c 3
 121 -5 111 -3 107 -2 c 0
 91 4 81 20 77 41 c 0
 76 48 75 55 75 62 c 0
 75 66 76 70 76 74 c 0
 77.8947368421 107.488372093 100.631578947 154.930232558 112 194 c 0
 117.272727273 211.730496454 135.727272727 271.127659574 141 319 c 0
 142 329 141 337 137 338 c 1
 126.666666667 338 86.2727272727 300.121212121 75 288 c 1
 60 305 l 1
 85.3157894737 342.451612903 162.236842105 413 208 413 c 3
 238 413 241 392 235 365 c 0
 234 358 227 347 225 341 c 0
 210.142857143 303.2 177.642857143 212.3 173 197 c 0
EndSplineSet
Validated: 33
Substitution2: "case-1" I
EndChar

StartChar: uniFB01
Encoding: 64257 64257 52
Width: 511
VWidth: 1159
Flags: W
HStem: -326 36<-130.972 -90.3675> -5 21G<327.492 346.729> 351 62<329.382 427.658> 697 57<342.222 440.122>
VStem: 280.492 82<73.8162 149.7>
LayerCount: 2
Fore
SplineSet
179 335 m 1
 157.522460938 240.739257812 105.368238572 -77.8952842851 74 -172 c 0
 52.79296875 -235.62109375 21.2421875 -278.947265625 -14 -323 c 1
 -24 -322 -23 -321 -65 -321 c 3
 -86 -321 -118 -325 -130 -326 c 1
 -135 -290 l 1
 -75.8916015625 -275.814453125 -40.4205396097 -236.986829044 -12 -187 c 0
 40.4091796875 -94.8212890625 83.470703125 155.895507812 116 329 c 1
 92.662109375 327.875 70.337890625 324.5 47 320 c 1
 52 362 l 1
 75.328125 360.5 104 364 123 365 c 1
 131.608398438 413.620117188 143.119102083 481.087646528 145 493 c 0
 166 626 219.582663748 654.627607834 290 701 c 0
 331 728 368 754 425 754 c 3
 455.243902439 754 524.512195122 702 545 658 c 1
 540 631 531 624 479 598 c 1
 443.972972973 632.941176471 407 697 371 697 c 3
 289 697 266.857286895 620.143217238 218 498 c 0
 214 488 196 417 186 369 c 1
 386.199083306 396 384.748227945 413 413.4921875 413 c 3
 443.4921875 413 445.753247596 392.153659913 440.4921875 365 c 0
 432.878308762 325.702848832 412 307 378.4921875 197 c 0
 366.305098164 156.992021951 358.047851562 100.428710938 362.4921875 80 c 1
 364.4921875 71 371.4921875 70 383.4921875 74 c 1
 397.067382812 77.357421875 428.09765625 101.696289062 447.4921875 121 c 1
 467.4921875 106 l 1
 440.875 68.0751953125 364.966796875 -5 328.4921875 -5 c 3
 326.4921875 -5 316.352771599 -3.4477190373 312.4921875 -2 c 0
 296.4921875 4 285.515430792 19.837296959 282.4921875 41 c 0
 281.4921875 48 280.4921875 55 280.4921875 62 c 0
 280.4921875 66 281.26625691 70.006385676 281.4921875 74 c 0
 283.38671875 107.48828125 305.894260233 154.997968614 317.4921875 194 c 0
 322.764648438 211.73046875 339.772601083 271.309420034 346.4921875 319 c 0
 348.865234375 335.842105263 346.78432292 351 337 351 c 3
 310.66500756 351 207.726594002 338.87875 179 335 c 1
EndSplineSet
Validated: 33
LCarets2: 1 262
Ligature2: "liga-1" f i
EndChar

StartChar: uni0237
Encoding: 567 567 53
Width: 237
VWidth: 1159
Flags: HMW
HStem: 353 75<133 203>
AnchorPoint: "Top" 199 465 basechar 0
LayerCount: 2
Fore
SplineSet
-112 -311 m 1
 -71 -272 -42 -236 -15 -192 c 0
 2 -167 31 -88 41 -62 c 0
 51 -37 75 63 97 153 c 0
 116.425 240.466666667 124.75 267.8 134 317 c 0
 136 327 134 336 130 337 c 1
 119.492537313 337 77.4626865672 299.121212121 66 287 c 1
 52 304 l 1
 77.4834437086 341.451612903 153.933774834 412 200 412 c 3
 230 412 231 391 225 364 c 0
 224 357 215 345 213 339 c 0
 197.979591837 301.226415094 176.387755102 232.874213836 167 196 c 0
 147 116 126 27 116 -25 c 0
 105 -88 87 -163 76 -186 c 0
 58 -228 23 -274 0 -289 c 0
 -14 -299 -76 -315 -97 -332 c 1
 -112 -311 l 1
EndSplineSet
Validated: 33
EndChar

StartChar: U
Encoding: 85 85 54
Width: 777
VWidth: 1159
Flags: W
HStem: -10 54<242.688 461.689> 651 39<134 192.629 294.87 382 650 718.447 784.078 858>
AnchorPoint: "Ogonek" 366 10 basechar 0
AnchorPoint: "Top" 513 699 basechar 0
AnchorPoint: "Bottom" 316 -15 basechar 0
LayerCount: 2
Fore
SplineSet
134 690 m 1
 188 683 310 683 387 690 c 1
 382 655 l 1
 317 648 289.33175244 648.659032347 277 593 c 0
 274.978494624 583.892215569 191.053470681 286.654148607 183 255 c 0
 167 192 166.613806652 140.728716564 192 105 c 0
 219 67 274 44 370 44 c 3
 393 44 473.255335592 45.8738049297 540 102 c 0
 584 139 607.675820774 189.101262198 630 260 c 0
 660.344827586 356.104651163 697.08169363 512.042023687 718 608 c 0
 728 654 701 651 639 652 c 1
 650 690 l 1
 697 683 834 681 866 690 c 1
 858 650 l 1
 811 649 789.910396676 656.360146823 776 618 c 0
 771.957894737 606.877437326 742.538767813 487.593186366 680 255 c 0
 658 173 618.015164126 107.980596973 563 65 c 0
 499 15 415 -10 317 -10 c 3
 208 -10 142.647026654 18.7712918718 111 68 c 0
 84 110 82.175867362 165.724849155 98 236 c 0
 105.074468085 267.348314607 189.730349665 581.645352904 193 596 c 0
 203 640 194 642 119 651 c 1
 134 690 l 1
EndSplineSet
Validated: 33
Position2: "cpsp-1" dx=0 dy=0 dh=10 dv=20
Substitution2: "c2pc-1" u.pcap
Substitution2: "c2sc-1" u.smcp
EndChar

StartChar: V
Encoding: 86 86 55
Width: 709
VWidth: 1159
Flags: W
HStem: 651 42<142.467 190.064 294.484 375.001 597.449 649.482 740.59 809.885>
VStem: 200.765 42.7793<-27 14.614> 201.254 85.0049<111 591.14> 201.391 92.2598<137.86 646.685>
AnchorPoint: "Top" 486 699 basechar 0
AnchorPoint: "Bottom" 226.65 -15 basechar 0
LayerCount: 2
Fore
SplineSet
384.227539062 692 m 1x90
 375.000976562 656 l 1
 349.216796875 657 330.305664062 656.294921875 318.688476562 654 c 0
 288.3203125 648 293.848632812 631.770507812 293.650390625 618 c 2x90
 286.258789062 111 l 1xa0
 642.623046875 608 l 2
 656.521484375 623.654296875 658.797851562 651 635.044921875 651 c 0
 629.46484375 651 590.916992188 653 586.267578125 653 c 1
 597.44921875 693 l 1
 664.286132812 678 769.21484375 681 816 693 c 1
 809.884765625 651 l 1
 773.358398438 650 746.204101562 641.541992188 694.834960938 594 c 0
 663.390625 558.201171875 407.18359375 221.500976562 295.0234375 60 c 0
 274.216796875 35.64453125 255.328125 0 243.543945312 -27 c 1
 200.764648438 -27 l 1xc0
 200.115234375 0 201.248046875 21.015625 201.25390625 57 c 0xa0
 201.272460938 169.40625 201.331054688 403.74609375 201.390625 610 c 0
 201.403320312 652.190429688 172.327148438 649 130.41015625 656 c 1
 144.80078125 694 l 1
 241.557617188 676 278.787109375 687 384.227539062 692 c 1x90
EndSplineSet
Validated: 33
Position2: "cpsp-1" dx=0 dy=0 dh=10 dv=20
Substitution2: "c2pc-1" v.pcap
Substitution2: "c2sc-1" v.smcp
EndChar

StartChar: W
Encoding: 87 87 56
Width: 957
VWidth: 1159
Flags: W
HStem: 661 29<135 176.598 336.728 388 480 523.875 648.084 730 831 877.406>
VStem: 216 80<130 633.169> 216 34<-21 13.3559> 542 91<404.765 476 556 648.438> 542 74<113 317.235>
AnchorPoint: "Top" 611 699 basechar 0
AnchorPoint: "Bottom" 399 -15 basechar 0
LayerCount: 2
Fore
SplineSet
1071 693 m 1x88
 1067 657 l 1
 985.095703125 630 969.485351562 607.025390625 900 496 c 0
 701.6171875 179.017578125 636.538085938 79.681640625 613 42 c 0
 597.713867188 17.5302734375 587.451171875 7 577 -15 c 1
 541 -16 l 1
 545 2 542.1796875 18.5419921875 542 58 c 0
 541.370117188 196.162109375 540.629882812 337.837890625 540 476 c 1
 358.416015625 172.07421875 296.02734375 66.6865234375 272 23 c 0
 261 3 255 -9 250 -21 c 1
 216 -21 l 1
 216 -1 216.338867188 23.3837890625 216 89 c 0xa8
 214.658203125 348.821289062 210.040039062 558.569335938 210 574 c 0
 209.922851562 603.966796875 202 627.045898438 191 637 c 0
 172.606445312 653.645507812 150.771484375 659.451171875 127 661 c 1
 135 690 l 1
 187.333007812 678.9765625 329.666992188 681.379882812 391 690 c 1
 388 655 l 1
 338.655273438 655 317.747070312 643.354492188 307 619 c 0
 302 607.668945312 300.120117188 585.325195312 300 572 c 2
 296 130 l 1
 542 556 l 1
 542 611.3125 542 626.78125 539 631 c 1
 525.983398438 656 492.849609375 656 468 661 c 1
 480 690 l 1
 545 679 651 678 735 694 c 1
 730 658 l 1
 724 657 680.943359375 657.461914062 671 656 c 0
 637 651 633.611328125 626.842773438 633 609 c 2xd0
 616 113 l 1
 707.740234375 257.756835938 790.68359375 398.971679688 864 525 c 0
 910.002929688 604.078125 926 653.576171875 824 656 c 1
 831 688 l 1
 883 679 979 679 1071 693 c 1x88
EndSplineSet
Validated: 33
Position2: "cpsp-1" dx=0 dy=0 dh=10 dv=20
Substitution2: "c2pc-1" w.pcap
Substitution2: "c2sc-1" w.smcp
EndChar

StartChar: X
Encoding: 88 88 57
Width: 734
VWidth: 1159
Flags: W
HStem: -8 21G<392.941 425.5> 0 33<-16 32.9577 155.085 204 622.982 649> 654 39<335.865 382.711> 660 26<146 174.335 545 573.436 733.078 776>
AnchorPoint: "Top" 452 699 basechar 0
AnchorPoint: "Bottom" 299 -15 basechar 0
LayerCount: 2
Fore
SplineSet
146 686 m 1x50
 253 680 289 679 391 693 c 1
 383 659 l 1
 377 657 360.222705713 657.044541143 345 654 c 0
 320 649 317.063112318 631.026712655 323 617 c 2
 413 403 l 1
 482.433962264 476.005649718 541.541346547 547.182182053 573 585 c 0
 590 605 608.899826989 635.366724337 580 645 c 0
 574 647.285714286 536 658.714285714 531 661 c 1
 545 688 l 1
 620 678 702 681 782 691 c 1
 776 659 l 1
 759 657 712.68984259 648.151874072 660 606 c 0
 639.913043478 589.636363636 622.839130435 571.227272727 429 381 c 1
 463.615384615 314.563636364 565.270215523 112.913354484 579 91 c 0
 604 50 621 47 665 37 c 1
 649 0 l 1x60
 587 12 461 8 390 -8 c 1x80
 395 26 l 1
 407 33 431.537016095 36.1790053651 443 40 c 0
 479 52 471.976463148 80.2438753005 465 102 c 0
 448.173913043 152.472906404 422.934782609 227.645320197 379 320 c 1
 291.330097087 230.28125 217.910234201 145.79718771 169 89 c 0
 155 72 139.826253355 43.1224993899 168 38 c 0
 179 36 202 34 212 33 c 1
 204 2 l 1
 120 8 57 10 -24 0 c 1
 -16 33 l 1
 -6 37 46.9692469923 45.6465446241 94 87 c 0
 112.27480916 102.416666667 127.503816794 116.805555555 360 346 c 1
 227.886666667 590.099264706 221.319899424 603.336726132 211 617 c 0
 186 650 158 655 140 660 c 1
 146 686 l 1x50
EndSplineSet
Validated: 33
Position2: "cpsp-1" dx=0 dy=0 dh=10 dv=20
Substitution2: "c2pc-1" x.pcap
Substitution2: "c2sc-1" x.smcp
EndChar

StartChar: Y
Encoding: 89 89 58
Width: 689
VWidth: 1159
Flags: W
HStem: -11 41<169 247.388> -5 42<379.234 447> 649 39<122.946 171.89 299.248 360 563.029 604.562 704.962 783>
AnchorPoint: "Top" 444 699 basechar 0
AnchorPoint: "Bottom" 315 -15 basechar 0
LayerCount: 2
Fore
SplineSet
360 649 m 1xa0
 360 649 337 649 325 649 c 0
 308 649 290.8984375 636.963867188 297 620 c 0
 347 483.288085938 406 386.901367188 410 381 c 1
 499 485.5 585.465820312 585.603515625 589 590 c 0
 605 610 615.615234375 633.192382812 594 644 c 0
 584 649 568 650 553 654 c 1
 564 692 l 1
 597 686 728 675 793 691 c 1
 783 648 l 1
 723 646 693.059570312 627.9296875 661 601 c 0
 586 538.248046875 495 429.676757812 429 348 c 1
 416.307617188 296.431640625 398.258789062 242.5546875 374 85 c 0
 368 46 386 41 461 37 c 1
 447 -5 l 1x60
 355 9 272 15 169 -11 c 1
 169 30 l 1
 245 42 283.646484375 57.087890625 295 105 c 2
 344 311 l 1
 339 321.852539062 281.916015625 472.883789062 200 606 c 0
 183 634 161 635 111 651 c 1
 124 690 l 1
 176 684 309 677 366 688 c 1
 360 649 l 1xa0
EndSplineSet
Validated: 33
Position2: "cpsp-1" dx=0 dy=0 dh=10 dv=20
Substitution2: "c2pc-1" y.pcap
Substitution2: "c2sc-1" y.smcp
EndChar

StartChar: Z
Encoding: 90 90 59
Width: 685
VWidth: 1159
Flags: W
HStem: 4 40<128 498.977> 646 43<227.379 626>
AnchorPoint: "Top" 449 699 basechar 0
AnchorPoint: "Bottom" 284 -15 basechar 0
LayerCount: 2
Fore
SplineSet
117 570 m 1
 188 679 188 716 215 726 c 1
 226 699 259.02734375 690.24609375 269 689 c 0
 298.123046875 684.284179688 633.69921875 679.569335938 731.5 684.6171875 c 0
 741.163085938 685.001953125 748.50390625 685.4609375 753 686 c 1
 759 665 l 1
 745.5 651.998046875 l 0
 128 44 l 1
 199 44 271 42 342 42 c 0
 487 42 583 83 625 157 c 1
 647 144 l 1
 590 53 569 17 537 -24 c 1
 521 -13 506.999023438 -0.099609375 430 1 c 0
 290 3 64 11 -11 4 c 1
 -13 33 l 1
 29 54 68.7509765625 88.2509765625 100 119 c 0
 274.337890625 289.559570312 450.703125 465.3203125 622 639 c 0
 626 644 l 1
 288 646 l 2
 236 646.154296875 192 626 138 552 c 1
 117 570 l 1
EndSplineSet
Validated: 33
Position2: "cpsp-1" dx=0 dy=0 dh=10 dv=20
Substitution2: "c2pc-1" z.pcap
Substitution2: "c2sc-1" z.smcp
EndChar

StartChar: parenleft
Encoding: 40 40 60
Width: 383
VWidth: 1515
Flags: W
VStem: 37 48<49.4585 379.9>
LayerCount: 2
Fore
SplineSet
337 724 m 9
 358 689 l 1
 173.908045977 597 85 426 85 214 c 27
 85 2 161.356321839 -154 358 -263 c 9
 339 -301 l 1
 145 -194 37 -18 37 214 c 27
 37 445 149 627 337 724 c 9
EndSplineSet
Validated: 1
Position2: "cpsp-1" dx=0 dy=0 dh=10 dv=20
Position2: "'case' vertical ajustments for all-caps-1" dx=0 dy=125 dh=0 dv=0
EndChar

StartChar: parenright
Encoding: 41 41 61
Width: 380
VWidth: 1516
Flags: W
VStem: 296 48<49.4585 379.9>
LayerCount: 2
Fore
SplineSet
46 724 m 1
 234 627 344 445 344 214 c 3
 344 -18 237 -194 43 -301 c 1
 25 -263 l 1
 221.71042471 -154 296 2 296 214 c 3
 296 426 209.154440154 597 25 689 c 1
 46 724 l 1
EndSplineSet
Validated: 1
Position2: "cpsp-1" dx=0 dy=0 dh=10 dv=20
Position2: "'case' vertical ajustments for all-caps-1" dx=0 dy=125 dh=0 dv=0
EndChar

StartChar: zero
Encoding: 48 48 64
Width: 503
VWidth: 1159
Flags: W
HStem: 1 33<171.288 282.897> 375 36<225.567 341.745>
LayerCount: 2
Fore
SplineSet
279.390625 375 m 7
 203.82049591 375 152.439469981 298.412587413 135.000976562 227 c 0
 111.495124354 123.569060773 131.285902488 34 229.20703125 34 c 3
 309.369873094 34 351.261735967 126.926174497 367.081054688 195 c 0
 390.292810667 294.771428571 376.08266846 375 279.390625 375 c 7
308.299804688 411 m 7
 413.062947002 411 475.215386947 317.725 448.8046875 206 c 0
 422.35246193 93.4093264249 318.966927371 1 207.041015625 1 c 3
 97.4992746538 1 30.9159295141 93.4093264249 56.8046875 206 c 0
 83.6038579068 315.675 198.99595613 411 308.299804688 411 c 7
EndSplineSet
Validated: 33
Substitution2: "dnom-1" zero.denom
Substitution2: "numr-1" zero.numerator
Substitution2: "lnum-1" zero.proportionallining
Substitution2: "tnum-1" zero.tabulartext
EndChar

StartChar: one
Encoding: 49 49 65
Width: 370
VWidth: 1159
Flags: W
HStem: 0 26<32.9482 88.0461 199.587 246.514> 369 23<135.525 181.129> 379 23<293.338 336.308>
VStem: 28.5137 311.486
LayerCount: 2
Fore
SplineSet
135.525390625 392 m 1xd0
 187.989257812 387.885742188 279.708007812 388.837890625 340 402 c 9
 336.307617188 379 l 1xb0
 273.337890625 367 272.111328125 358 258.439453125 327 c 0
 255.211914062 318 232.135742188 249 220.009765625 200 c 24
 206.3984375 145 192.342773438 68 191.8671875 58 c 0
 191.185546875 31 218.690429688 29 254.196289062 27 c 9
 246.513671875 0 l 1
 173.626953125 6.4775390625 105.043945312 7.2900390625 28.513671875 0 c 9
 32.9482421875 26 l 1
 66.9384765625 30 95.43359375 32 114.858398438 62 c 0
 121.084960938 71 132.77734375 94 159.009765625 200 c 0
 183.262695312 298 184.459960938 319 184.944335938 325 c 0
 186.86328125 357 192.842773438 365 128.833007812 369 c 9
 135.525390625 392 l 1xd0
EndSplineSet
Validated: 33
Substitution2: "dnom-1" one.denom
Substitution2: "numr-1" one.numerator
Substitution2: "tnum-1" one.tabulartext
Substitution2: "lnum-1" one.proportionallining
EndChar

StartChar: two
Encoding: 50 50 66
Width: 445
VWidth: 1159
Flags: W
HStem: -11 21G<298.803 322.51> 2 64<83.8779 312.382> 405 53<170.634 274.758>
LayerCount: 2
Fore
SplineSet
93.3681640625 367 m 1x60
 131.692382812 414.314453125 181.868164062 458 249.888671875 458 c 0
 325.888671875 458 374.772460938 405 357.44921875 335 c 0
 329.484375 222 106.5703125 89 83.8779296875 66 c 9x60
 301.620117188 69 l 2
 333.620117188 69 366.272460938 108 395.697265625 138 c 1
 411.490234375 121 l 1
 411.490234375 121 331.196289062 39 313.823242188 -11 c 1xa0
 283.782226562 5 208.0390625 2 134.0390625 2 c 0
 44.0390625 2 -15.455078125 0 -20.455078125 0 c 1
 -22 18 l 1
 34.10546875 75 252.823242188 187 286.975585938 325 c 0
 301.081054688 382 259.772460938 405 215.772460938 405 c 0
 169.772460938 405 136.833984375 381 109.904296875 353 c 1
 93.3681640625 367 l 1x60
EndSplineSet
Validated: 33
Substitution2: "dnom-1" two.denom
Substitution2: "numr-1" two.numerator
Substitution2: "tnum-1" two.tabulartext
Substitution2: "lnum-1" two.proportionallining
EndChar

StartChar: three
Encoding: 51 51 67
Width: 388
VWidth: 1159
Flags: W
HStem: 122 26<79.667 113.413> 402 52<194.151 270.167>
LayerCount: 2
Back
Fore
SplineSet
-4 -208 m 1
 127.116210938 -155 184.211914062 -94 205.7421875 -7 c 0
 224.303710938 68 179.182617188 116 137.37890625 137 c 1
 133.37890625 137 100.666992188 122 79.6669921875 122 c 1
 77.1015625 148 l 1
 141.555664062 166 247.663085938 223 274.390625 331 c 0
 288.744140625 389 246.9609375 402 229.9609375 402 c 3
 188.9609375 402 164.268554688 379 139.061523438 362 c 1
 129.516601562 380 l 1
 147.930664062 414 225.830078125 454 261.830078125 454 c 3
 320.830078125 454 360.693359375 409 344.607421875 344 c 0
 320.849609375 248 206.03125 176 201.041015625 172 c 1
 246.5859375 154 302.986328125 95 280.959960938 6 c 0
 244.333984375 -142 45.2978515625 -227 -0.4345703125 -234 c 1
 -4 -208 l 1
EndSplineSet
Validated: 33
Substitution2: "dnom-1" three.denom
Substitution2: "numr-1" three.numerator
Substitution2: "tnum-1" three.tabulartext
Substitution2: "lnum-1" three.proportionallining
EndChar

StartChar: four
Encoding: 52 52 68
Width: 463
VWidth: 1159
Flags: W
HStem: -7 21G<368.231 392.247> 0 45.5<31.5176 221.258 293.518 377.541> 402.3 20G<372.957 410.6>
LayerCount: 2
Fore
SplineSet
233.517578125 45.5 m 17x60
 254.182617188 129 283.780273438 221.055664062 288.932617188 277.5 c 9
 288.932617188 277.5 135.56640625 130.26953125 31.517578125 45.5 c 9
 233.517578125 45.5 l 17x60
410.599609375 409.5 m 25
 396.723632812 383.370117188 379.86328125 359.635742188 375.018554688 342.5 c 0
 342.930664062 229 328.877929688 174.200195312 293.517578125 45.5 c 1x60
 360.146484375 44 376.641601562 46 427.119140625 104.5 c 9
 427.119140625 104.5 441.791015625 97.83984375 445.891601562 95.5 c 9
 445.891601562 95.5 405.967773438 32.974609375 378.525390625 -7 c 1xa0
 357.9375 2.591796875 310.291992188 1.060546875 282.505859375 1 c 1
 263.82421875 -73.654296875 246.595703125 -154.471679688 244.834960938 -179.5 c 1
 200.01953125 -203 172.081054688 -227 151.76953125 -252.5 c 9
 151.76953125 -252.5 131.534179688 -239.349609375 129.471679688 -233.5 c 1
 178.958984375 -179 192.067382812 -116.307617188 221.2578125 0 c 1
 37.2578125 0 -1.494140625 1 -33.94921875 -17 c 9
 -33.94921875 -17 -45.9912109375 -1.2900390625 -50 3 c 1
 -31.0400390625 19 355.646484375 367.799804688 390.267578125 422.299804688 c 9
 410.599609375 409.5 l 25
EndSplineSet
Validated: 33
Substitution2: "dnom-1" four.denom
Substitution2: "numr-1" four.numerator
Substitution2: "tnum-1" four.tabulartext
Substitution2: "lnum-1" four.proportionallining
EndChar

StartChar: five
Encoding: 53 53 69
Width: 362
VWidth: 1159
Flags: W
HStem: -215 32<-49.2719 13.0882> 326.5 72<149.687 327.791>
LayerCount: 2
Fore
SplineSet
146.853515625 393.5 m 9
 211.686523438 395.450195312 296.973632812 396 313.091796875 398.5 c 0
 340.557617188 402.759765625 360.653320312 428.610351562 377.465820312 448.5 c 9
 377.465820312 448.5 393.899414062 436.83984375 398 434.5 c 9
 360.276367188 392.379882812 318.649414062 326 301.272460938 326.5 c 0
 270.965820312 327.372070312 217.541015625 323.5 155.530273438 323.5 c 9
 155.530273438 323.5 136.389648438 264.299804688 121.298828125 217.5 c 1
 205.40625 224 306.069335938 176.166015625 274.473632812 48.5 c 0
 238.814453125 -95.595703125 55.4912109375 -206 -54.7353515625 -215 c 9
 -54.7353515625 -215 -47.9248046875 -188.849609375 -48.81640625 -183 c 1
 35.9267578125 -180 176.6796875 -92.1005859375 206.400390625 28 c 0
 221.018554688 87.0654296875 196.55859375 164 62.0888671875 152 c 1
 85.447265625 208 121.3515625 305.161132812 146.853515625 393.5 c 9
EndSplineSet
Validated: 33
Substitution2: "dnom-1" five.denom
Substitution2: "numr-1" five.numerator
Substitution2: "tnum-1" five.tabulartext
Substitution2: "lnum-1" five.proportionallining
EndChar

StartChar: six
Encoding: 54 54 70
Width: 496
VWidth: 1159
Flags: W
HStem: -10 40<191.044 287.179> 320 44<252.671 341.98>
LayerCount: 2
Fore
SplineSet
478.692382812 630 m 9
 478.692382812 630 482.452148438 612.459960938 485 607 c 1
 314.924804688 538 199.060546875 413.28515625 157.166992188 244 c 24
 132.053710938 142.525390625 150.08984375 30 252.20703125 30 c 3
 300.432617188 30 349.142578125 82.2705078125 363.923828125 142 c 0
 389.608398438 245.787109375 356.575195312 320 290.975585938 320 c 3
 263.594726562 320 243.014648438 304 217.571289062 282 c 1
 200.03515625 296 l 1
 227.934570312 336 279.709960938 364 334.86328125 364 c 3
 409.86328125 364 461.258789062 276.702148438 436.833007812 178 c 0
 411.578125 75.951171875 296.330078125 -10 208.306640625 -10 c 3
 83.162109375 -10 54.9521484375 121.913085938 77.7421875 214 c 0
 127.131835938 413.572265625 290.338867188 572 478.692382812 630 c 9
EndSplineSet
Validated: 33
Substitution2: "dnom-1" six.denom
Substitution2: "numr-1" six.numerator
Substitution2: "tnum-1" six.tabulartext
Substitution2: "lnum-1" six.proportionallining
EndChar

StartChar: seven
Encoding: 55 55 71
Width: 420
VWidth: 1159
Flags: W
HStem: 339 67<140.9 371.666>
LayerCount: 2
Fore
SplineSet
140.661132812 422 m 17
 145.69140625 410 155.555664062 406.586914062 169.701171875 406 c 24
 288.502929688 401.072265625 463.20703125 404 478.196289062 408 c 9
 478.196289062 408 480.844726562 390.900390625 483 387 c 1
 439.575195312 357 62.55859375 -132 57.154296875 -170 c 9
 57.154296875 -170 11.021484375 -167.219726562 -13.3515625 -168 c 1
 128.225585938 0 234.4140625 122.745117188 380.676757812 317 c 0
 386.072265625 324.166992188 382.9765625 334.358398438 375.129882812 335 c 0
 300.23046875 341.12109375 291.110351562 343 174.120117188 339 c 0
 127.869140625 337.418945312 90.595703125 328.799804688 64.26171875 283 c 9
 64.26171875 283 45.5908203125 291.440429688 39.736328125 293 c 9
 39.736328125 293 104.2265625 396 117.8984375 427 c 9
 140.661132812 422 l 17
EndSplineSet
Validated: 33
Substitution2: "dnom-1" seven.denom
Substitution2: "numr-1" seven.numerator
Substitution2: "tnum-1" seven.tabulartext
Substitution2: "lnum-1" seven.proportionallining
EndChar

StartChar: eight
Encoding: 56 56 72
Width: 461
VWidth: 1159
UnlinkRmOvrlpSave: 1
Flags: W
HStem: -7 34<153.502 258.846> 601 30<271.638 356.797>
LayerCount: 2
Fore
SplineSet
312.555664062 601 m 3
 274.31640625 601 220.727539062 557.240234375 211.758789062 521 c 0
 171.853515625 359.752929688 440.366210938 333.541992188 396.181640625 155 c 24
 372.083007812 57.6220703125 274.467773438 -7 166.08984375 -7 c 3
 83.1748046875 -7 18.095703125 41.5078125 40.7373046875 133 c 0
 90.5234375 334.173828125 347.981445312 331.985351562 383.62109375 476 c 0
 394.55859375 520.192382812 384.748046875 601 312.555664062 601 c 3
323.98046875 631 m 3
 372.862304688 631 406.530273438 621.931640625 432.03515625 586.771484375 c 0
 445.1640625 568.669921875 456.370117188 539.63671875 445.818359375 497 c 0
 406.462890625 337.97265625 156.311523438 333.3203125 116.63671875 173 c 0
 98.755859375 100.75 132.647460938 27 202.504882812 27 c 3
 288.587890625 27 316.859375 101.166992188 324.737304688 133 c 0
 343.686523438 209.573242188 313.873046875 244.362304688 258.146484375 296 c 0
 200.2890625 349.612304688 138.353515625 402.180664062 158.6015625 484 c 0
 178.5859375 564.750976562 268.229492188 631 323.98046875 631 c 3
EndSplineSet
Substitution2: "dnom-1" eight.denom
Substitution2: "numr-1" eight.numerator
Substitution2: "lnum-1" eight.proportionallining
Substitution2: "tnum-1" eight.tabulartext
EndChar

StartChar: uniFB00
Encoding: 64256 64256 74
Width: 527
VWidth: 1159
UnlinkRmOvrlpSave: 1
Flags: W
HStem: -329 36<-152.972 -102.433> -259 29<22.499 106.241> 280 42<45 107.907> 341 42<410.277 550> 657 57<334.2 452.554> 697 57<567.235 656.684>
LayerCount: 2
Fore
SplineSet
346 355 m 1xf8
 355.390980114 407.418563843 367.971153109 480.150636356 370 493 c 0
 391 626 444.582663748 654.627607834 515 701 c 0
 556 728 593 754 650 754 c 3
 681 754 752 728 773 706 c 1
 768 679 759 672 707 646 c 1
 671 664 633 697 596 697 c 3xf4
 514 697 492.498724567 619.884684297 443 498 c 0
 438.75 487.534883721 419.625 413.23255814 409 363 c 1
 432.321678322 365.678571429 530.678321678 381.571428571 554 383 c 1
 550 341 l 1
 527.698630137 343 424.301369863 330 402 329 c 1
 386.456318943 258.702655032 354.053618554 52.4297204806 326.499023438 -69 c 1
 307.079894674 -153.987176335 214.499023438 -277.512820513 -3.5009765625 -259 c 1
 22.4990234375 -230 l 1
 159.77516059 -224.842975207 229.823874478 -150.197165745 253 -74 c 1
 286.965556185 36.3778092138 315.789410645 198.528828957 339 320 c 1
 313.720812183 317.24137931 203.335025381 303.448275862 173 300 c 1
 153.772488839 211.688653769 108.579558341 -87.2254391454 79 -175 c 1
 55.2862659801 -238.62109375 10.055131392 -281.947265625 -36 -326 c 1
 -46 -325 -45 -324 -87 -324 c 3
 -108 -324 -140 -328 -152 -329 c 1
 -157 -293 l 1
 -84.9165872713 -278.814453125 -40.8524851382 -240.357183889 -7 -190 c 1
 40.4958190918 -104.431002831 79.520324707 128.308039229 109 289 c 1
 85.662109375 285.875 63.337890625 284.5 40 280 c 1
 45 322 l 1
 68.328125 320.5 98 324 116 325 c 1
 124.217107599 373.620117188 135.120042173 441.093600429 137 453 c 0
 158 586 211.582663748 614.627607834 282 661 c 0
 323 688 360 714 417 714 c 3
 443.715447154 714 504.902439024 693.958333333 523 677 c 1
 514 659 489 628 474 606 c 1
 438 624 400 657 363 657 c 3
 281 657 257.811764122 580.556253253 210 458 c 0
 206.25 448.387596899 189.375 380.139534884 180 334 c 1
 206.699300699 336.307692308 319.300699301 351.467741935 346 355 c 1xf8
EndSplineSet
Ligature2: "liga-1" f f
EndChar

StartChar: question
Encoding: 63 63 75
Width: 378
VWidth: 1159
Flags: W
HStem: -18 140<102.901 131.663> 680.8 20G<154.749 189.614>
VStem: 49 136 133.068 18.2549<184.428 208.086>
LayerCount: 2
Fore
SplineSet
140.3515625 556.799804688 m 5xd0
 184.7578125 690.440429688 124.537109375 689.404296875 184.959960938 700.799804688 c 5
 194.268554688 645.799804688 201.268554688 645.799804688 231.268554688 645.799804688 c 7
 327.401367188 645.799804688 405.272460938 565.836914062 379.544921875 444.799804688 c 4
 343.768554688 276.485351562 227.291015625 267.418945312 211.647460938 261.799804688 c 4
 181.361328125 247.799804688 162.662109375 225.799804688 151.323242188 185 c 13
 151.323242188 185 137.868164062 183.799804688 133.068359375 183.799804688 c 5
 141.16015625 259.505859375 147.849609375 320.763671875 188.2265625 339.799804688 c 4
 218.153320312 353.909179688 326.346679688 321.544921875 350.631835938 435.799804688 c 4
 369.416015625 524.169921875 285.55078125 571.465820312 140.3515625 556.799804688 c 5xd0
EndSplineSet
Refer: 49 46 N 1 0 0 1 18 0 2
Validated: 33
Position2: "cpsp-1" dx=0 dy=0 dh=10 dv=20
EndChar

StartChar: exclam
Encoding: 33 33 76
Width: 266
VWidth: 1159
Flags: W
LayerCount: 2
Fore
SplineSet
125.248046875 209 m 17
 157.419921875 339 179.673828125 437 196.430664062 533 c 0
 204.0625 580 186.000976562 604 200.375 654 c 1
 283.850585938 664 333.779296875 692 331.107421875 661 c 1
 306.198242188 625 302.506835938 602 279.430664062 533 c 0
 237.495117188 408 203.162109375 342 170.000976562 208 c 9
 125.248046875 209 l 17
EndSplineSet
Refer: 49 46 N 1 0 0.0349208 1 11.5253 0 2
Validated: 33
Position2: "cpsp-1" dx=0 dy=0 dh=10 dv=20
EndChar

StartChar: paragraph
Encoding: 182 182 77
Width: 605
VWidth: 1159
UnlinkRmOvrlpSave: 1
Flags: W
HStem: -8 21G<335.141 437.704> 686 55<384.014 530>
VStem: 290 38<57 490.2> 298 40<235.8 673>
LayerCount: 2
Fore
SplineSet
298 673 m 25xd0
 338 681 l 25xd0
 328 45 l 25
 290 57 l 25xe0
 298 673 l 25xd0
530 741 m 1
 532 686 l 1
 490 683 342 681 274 638 c 0
 223.677265889 606.178271077 206 581.006849235 206 289 c 3
 206 149 231.183524335 116.392422813 262 89 c 0
 280.613636364 72.619047619 375.75 53.1666666667 444 46 c 1
 434 -8 l 1
 236.281690141 35.3043478261 198.544797859 69.7754876614 144 131 c 0
 86 197 57.718337988 279.143475457 41 343 c 0
 35.5443009018 363.838314408 32.1187943776 378.508865382 40 399 c 0
 70 477 121.142297883 586.795128918 222 657 c 0
 324 728 530 741 530 741 c 1
EndSplineSet
Position2: "cpsp-1" dx=0 dy=0 dh=10 dv=20
EndChar

StartChar: ampersand
Encoding: 38 38 79
Width: 676
VWidth: 1159
Flags: W
HStem: -11 57<161.575 299.635 513.09 600.584> 461 35<584.895 645> 492 33<480.667 506.511>
VStem: 17 72<119.103 262.82> 81 38<475.664 567.366> 289 62<462.542 556.254>
LayerCount: 2
Fore
SplineSet
202 360 m 1x94
 131 330 89 273 89 216 c 3
 89 111 147 46 242 46 c 3
 312 46 353 107 386 146 c 1
 316 303 240 344 202 360 c 1x94
197 594 m 0
 166 594 119 568 119 525 c 3
 119 466 183 440 225 415 c 1
 268 442 289 467 289 492 c 3xac
 289 542 251 594 197 594 c 0
645 461 m 1xcc
 604 461 574 446 562 415 c 0
 526 330 495 261 448 181 c 1
 489 75 532 41 565 41 c 3
 602 41 627 90 641 121 c 1
 672 108 l 1
 640 39 616 -5 530 -5 c 3
 477 -5 433 45 406 108 c 1
 374 78 332 -11 199 -11 c 3
 80 -11 17 85 17 172 c 3xd4
 17 274 88 345 169 378 c 1
 121 404 81 448 81 506 c 3
 81 593 156 626 231 653 c 1
 316 623 351 575 351 498 c 3
 351 482 304 429 260 399 c 1
 317 376 392 298 428 216 c 1
 466 279 512 384 526 443 c 0
 532 469 492 485 472 492 c 1
 483 525 l 1xac
 525 509 598 495 648 496 c 1
 645 461 l 1xcc
EndSplineSet
Validated: 33
Position2: "cpsp-1" dx=0 dy=0 dh=10 dv=20
EndChar

StartChar: quotesingle
Encoding: 39 39 80
Width: 200
VWidth: 1159
Flags: W
HStem: 445.7 254<202.723 210.502>
VStem: 204.16 96<636.29 699.7>
LayerCount: 2
Fore
SplineSet
204.16015625 699.700195312 m 9
 300.16015625 699.700195312 l 17
 282.05859375 630.734375 234.571289062 537.034179688 209.301757812 445.700195312 c 9
 169.301757812 445.700195312 l 17
 189.084960938 536.911132812 188.321289062 630.889648438 204.16015625 699.700195312 c 9
EndSplineSet
Validated: 1
Position2: "cpsp-1" dx=0 dy=0 dh=10 dv=20
EndChar

StartChar: bracketleft
Encoding: 91 91 86
Width: 246
VWidth: 1515
Flags: W
HStem: -230 33<159.267 219> 685 32<163 219>
VStem: 37 54<-182 669>
LayerCount: 2
Fore
SplineSet
91 669 m 1
 91 -182 l 1
 219 -197 l 1
 219 -230 l 1
 37 -230 l 1
 37 717 l 1
 219 717 l 1
 219 685 l 1
 91 669 l 1
EndSplineSet
Validated: 1
Position2: "cpsp-1" dx=0 dy=0 dh=10 dv=20
Position2: "'case' vertical ajustments for all-caps-1" dx=0 dy=90 dh=0 dv=0
EndChar

StartChar: asterisk
Encoding: 42 42 88
Width: 362
VWidth: 1159
Flags: W
HStem: 402 21G<319.41 343.975> 540 74<175.026 230.788> 561 74<408.881 459.683>
LayerCount: 2
Fore
SplineSet
298.171875 522 m 1xa0
 258.80859375 468 259.869140625 444 213.763671875 387 c 1
 189.7734375 383 163.940429688 416 163.39453125 434 c 1
 213.510742188 487 233.510742188 487 281.895507812 533 c 1
 223.626953125 540 200.657226562 528 140.626953125 540 c 1
 134.318359375 563 168.712890625 605 182.940429688 614 c 1xc0
 240.485351562 596 241.536132812 576 291.338867188 555 c 1
 294.940429688 614 278.405273438 628 287.243164062 692 c 1
 306.203125 708 352.966796875 703 365.997070312 691 c 1
 351.158203125 627 333.435546875 616 314.833984375 557 c 1
 375.258789062 587 387.456054688 608 453.137695312 635 c 1
 467.405273438 628 473.258789062 587 457.82421875 561 c 1
 392.626953125 540 379.349609375 551 318.637695312 536 c 1
 352.243164062 494 374.995117188 493 407.364257812 446 c 1
 400.4140625 426 355.474609375 402 332.474609375 402 c 1
 306.344726562 454 318.045898438 473 298.171875 522 c 1xa0
EndSplineSet
Validated: 33
EndChar

StartChar: acutecomb
Encoding: 769 769 93
Width: 0
VWidth: 1159
Flags: W
HStem: 427.951 225.517
VStem: -139.253 205.956
AnchorPoint: "Top" -124 394 mark 0
AnchorPoint: "TopMark" -130.34 403 mark 0
AnchorPoint: "TopMark" -60.0654 616 basemark 0
LayerCount: 2
Fore
SplineSet
-139.252929688 448.625 m 17
 -101.385742188 509.115234375 -32.2607421875 601.944335938 16.0546875 653.467773438 c 9
 16.0546875 653.467773438 49.02734375 636.885742188 66.703125 618.620117188 c 1
 13.40234375 577.967773438 -52.3701171875 509.458984375 -115.977539062 427.951171875 c 9
 -139.252929688 448.625 l 17
EndSplineSet
Validated: 1048577
EndChar

StartChar: uni0302
Encoding: 770 770 94
Width: 0
VWidth: 1159
Flags: W
HStem: 422.6 184.801
VStem: -217.618 225.5
AnchorPoint: "Top" -115 389 mark 0
AnchorPoint: "TopMark" -72.7295 587 basemark 0
AnchorPoint: "TopMark" -125.878 384 mark 0
LayerCount: 2
Fore
SplineSet
7.8818359375 435.799804688 m 1
 -14.7236328125 422.599609375 l 1
 -85.146484375 528.581054688 l 1
 -200.624023438 422.599609375 l 1
 -217.618164062 435.799804688 l 1
 -84.3427734375 607.400390625 l 1
 -52.443359375 607.400390625 l 1
 7.8818359375 435.799804688 l 1
EndSplineSet
Validated: 1048577
EndChar

StartChar: gravecomb
Encoding: 768 768 95
Width: 0
VWidth: 1159
Flags: W
HStem: 430.175 225.517
VStem: -103.898 25.0635<445.075 460.102>
AnchorPoint: "Top" -124 394 mark 0
AnchorPoint: "TopMark" -62.1523 625 basemark 0
AnchorPoint: "TopMark" -108.852 410 mark 0
LayerCount: 2
Fore
SplineSet
-78.8349609375 450.848632812 m 13
 -103.8984375 430.174804688 l 17
 -132.85546875 511.681640625 -169.502929688 580.192382812 -205.521484375 620.84375 c 1
 -182.802414356 639.109375 -147.061523438 655.69140625 -147.061523438 655.69140625 c 21
 -120.6484375 604.16796875 -90.9882812499 511.338867188 -78.8349609375 450.848632812 c 13
EndSplineSet
Validated: 1048577
EndChar

StartChar: uni030A
Encoding: 778 778 99
Width: 0
VWidth: 1159
Flags: W
HStem: 425.265 31.6064<-131.984 -64.3948> 545.129 31.6064<-118.623 -51.4016>
VStem: -169.045 155.071
AnchorPoint: "TopMark" -119.304 382 mark 0
AnchorPoint: "TopMark" -79.043 562 basemark 0
AnchorPoint: "Top" -114.54 395 mark 0
LayerCount: 2
Fore
SplineSet
-82.12890625 545.12890625 m 4
 -105.491210938 545.12890625 -131.168945312 526.092773438 -136.685546875 500.134765625 c 4
 -142.204101562 474.17578125 -125.116210938 456.87109375 -100.888671875 456.87109375 c 4
 -77.52734375 456.87109375 -51.849609375 475.907226562 -46.33203125 501.865234375 c 4
 -41.1826171875 526.092773438 -57.90234375 545.12890625 -82.12890625 545.12890625 c 4
-75.4111328125 576.735351562 m 0
 -33.8310546875 576.735351562 -5.1357421875 544.064453125 -13.9736328125 502.485351562 c 0
 -23.443359375 457.934570312 -67.51171875 425.264648438 -107.607421875 425.264648438 c 0
 -149.1875 425.264648438 -178.514648438 454.96484375 -169.044921875 499.514648438 c 0
 -159.575195312 544.064453125 -115.505859375 576.735351562 -75.4111328125 576.735351562 c 0
EndSplineSet
Validated: 1048609
EndChar

StartChar: uni031B
Encoding: 795 795 100
Width: 0
VWidth: 1159
Flags: W
HStem: 330 18<-84.5 -47.4434>
VStem: 12.8818 62.7432<400.38 466.056>
AnchorPoint: "Horn" -73.5 341.8 mark 0
LayerCount: 2
Fore
SplineSet
12.8818359375 414.884765625 m 7
 12.8818359375 428.595703125 2.005859375 439.401367188 -15.744140625 450.72265625 c 5
 -6.4501953125 476.256835938 12.16015625 492.322265625 32.20703125 492.322265625 c 7
 58.421875 492.322265625 75.625 468.857421875 75.625 444.775390625 c 7
 75.625 399.205078125 -15.2378927954 330.428 -84.5 330 c 1
 -85 348 l 1
 -41.3873810375 349.464 12.8818359375 384.092773438 12.8818359375 414.884765625 c 7
EndSplineSet
Validated: 1
EndChar

StartChar: tildecomb
Encoding: 771 771 101
Width: 0
VWidth: 1159
Flags: W
HStem: 421.645 21G<-252.389 -215.599> 434.053 60<-104.274 -19.7566> 471.391 59.4463<-185.338 -104.274>
VStem: -252.389 294.189
AnchorPoint: "Top" -124 389 mark 0
AnchorPoint: "TopMark" -123.315 389 mark 0
AnchorPoint: "TopMark" -72.1445 538 basemark 0
LayerCount: 2
Fore
SplineSet
-252.388671875 435.353515625 m 1xb0
 -213.055664062 489.608398438 -162.302734375 530.836914062 -155.278320312 530.836914062 c 3xb0
 -115.55078125 530.836914062 -77.978515625 494.052734375 -39.310546875 494.052734375 c 3
 -29.7109375 494.052734375 -4.13671875 518.275390625 13.33984375 547.82421875 c 1
 41.80078125 534.5390625 l 1
 11.3046875 483.78125 -36.970703125 434.052734375 -48.7314453125 434.052734375 c 3x50
 -86.671875 434.052734375 -134.6875 471.390625 -170.577148438 471.390625 c 3
 -182.40234375 471.390625 -207.311523438 440.771484375 -223.88671875 421.64453125 c 1
 -252.388671875 435.353515625 l 1xb0
EndSplineSet
Validated: 1048577
EndChar

StartChar: uni0304
Encoding: 772 772 102
Width: 0
VWidth: 1159
Flags: W
HStem: 446.6 49.2002<-221.015 27.3281>
VStem: -231.473 269.259
AnchorPoint: "Top" -124 389 mark 0
AnchorPoint: "TopMark" -120.115 397 mark 0
AnchorPoint: "TopMark" -93.2842 495 basemark 0
LayerCount: 2
Fore
SplineSet
-231.47265625 446.599609375 m 1
 -221.014648438 495.799804688 l 1
 37.7861328125 495.799804688 l 1
 27.328125 446.599609375 l 1
 -231.47265625 446.599609375 l 1
EndSplineSet
Validated: 1048577
EndChar

StartChar: uni030B
Encoding: 779 779 103
Width: 0
VWidth: 1159
Flags: W
HStem: 432.981 247.172
VStem: -262.202 31.3643<453.32 485.66>
AnchorPoint: "TopMark" -200.5 408 mark 0
AnchorPoint: "TopMark" -132 648 basemark 0
AnchorPoint: "Top" -198.5 405 mark 0
LayerCount: 2
Fore
SplineSet
-262.202148438 456.548828125 m 17
 -250.314453125 520.91796875 -221.30078125 621.987304688 -195.465820312 680.153320312 c 9
 -195.465820312 680.153320312 -156.318359375 671.521484375 -131.434570312 658.137695312 c 1
 -166.666992188 609.087890625 -202.513671875 531.4296875 -230.837890625 442.080078125 c 9
 -262.202148438 456.548828125 l 17
-173.657226562 452.677734375 m 17
 -150.7734375 514.00390625 -104.650390625 608.5 -69.107421875 661.295898438 c 9
 -69.107421875 661.295898438 -32.0537109375 645.998046875 -9.8720703125 628.495117188 c 1
 -53.0859375 586.309570312 -101.874023438 516.055664062 -145.283203125 432.981445312 c 9
 -173.657226562 452.677734375 l 17
EndSplineSet
Validated: 1048577
EndChar

StartChar: uni030F
Encoding: 783 783 105
Width: 0
VWidth: 1159
Flags: W
HStem: 433.917 249.433
VStem: -168.97 31.3623<456.516 488.857>
AnchorPoint: "TopMark" -200.5 410 mark 0
AnchorPoint: "TopMark" -280 648 basemark 0
AnchorPoint: "Top" -198.5 405 mark 0
LayerCount: 2
Fore
SplineSet
-137.607421875 459.74609375 m 9
 -168.969726562 445.276367188 l 17
 -197.293945312 534.625 -233.141601562 612.28515625 -268.372070312 661.333984375 c 1
 -243.489257812 674.717773438 -204.342773438 683.349609375 -204.342773438 683.349609375 c 17
 -178.506835938 625.18359375 -149.495117188 524.114257812 -137.607421875 459.74609375 c 9
-226.38671875 453.612304688 m 9
 -254.759765625 433.916992188 l 17
 -298.169921875 516.989257812 -346.95703125 587.244140625 -390.170898438 629.430664062 c 1
 -367.989257812 646.931640625 -330.936523438 662.23046875 -330.936523438 662.23046875 c 17
 -295.392578125 609.434570312 -249.271484375 514.938476562 -226.38671875 453.612304688 c 9
EndSplineSet
Validated: 1048577
EndChar

StartChar: uni0306
Encoding: 774 774 106
Width: 0
VWidth: 1159
Flags: W
HStem: 436.274 54.7188<-158.176 -28.895>
VStem: -214.196 31.0049<523.032 545.649>
AnchorPoint: "Top" -124 389 mark 0
AnchorPoint: "TopMark" -119.327 396 mark 0
AnchorPoint: "TopMark" -78.0068 541 basemark 0
LayerCount: 2
Fore
SplineSet
-214.196289062 545.649414062 m 1
 -183.19140625 559.41015625 l 1
 -177.947265625 513.846679688 -138.237304688 490.993164062 -93.5234375 490.993164062 c 0
 -48.90234375 490.993164062 0.7001953125 513.750976562 26.00390625 559.41015625 c 1
 51.16015625 545.649414062 l 1
 16.35546875 472.732421875 -48.4306640625 436.274414062 -105.29296875 436.274414062 c 0
 -162.155273438 436.274414062 -211.092773438 472.732421875 -214.196289062 545.649414062 c 1
EndSplineSet
Validated: 1048577
EndChar

StartChar: uni030D
Encoding: 781 781 107
Width: 0
VWidth: 1159
Flags: W
HStem: 434 176.4<-220.2 -175.8>
VStem: -220.2 44.4<434 610.4>
AnchorPoint: "TopMark" -200.5 396 mark 0
AnchorPoint: "TopMark" -198.5 601 basemark 0
AnchorPoint: "Top" -198.5 393 mark 0
LayerCount: 2
Fore
SplineSet
-220.2 610.4 m 1
 -175.8 610.4 l 1
 -175.8 434 l 1
 -220.2 434 l 1
 -220.2 610.4 l 1
EndSplineSet
Validated: 1048577
EndChar

StartChar: uni0305
Encoding: 773 773 111
Width: 0
VWidth: 1159
Flags: W
HStem: 761 33<-364.23 161.756>
LayerCount: 2
Fore
SplineSet
-371.244140625 761 m 1
 -364.23046875 794 l 1
 168.76953125 794 l 1
 161.755859375 761 l 1
 -371.244140625 761 l 1
EndSplineSet
Validated: 1
EndChar

StartChar: uni0315
Encoding: 789 789 114
Width: 0
VWidth: 1159
Flags: W
HStem: 450.494 206.751
VStem: -59.75 61<571.846 641.311>
AnchorPoint: "TopRight" -110.5 531 mark 0
LayerCount: 2
Fore
SplineSet
-59.75 657.245 m 13
 1.25 639.245 l 5
 -12.9151 577.095 -43.2689 501.134 -106 450.494 c 13
 -126 464.494 l 5
 -87.0294 521.86 -68.2984 587.855 -59.75 657.245 c 13
EndSplineSet
Validated: 1
EndChar

StartChar: Circumflex
Encoding: 65538 -1 160
Width: 281
VWidth: 1159
Flags: HMW
AnchorPoint: "Top" 288.577 699 mark 0
LayerCount: 2
Fore
SplineSet
441.336914062 761.361328125 m 1
 411.05859375 747.85546875 l 1
 308.900390625 792.262695312 l 1
 187.865234375 747.85546875 l 1
 163.327148438 761.361328125 l 1
 304.517578125 859.400390625 l 1
 341.825195312 859.400390625 l 1
 441.336914062 761.361328125 l 1
EndSplineSet
Validated: 1
EndChar

StartChar: Breve
Encoding: 65541 -1 163
Width: 321
VWidth: 1159
Flags: W
VStem: 194.985 33.4678<827.449 841.462>
AnchorPoint: "Top" 310.577 699 mark 0
LayerCount: 2
Fore
SplineSet
194.985351562 838.463867188 m 1
 228.453125 852.797851562 l 1
 245.913085938 782.921875 406.333984375 782.62890625 455.08203125 852.797851562 c 1
 482.456054688 838.463867188 l 1
 414.83203125 717.109375 209.498046875 717.109375 194.985351562 838.463867188 c 1
EndSplineSet
Validated: 33
EndChar

StartChar: Ring
Encoding: 65544 -1 166
Width: 281
VWidth: 1159
Flags: W
HStem: 736.972 38.3721<269.493 346.001> 868.246 38.3721<282.355 357.574>
VStem: 227.338 173.68
AnchorPoint: "Top" 280.577 699 mark 0
LayerCount: 2
Fore
SplineSet
324.051757812 868.24609375 m 0
 299.458984375 868.24609375 272.4296875 848.208007812 266.622070312 820.883789062 c 0
 260.814453125 793.559570312 278.802734375 775.34375 304.3046875 775.34375 c 0
 328.896484375 775.34375 355.92578125 795.381835938 361.733398438 822.706054688 c 0
 367.154296875 848.208007812 349.553710938 868.24609375 324.051757812 868.24609375 c 0
332.208007812 906.618164062 m 0
 378.77734375 906.618164062 410.916015625 870.02734375 401.017578125 823.458007812 c 0
 390.411132812 773.560546875 341.0546875 736.971679688 296.1484375 736.971679688 c 0
 249.578125 736.971679688 216.732421875 770.236328125 227.337890625 820.131835938 c 0
 237.943359375 870.02734375 287.301757812 906.618164062 332.208007812 906.618164062 c 0
EndSplineSet
Validated: 33
EndChar

StartChar: Uni030B
Encoding: 65545 -1 167
Width: 300
VWidth: 1159
Flags: W
HStem: 728.472 183.528
VStem: 20.5 261.258
AnchorPoint: "Top" 87 699 mark 0
LayerCount: 2
Fore
SplineSet
20.5 754.3 m 17
 41.5 808.3 62 861 95 912 c 9
 95 912 128.44 895.56 149.5 882.3 c 1
 107.5 838.3 91.5 814.3 47.5 734.3 c 9
 20.5 754.3 l 17
120.971 755.492 m 17
 156.841 800.993 191.854 845.396 238.322 884.52 c 9
 238.322 884.52 265.494 859.021 281.758 840.184 c 1
 228.729 810.386 206.41 792.112 140.943 728.472 c 9
 120.971 755.492 l 17
EndSplineSet
Validated: 1
EndChar

StartChar: uni0328
Encoding: 808 808 255
Width: 0
VWidth: 1159
Flags: W
HStem: -300 60.1279<-258.411 -164.603>
VStem: -312.535 76.1592<-233.636 -149.912>
AnchorPoint: "Ogonek" -99.7461 21.6582 mark 0
LayerCount: 2
Fore
SplineSet
-91.0654296875 15.54296875 m 1
 -200.703065073 -64.1085020146 -236.375378145 -136.87580599 -236.375378145 -189.830484479 c 3
 -236.375378145 -221.691863708 -218.715686968 -239.872070312 -191.8203125 -239.872070312 c 3
 -172.067382812 -239.872070312 -146.079101562 -229.18359375 -116.728515625 -205.599609375 c 9
 -116.728515625 -205.599609375 -107.815429688 -215.926757812 -106.840820312 -224 c 1
 -145.065429688 -276.788085938 -195.49609375 -300 -236.99609375 -300 c 3
 -279.826579884 -300 -312.534626989 -272.198086313 -312.534626989 -224.384117065 c 3
 -312.534626989 -154.983030756 -240.691422043 -48.9490059569 -93.25390625 36.76171875 c 1
 -91.0654296875 15.54296875 l 1
EndSplineSet
Validated: 1
EndChar

StartChar: Uni0328
Encoding: 65547 -1 258
Width: 0
VWidth: 1159
Flags: W
HStem: -338.23 73.7197<-184.546 -117.498>
VStem: -275.584 71.875<-244.983 -118.496>
AnchorPoint: "Ogonek" -105.35 23.6582 mark 0
LayerCount: 2
Fore
SplineSet
-92.1719 12.3926 m 1
 -164.514989866 -37.5177021671 -203.708984375 -122.700132364 -203.708984375 -187.03125 c 3
 -203.708984375 -228.469229743 -175.522824414 -264.510742188 -144.514648438 -264.510742188 c 3
 -123.539764965 -264.510742188 -98.3555048772 -255.777742187 -72.5146484375 -236.510742188 c 9
 -72.5146484375 -236.510742188 -61.4052257941 -246.838961447 -58.7158203125 -254.911132812 c 1
 -85.7705506897 -302.647325281 -138.205109564 -338.23046875 -179.78515625 -338.23046875 c 3
 -228.965068015 -338.23046875 -275.583984375 -289.420252063 -275.583984375 -227.85546875 c 3
 -275.583984375 -144.145292738 -241.514987387 -38.8975355005 -98.8711 45.1113 c 1
 -92.1719 12.3926 l 1
EndSplineSet
Validated: 1
EndChar

StartChar: uni0327
Encoding: 807 807 269
Width: 0
VWidth: 1159
UnlinkRmOvrlpSave: 1
Flags: W
VStem: -195 62.4277<-164.273 -94.0566>
AnchorPoint: "Bottom" -193 -15 mark 0
LayerCount: 2
Fore
SplineSet
-289.175 -200.003 m 1
 -285.141 -177.812 l 1
 -239 -188 -195 -161.724 -195 -125 c 0
 -195 -109.445 -206 -85 -236.636 -95.1289 c 1
 -241.123 -72.4629 l 1
 -238.075 -70.4492 -234.859 -68.6517 -231.521 -67.0766 c 0
 -200.37 -47.1057 -206.753 -43.6231 -186.624 5.43262 c 1
 -151.624 13.4326 l 1
 -151.624 13.4326 -168.925 -41.8597 -175.072 -51.9287 c 1
 -151.745 -56.868 -132.572 -75.8807 -132.572 -111.429 c 0
 -132.572 -180.25 -220.06 -229.425 -289.175 -200.003 c 1
EndSplineSet
EndChar

StartChar: cedillafloating
Encoding: 65548 -1 270
Width: 0
VWidth: 1159
Flags: W
VStem: -195 63.126<-165.104 -94.3473>
AnchorPoint: "Bottom" -193 -15 mark 0
LayerCount: 2
Fore
SplineSet
-289.175 -200.003 m 1
 -285.141 -177.812 l 1
 -239 -188 -195 -161.724 -195 -125 c 3
 -195 -109.445 -206 -85 -236.636 -95.1289 c 1
 -241.123 -72.4629 l 1
 -199.113 -38.5203 -131.874 -44.0724 -131.874 -109.349 c 3
 -131.874 -179.786 -219.751 -230.116 -289.175 -200.003 c 1
EndSplineSet
Validated: 33
EndChar

StartChar: Uni0327
Encoding: 65549 -1 282
Width: 0
VWidth: 1159
Flags: W
VStem: -194.928 70.897<-182.621 -103.12>
AnchorPoint: "Bottom" -191 -15 mark 0
LayerCount: 2
Fore
SplineSet
-302.112 -226.844 m 1
 -297.393 -200.881 l 1
 -243.408 -212.801 -194.928 -182.057 -194.928 -139.091 c 0
 -194.928 -120.892 -206.823 -92.29 -240.667 -104.142 c 1
 -245.892 -77.6221 l 1
 -241.051 -73.5835 -235.91 -70.2296 -230.581 -67.5294 c 0
 -201.19 -48.4085 -207.089 -43.3329 -187.571 4.44336 c 1
 -142.571 12.4434 l 1
 -142.571 12.4434 -152.525 -33.2849 -173.391 -61.6674 c 1
 -145.899 -69.2159 -124.031 -91.6921 -124.031 -124.709 c 0
 -124.031 -204.066 -223.518 -260.771 -302.112 -226.844 c 1
EndSplineSet
Validated: 33
EndChar

StartChar: Cedillafloating
Encoding: 65550 -1 283
Width: 0
VWidth: 1159
Flags: W
VStem: -194.928 70.8965<-182.621 -103.74>
AnchorPoint: "Bottom" -193 -15 mark 0
LayerCount: 2
Fore
SplineSet
-302.112 -226.844 m 1
 -297.393 -200.881 l 1
 -243.408 -212.801 -194.928 -182.057 -194.928 -139.091 c 3
 -194.928 -120.892 -206.798 -92.29 -240.642 -104.142 c 1
 -245.892 -77.6221 l 1
 -199.032 -34.292 -124.031 -58.5156 -124.031 -124.709 c 3
 -124.031 -204.066 -223.518 -260.771 -302.112 -226.844 c 1
EndSplineSet
Validated: 33
EndChar

StartChar: Uni030F
Encoding: 65554 -1 296
Width: 300
VWidth: 1159
Flags: W
HStem: 727.907 184.093
VStem: -108.738 262.238
AnchorPoint: "Top" 87 699 mark 0
LayerCount: 2
Fore
SplineSet
153.5 754.3 m 9
 126.5 734.3 l 17
 82.5 814.3 66.5 838.3 24.5 882.3 c 1
 45.5596 895.56 79 912 79 912 c 17
 112 861 132.5 808.3 153.5 754.3 c 9
52.0479 754.928 m 9
 32.0752 727.907 l 17
 -33.3916 791.548 -55.71 809.821 -108.738 839.619 c 1
 -92.4766 858.457 -65.3037 883.955 -65.3037 883.955 c 17
 -18.835 844.832 16.1777 800.429 52.0479 754.928 c 9
EndSplineSet
Validated: 1
EndChar

StartChar: thorn
Encoding: 254 254 318
Width: 515
VWidth: 1159
Flags: W
HStem: -348 32<8.34375 55.6963> -342 34<151.753 229> -10 46<184.803 329.513> 369 43<198.188 323.819> 654 29<16 45.5305>
VStem: 67 82<-302.037 -18.4171> 80 65<-197.411 7 69.4004 345.78 368 599.495> 406 69<130.435 275.055>
LayerCount: 2
Fore
SplineSet
145 332 m 9x3b
 144 241 143 189 143 98 c 3
 143 92 147 85 154 79 c 0
 185 52 227 36 268 36 c 3
 345 36 406 96 406 180 c 3
 406 270 352 369 251 369 c 3
 207 369 155 342 145 332 c 9x3b
76 31 m 24
 79.1289 217.79 80 367 80 510 c 3
 80 570 80 607 76 627 c 0
 71 654 64 656 46 656 c 3
 36 656 25 654 16 654 c 1
 11 683 l 1
 48 690 104 718 154 759 c 1
 175 743 l 1
 165 717 157 687 156 667 c 0
 151 599 145 484 145 368 c 1xbb
 178 382 234 412 294 412 c 3
 399 412 475 315 475 223 c 3
 475 94 363.004 -10 225 -10 c 3
 198 -10 170 -2 144 7 c 1
 144 -75 144 -247 149 -284 c 0
 151 -299 170 -303 181 -304 c 0
 197 -305 216 -307 230 -308 c 1
 229 -342 l 1x7d
 190 -341 159 -339 117 -339 c 3
 87 -339 39 -344 9 -348 c 1
 6 -316 l 1
 17 -315 25 -313 36 -311 c 0
 59 -305 65 -294 67 -266 c 0xbd
 72 -214 74.0589 -84.8672 76 31 c 24
EndSplineSet
Validated: 1
Substitution2: "case-1" Thorn
EndChar

StartChar: Thorn
Encoding: 222 222 319
Width: 587
VWidth: 1159
Flags: W
HStem: -9 35<49 91.6309> 178 45<203.142 405.091> 519 42<202.8 387.894> 652.244 37.7988<214.407 312> 661 31<29.871 95.7781>
VStem: 117 86.1416<54.7783 182.945 226.958 514.181 554.895 640.551> 479 87<299.251 431.707>
LayerCount: 2
Fore
SplineSet
314 652.244140625 m 1xf6
 283.541 652.769147191 253.069 648.465093362 225 641 c 0
 207.498 636.345 204 622 203 604 c 0
 202.239883251 587.238492476 201.659794154 570.91028451 201.219726562 554.89453125 c 1
 237.961809061 557.525733262 273.918889796 561 323 561 c 3
 456 561 566 478 566 375 c 3
 566 258.263 431.193 178 306 178 c 3
 265.719843969 178 242.812755235 181.861243996 203.141601562 182.9453125 c 1
 204.31965455 145.320541563 206.446750223 106.414148259 212 75 c 0
 215.801 58.8486 223.212 38.1826 320 36.1611 c 1
 316 -10.61 l 1
 220.463 11.9565 171.172 11.0439 49 -9 c 1
 39 26 l 1
 92 36 117 49 117 77 c 1
 121 155.005597015 120 534.902985075 114 620 c 0
 113 647 99 647 26 661 c 1
 31 692 l 1xee
 117.191 682.668930841 220 680.999824348 312 690.04296875 c 1
 314 652.244140625 l 1xf6
203.073242188 226.958007812 m 1
 242.562147428 225.396004729 263.367097504 223 304 223 c 3
 450 223 479 311 479 364 c 3
 479 424 418 519 302 519 c 3
 280.518940027 519 230.748801075 516.599942869 201.26171875 510.466796875 c 1
 199.976347343 417.947865711 201.340741584 313.533943398 203.073242188 226.958007812 c 1
EndSplineSet
Validated: 33
Position2: "cpsp-1" dx=0 dy=0 dh=10 dv=20
EndChar

StartChar: AE
Encoding: 198 198 320
Width: 1067
VWidth: 1159
Flags: W
HStem: -9 35<449 495.845> -5 39<22.2735 80.0876 173.619 239.873> 247 42<296.875 529.631> 334 36<608 868.393> 661 31<396 456.398>
VStem: 525 93<373.564 639.016> 529.631 78.3691<90.5 243.369 285.991 334 370 605.156> 892 36<250 306.348> 933 30<539 621.889> 993 28<152.034 171.75>
AnchorPoint: "Top" 580.585 699 basechar 0
AnchorPoint: "Bottom" 569.957 -15 basechar 0
LayerCount: 2
Fore
SplineSet
396 692 m 1x7bc0
 558 678 943 687 969 693 c 1
 1001 665 974 672 963 539 c 1
 933 536 l 1
 922 572 941 619 905 630 c 0
 842 648 731 653 650 643 c 0
 632 641 619 627 618 609 c 0x7dc0
 614 526.970338983 609 445.953389831 608 370 c 1
 672 372 824 372 838 373 c 0
 875 378 880 404 896 448 c 1
 930 441 l 1
 913 377 917 314 928 250 c 1
 892 241 l 1
 872 312 879 325 838 329 c 0
 794 334 701 333 608 334 c 1
 607 236.227091633 611 147.525896414 623 81 c 0
 627 64 636 50 653 49 c 0
 746 40 809 32 885 58 c 0
 944 78 954 101 993 177 c 1
 1021 170 l 1
 1005 104 994 62 982 0 c 1
 790 -1 579 12 451 -9 c 1
 441 26 l 1xbbc0
 494 36 527 49 527 77 c 1
 528.380926187 103.914026086 529.284877868 166.790357996 529.630859375 241.087890625 c 1
 467.278003094 249.660049211 355.177385742 253.494120142 272.916992188 247 c 1
 235.500997091 184.6 209.014082931 147.759493671 176.979 87 c 0
 158.157 51 172.988 29 244.937 34 c 1
 239.599 -10 l 1
 186.683 1 79.251 4 22.5469 -5 c 1
 22.5469 -5 18.2832 20 19.9365 34 c 1
 71.5889 48 102.294 57 117.652 80 c 0
 245.893953454 285.468704307 363.399910804 480.400810666 462.046875 648.923828125 c 1
 441.407911312 652.540879605 417.029954203 656.00792895 391 661 c 1
 396 692 l 1x7bc0
499.977539062 640.265625 m 1
 473.026905511 593.239042544 345.505326951 370.882231497 296.875 289 c 1
 347.043311173 284.20133642 475.957582399 285.850220822 529.76953125 285.991210938 c 1
 529.972511301 417.75573903 528.516654383 568.318110715 525 618 c 0
 524.612992871 628.452823952 515.381822824 635.158711011 499.977539062 640.265625 c 1
EndSplineSet
Validated: 33
Position2: "cpsp-1" dx=0 dy=0 dh=10 dv=20
EndChar

StartChar: uni0337
Encoding: 823 823 322
Width: 0
VWidth: 1159
Flags: W
HStem: 391.747 20G<-87.813 -46.585>
AnchorPoint: "Middle" -259 192 mark 0
LayerCount: 2
Fore
SplineSet
-68.1973 411.747 m 25
 -46.585 392.313 l 25
 -449.803 -17.7119 l 25
 -469.397 2.68652 l 25
 -68.1973 411.747 l 25
EndSplineSet
Validated: 1
EndChar

StartChar: ae
Encoding: 230 230 323
Width: 558
VWidth: 1159
Flags: W
HStem: -10 51<339.259 434.931> -8 68<63.2681 144.856> 367 54<388.467 464.359>
VStem: 12 71.2207<71.8037 178.154> 242.717 71.6689<121.345 174.385> 478.894 60<311.103 352.071>
AnchorPoint: "Top" 362.894 465 basechar 0
AnchorPoint: "Bottom" 216.894 -15 basechar 0
LayerCount: 2
Fore
SplineSet
300.893554688 323 m 0x7c
 291.544921875 328 266.306640625 333 257.893554688 333 c 0
 229.7109375 333 198.836231447 317.319882615 177.893554688 303 c 0
 135.725585938 274.166992188 83.220703125 218.973632812 83.220703125 144.540039062 c 0
 83.220703125 99.8447265625 103.79296875 60 123.893554688 60 c 0
 169.490234375 60 172.893554688 81 242.716796875 139.09765625 c 1
 245.541992188 205.252929688 268.494650598 263.360668416 299.055664062 309.3671875 c 0
 302.763671875 314.94921875 304.12894002 321.26959439 300.893554688 323 c 0x7c
421.893554688 367 m 0
 380.530273438 367 333.86328125 283.416992188 316.893554688 190 c 1
 382.054292719 242.654618474 453.456894729 270.783970309 468 283 c 0
 472.468666301 286.753624772 478.893554688 289.925925926 478.893554688 300 c 0
 478.893554688 337.416015625 455.893554688 367 421.893554688 367 c 0
446.893554688 421 m 0
 499.893554688 421 538.893554688 377.040039062 538.893554688 327 c 0
 538.893554688 321.105034722 542.393554688 313.105034722 552.893554688 311 c 1
 547.893554688 284 l 1
 497.667564358 265.119300717 396.090919259 223.016393443 314.893554688 160 c 1
 314.6796875 155.43359375 314.385742188 149.081054688 314.385742188 144.0625 c 0
 314.385742188 79.556640625 344.826171875 41 384.893554688 41 c 0
 428.893554688 41 458.893554688 59 486.893554688 82 c 1
 501.893554688 65 l 1
 465.893554688 28 419.893554688 -10 351.893554688 -10 c 0xbc
 280.391601562 -10 247.903320312 39.81640625 243.06640625 106.103515625 c 1
 192.149414062 60.94921875 147.1171875 -8 84.8935546875 -8 c 0
 41.642578125 -8 12 40.3115234375 12 98.2998046875 c 0
 12 161.483398438 59.9999677427 229.402374619 97.8935546875 269 c 0
 126.602539062 299 160.414327492 320.517122143 181.893554688 333 c 0
 231.59375 361.883789062 293.650580267 376.817883945 368.893554688 390.045898438 c 0
 372.08203125 390.606445312 375.284324896 390.684367177 377.60546875 392.34375 c 0
 403.548828125 410.890625 428.364257812 421 446.893554688 421 c 0
EndSplineSet
Validated: 1
Substitution2: "case-1" AE
EndChar

StartChar: bar
Encoding: 124 124 326
Width: 158
VWidth: 1515
Flags: W
HStem: 684 20G<60 98>
VStem: 60 38<-223 704>
LayerCount: 2
Fore
SplineSet
60 704 m 17
 98 704 l 9
 98 -223 l 1
 60 -223 l 1
 60 704 l 17
EndSplineSet
Validated: 1
Position2: "cpsp-1" dx=0 dy=0 dh=10 dv=20
Position2: "'case' vertical ajustments for all-caps-1" dx=0 dy=90 dh=0 dv=0
EndChar

StartChar: germandbls
Encoding: 223 223 328
Width: 477
VWidth: 1159
Flags: W
HStem: -326 36<-176.112 -133.832> -9.16602 45.1514<242.036 355.133> 697 57<333.094 430.814>
VStem: 265.313 65.5557<262.782 333.862> 373.424 69.4473<66.1989 155.309> 458.324 61.082<533.259 638.468>
LayerCount: 2
Fore
SplineSet
519.40625 613 m 0
 514.268554688 465.877929688 333.514648438 392.073242188 330.869140625 316.326171875 c 0
 329.959960938 290.267578125 347.7890625 260.630859375 384.06640625 231 c 0
 418.391601562 202.96484375 444.063476562 168.865234375 442.87109375 134.7109375 c 0
 439.801757812 46.80859375 360.916015625 8.8095703125 310.895507812 -3 c 0
 292.828125 -7.265625 270.4765625 -9.166015625 248.403320312 -9.166015625 c 3
 217.189453125 -9.166015625 186.489257812 -6.1083984375 167.96484375 -1 c 1
 175.365234375 20 186.762695312 60 190.8984375 83 c 1
 206.038085938 87 l 1
 235.646484375 52.9921875 282.888671875 35.9853515625 315.490234375 35.9853515625 c 3
 340.62890625 35.9853515625 371.887695312 56.69921875 373.423828125 100.663085938 c 0
 374.442382812 129.840820312 350.52734375 160.653320312 325.459960938 185 c 0
 296.780273438 212.85546875 263.640625 228.599609375 265.313476562 276.489257812 c 0
 268.770507812 375.487304688 453.498046875 443.814453125 458.32421875 582 c 0
 459.5390625 616.794921875 407.645507812 697 361.33984375 697 c 3
 279.33984375 697 253.029296875 620.734375 201.390625 498 c 0
 138.295898438 348.038085938 108.6640625 19 33.9931640625 -172 c 0
 9.2939453125 -235.178710938 -22.4990234375 -278.947265625 -59.279296875 -323 c 1
 -69.244140625 -322 -68.2099609375 -321 -110.209960938 -321 c 3
 -131.209960938 -321 -163.349609375 -325 -175.383789062 -326 c 1
 -179.126953125 -290 l 1
 -119.5234375 -275.814453125 -82.3984375 -237.158203125 -52.5302734375 -187 c 0
 20.087890625 -65.0498046875 89.0966796875 290.11328125 128.215820312 493 c 0
 153.860351562 626 208.443359375 654.627929688 280.479492188 701 c 0
 322.421875 728 360.330078125 754 417.330078125 754 c 3
 444.297851562 754 521.486328125 672.559570312 519.40625 613 c 0
EndSplineSet
Validated: 33
MultipleSubs2: "case-2" S S
Substitution2: "case-1" uni1E9E
EndChar

StartChar: minus
Encoding: 8722 8722 331
Width: 463
VWidth: 0
Flags: W
HStem: 190 54<34.2002 427.8>
LayerCount: 2
Fore
SplineSet
34.2002 244 m 25
 427.8 244 l 9
 427.8 190 l 9
 34.2002 190 l 9
 34.2002 244 l 25
EndSplineSet
Validated: 1
EndChar

StartChar: greater
Encoding: 62 62 334
Width: 463
VWidth: 0
Flags: W
HStem: -7 21G<70.4615 113.429> 392 20G<91.5605 135.282>
LayerCount: 2
Fore
SplineSet
72.5 365.6 m 25
 106 412 l 25
 412 203 l 25
 82 -7 l 25
 67 19 l 25
 332.5 187.6 l 25
 72.5 365.6 l 25
EndSplineSet
Validated: 1
EndChar

StartChar: braceleft
Encoding: 123 123 337
Width: 266
VWidth: 1515
Flags: W
HStem: -229.7 31<189.018 239.5> 685.3 31<189.018 239.5>
VStem: 91.5 59.5<-156.252 38.4622 448.137 642.851> 114 66<-8.67273 162.063 324.537 495.272>
LayerCount: 2
Fore
SplineSet
239.5 716.3 m 1xe0
 239.5 716.3 239.5 697.39 239.5 685.3 c 1
 184.336 684.28 151 654.121 151 551 c 3xe0
 151 480.769 180 464.467 180 390 c 3
 180 334.827 122.112 266.261 79.5 243.3 c 1
 122.112 220.339 180 151.773 180 96.5996 c 3xd0
 180 22.1318 151 5.83048 151 -64.4004 c 3
 151 -167.522 184.336 -197.68 239.5 -198.7 c 1
 239.5 -229.7 l 1
 164.146 -233.096 91.5 -190.992 91.5 -39.7002 c 3xe0
 91.5 20.2272 114 52.5951 114 99.5996 c 3
 114 146.535 81.5417 208.612 11.5 230.3 c 1
 11.5 256.3 l 1
 81.5417 277.987 114 340.065 114 387 c 3xd0
 114 434.004 91.5 466.372 91.5 526.3 c 3
 91.5 677.592 164.146 719.696 239.5 716.3 c 1xe0
EndSplineSet
Validated: 33
Position2: "cpsp-1" dx=0 dy=0 dh=10 dv=20
Position2: "'case' vertical ajustments for all-caps-1" dx=0 dy=90 dh=0 dv=0
EndChar

StartChar: underscore
Encoding: 95 95 339
Width: 463
VWidth: 0
Flags: W
HStem: -238 44<0 463>
LayerCount: 2
Fore
SplineSet
0 -238 m 25
 0 -194 l 25
 463 -194 l 25
 463 -238 l 25
 0 -238 l 25
EndSplineSet
Validated: 1
EndChar

StartChar: asciitilde
Encoding: 126 126 340
Width: 394
VWidth: 0
Flags: W
HStem: 190.053 64<165.217 319.341> 219.392 63.4463<79.8039 234.197>
LayerCount: 2
Fore
SplineSet
18.1338 193.354 m 1x40
 48.251 239.653 103.74 282.838 111.35 282.838 c 3x40
 154.388 282.838 245.562 254.053 287.451 254.053 c 3
 297.852 254.053 326.98 275.77 342.108 299.824 c 1
 376 286.539 l 1
 350.651 242.854 303.803 190.053 291.063 190.053 c 3x80
 249.961 190.053 145.346 219.392 106.465 219.392 c 3
 93.6533 219.392 63.7217 194.926 50.168 179.645 c 1
 18.1338 193.354 l 1x40
EndSplineSet
Validated: 1
Position2: "cpsp-1" dx=0 dy=0 dh=10 dv=20
Position2: "'case' vertical ajustments for all-caps-1" dx=0 dy=90 dh=0 dv=0
EndChar

StartChar: kgreenlandic
Encoding: 312 312 346
Width: 525
VWidth: 1159
Flags: W
HStem: -18 25.8994<461.79 501> -7 21G<208 227.941> -5 33<33.5758 85.0934> 374 27<269 299.949> 395 20G<145.5 187>
VStem: 105 64<41.8162 177 211 337.203>
LayerCount: 2
Fore
SplineSet
179 185 m 1x94
 169 177 l 1
 169 124.725 171 73.9876 175 54 c 0
 177 39 186 38 196 33 c 0
 206 29 216 28 230 27 c 1
 225 -7 l 1x44
 191 -1 172 4 130 4 c 3
 100 4 64 -3 34 -5 c 1
 32 28 l 1
 43 29 54 31 64 33 c 0
 87 40 94 48 96 76 c 0
 101 128 105 170 105 235 c 3
 105 251.155 103 276 101 308 c 0
 100 324 94 338 77 338 c 3
 71 338 51 335 41 334 c 1
 36 363 l 1
 88 374 124 381 167 415 c 1x2c
 187 399 l 1
 181 385 174.291 357.97 173 347 c 0
 171 325.982 168 264.163 167 211 c 1
 202.172 243.143 253.931 289.428 287 328 c 0
 292.772 334.732 301 348 301 355 c 3
 301 373 277 372 267 374 c 1
 269 401 l 1
 295 399 330 399 357 399 c 3
 390 399 433 399 465 403 c 1
 467 373 l 1
 404 365.731 362.85 347.417 333 319 c 2
 243.5 236.952 l 17
 355.5 173.635 404.57 9.25076 505.9 7.89941 c 1
 501 -18 l 5
 315.95 -45.3387 265.5 174.952 179 185 c 1x94
EndSplineSet
Validated: 33
MultipleSubs2: "case-2" K quoteleft
EndChar

StartChar: OE
Encoding: 338 338 347
Width: 1081
VWidth: 1159
Flags: W
HStem: -7 49<336.528 518.419> 334 36<614 882.393> 650 44<298.396 500.529>
VStem: 37 93<266.365 448.041> 533 81<87.3014 334 370 605.156> 906 36<250 306.348> 947 30<539 621.889> 1007 28<152.034 171.75>
LayerCount: 2
Fore
SplineSet
385 650 m 3
 244 650 130 535.515933333 130 377 c 3
 130 202.722537538 273 42 443 42 c 3
 495.7 42 533 62.631 533 92 c 1
 537 161.67328125 534.279 500.831760417 531 577 c 0
 528.17 641.262 448.642 650 385 650 c 3
424 -7 m 3
 210 -7 37 145.659140762 37 336 c 3
 37 527.127628169 212 694 422 694 c 3
 507.490017004 694 461.789007914 684.96875 696.956054688 684.96875 c 3
 838.863027557 684.96875 966.475003159 689.186881304 983 693 c 1
 1015 665 988 672 977 539 c 1
 947 536 l 1
 936 572 955 619 919 630 c 0
 856 648 737 653 656 643 c 0
 638 641 625 627 624 609 c 0
 620 526.970338983 615 445.953389831 614 370 c 1
 678 372 838 372 852 373 c 0
 889 378 894 404 910 448 c 1
 944 441 l 1
 927 377 931 314 942 250 c 1
 906 241 l 1
 886 312 893 325 852 329 c 0
 808 334 707 333 614 334 c 1
 613 236.227091633 617 147.525896414 629 81 c 0
 633 64 642 50 659 49 c 0
 752 40 823 32 899 58 c 0
 958 78 968 101 1007 177 c 1
 1035 170 l 1
 1019 104 1008 62 996 0 c 1
 886.301 -0.545565 771.508 3.06988 667.928 3.06988 c 3
 487.932 3.06988 491.022 -7.00001 424 -7 c 3
EndSplineSet
Validated: 33
Position2: "cpsp-1" dx=0 dy=0 dh=10 dv=20
EndChar

StartChar: uni2605
Encoding: 9733 9733 348
Width: 821
VWidth: 0
Flags: W
LayerCount: 2
Fore
SplineSet
796.5 438.6 m 1
 558 264.9 l 1
 648.9 -15 l 1
 410.4 158.7 l 1
 171.9 -15 l 1
 262.8 265.8 l 1
 24.2998 438.6 l 1
 318.6 437.7 l 1
 410.4 718.5 l 1
 501.3 438.6 l 1
 796.5 438.6 l 1
EndSplineSet
Validated: 1
EndChar

StartChar: uni2606
Encoding: 9734 9734 349
Width: 821
VWidth: 30
Flags: W
LayerCount: 2
Fore
SplineSet
687.677 404.8 m 1
 466.221 390.918 l 1
 410.41 606.049 l 1
 354.579 390.141 l 1
 133.292 404.738 l 1
 320.536 284.324 l 1
 239.062 78.2873 l 1
 410.4 219.894 l 1
 581.711 78.307 l 1
 500.264 283.547 l 1
 687.677 404.8 l 1
796.5 438.6 m 1
 558 264.9 l 1
 648.9 -15 l 1
 410.4 158.7 l 1
 171.9 -15 l 1
 262.8 265.8 l 1
 24.2998 438.6 l 1
 318.6 437.7 l 1
 410.4 718.5 l 1
 501.3 438.6 l 1
 796.5 438.6 l 1
EndSplineSet
Validated: 1
EndChar

StartChar: uni261C
Encoding: 9756 9756 350
Width: 2241
Flags: W
HStem: -39.8809 34.5928<702.366 803.644>
VStem: 65.4062 47.9922<389.495 407.811>
LayerCount: 2
Fore
SplineSet
65.4062 488.98 m 1
 133.471 493.169 171.866 495.579 238.634 514.306 c 1
 246.596 504.546 534.656 534.515 542.911 561.332 c 1
 564.898 551.482 577.512 547.037 605.929 570.229 c 1
 773.769 556.794 986.458 616.839 1106 648 c 1
 1329.25 569.701 1572.25 468.729 1696.18 430.638 c 1
 1739.57 483.052 1793.53 507.924 1848.05 516.793 c 1
 2110.43 547.303 l 1
 2163.02 255.056 2175.68 -29.6611 2148.35 -306.85 c 1
 1892.24 -297.519 l 1
 1875.45 -261.822 1858.65 -226.126 1841.85 -190.43 c 1
 1814.48 -179.761 1789.09 -165.358 1754.94 -149.172 c 1
 1614.8 -241.059 1469.34 -206.779 1327.96 -171.926 c 1
 1302.89 -235.181 1261.64 -288.312 1185.82 -267.69 c 1
 1164.81 -330.418 1107.45 -355.95 1072.25 -326.185 c 0
 999.4 -264.557 891.756 -230.288 835.198 -172.483 c 1
 682.232 -206.512 560.41 -112.538 687.913 48.1104 c 1
 660.334 112.992 745.543 185.467 777.889 271.683 c 1
 695.375 282.243 590.004 307.018 566.297 298.763 c 0
 515.511 281.073 363.284 309.172 334.218 317.119 c 1
 176.398 304.119 59.9014 331.849 65.4062 488.98 c 1
227.493 480.275 m 1
 178.401 472.663 150.689 468.371 101.594 460.757 c 1
 93.8691 413.082 244.447 408.912 227.493 480.275 c 1
1084.38 592.183 m 0
 825.397 554.269 996.286 546.32 636.788 522.399 c 0
 585.692 519 590.137 488.802 569.033 486.987 c 0
 550.55 485.4 544.591 511.314 526.415 507.695 c 0
 434.1 489.321 365.902 488.599 263.3 476.39 c 1
 250.997 394.928 192.292 410.334 113.398 407.811 c 1
 114.412 376.567 264.124 347.652 350.099 377.665 c 1
 407.623 368.682 461.089 357.379 523.575 380.384 c 1
 604.456 372.626 651.254 355.211 727.339 401.371 c 1
 807.605 356.047 974.055 358.16 1064.13 421.6 c 1
 1070.94 421.779 1071.33 413.38 1077.52 410.565 c 1
 1051.33 362.256 1084.46 312.087 1114.36 315.387 c 0
 1130.39 317.154 1149.22 354.088 1163.9 376.21 c 0
 1172.19 388.706 1208.8 379.251 1202.08 365.563 c 0
 1164.56 289.234 1183.03 221.194 1302.92 308.083 c 0
 1330.21 327.857 1391.28 329.565 1389.06 296.334 c 0
 1387.54 273.576 1345.13 302.372 1303.25 264.596 c 0
 1210.07 180.539 1123.04 118.563 1008.84 107.013 c 1
 996.464 98.4824 989.483 93.6709 977.105 85.1396 c 1
 876.257 142.62 705.042 54.8047 694.435 -5.28809 c 1
 757.921 -1.57617 796.29 11.3975 834.737 -28.0469 c 1
 861.688 11.0107 922.306 3.84277 985.483 11.0127 c 1
 998.435 5.33398 1005.74 2.13281 1018.69 -3.54395 c 1
 1031.07 4.98828 1038.05 9.79883 1050.42 18.3291 c 1
 1063.43 11.9795 1070.77 8.39844 1083.78 2.04883 c 1
 1093.29 11.6924 1098.66 17.1289 1108.17 26.7725 c 1
 1169 0.666992 1265.6 3.79102 1298.85 55.3369 c 0
 1307.77 69.1582 1331.21 74.7871 1353.92 73.9941 c 0
 1497.96 68.9609 1697.02 60.1641 1760.13 150.666 c 0
 1796.28 202.51 1766.13 361.801 1721.3 387.54 c 1
 1551.99 437.4 1391.01 515.096 1175.49 584.343 c 0
 1141.59 595.234 1119.66 597.348 1084.38 592.183 c 0
823.456 -100.385 m 1
 821.674 -60.501 792.91 -39.6387 757.787 -39.8809 c 0
 715.507 -40.1699 663.499 -75.8311 669.326 -101.442 c 0
 672.815 -116.764 791.04 -134.5 823.456 -100.385 c 1
1825.2 474.796 m 1
 1793.57 452.477 1775.72 439.887 1744.09 417.571 c 1
 1790.28 409.132 l 1
 1834.35 392.028 1910.85 90.5078 1840.19 -91.3711 c 1
 1844.61 -94.3838 1847.1 -96.085 1851.52 -99.1006 c 1
 1989.62 -17.6104 1923.24 389.222 1825.2 474.796 c 1
EndSplineSet
Validated: 33
EndChar

StartChar: uni261E
Encoding: 9758 9758 351
Width: 2241
Flags: HMW
LayerCount: 2
Fore
SplineSet
2162.17 488.98 m 1
 2167.68 331.849 2051.18 304.119 1893.36 317.119 c 1
 1864.29 309.172 1712.07 281.073 1661.28 298.763 c 0
 1637.57 307.018 1532.2 282.243 1449.69 271.683 c 1
 1482.03 185.467 1567.24 112.992 1539.66 48.1104 c 1
 1667.17 -112.538 1545.34 -206.512 1392.38 -172.483 c 1
 1335.82 -230.288 1228.18 -264.557 1155.32 -326.185 c 0
 1120.13 -355.95 1062.77 -330.418 1041.76 -267.69 c 1
 965.937 -288.312 924.688 -235.181 899.613 -171.926 c 1
 758.235 -206.779 612.779 -241.059 472.641 -149.172 c 1
 438.485 -165.358 413.094 -179.761 385.725 -190.43 c 1
 368.927 -226.126 352.131 -261.822 335.333 -297.519 c 1
 79.2285 -306.85 l 1
 51.9014 -29.6611 64.5586 255.056 117.149 547.303 c 1
 379.524 516.793 l 1
 434.047 507.924 488.01 483.052 531.394 430.638 c 1
 655.332 468.729 898.328 569.701 1121.58 648 c 1
 1241.12 616.839 1453.81 556.794 1621.65 570.229 c 1
 1650.07 547.037 1662.68 551.482 1684.67 561.332 c 1
 1692.92 534.515 1980.98 504.546 1988.94 514.306 c 1
 2055.71 495.579 2094.11 493.169 2162.17 488.98 c 1
2000.08 480.275 m 1
 1983.13 408.912 2133.71 413.082 2125.98 460.757 c 1
 2076.89 468.371 2049.18 472.663 2000.08 480.275 c 1
1143.19 592.183 m 0
 1107.92 597.348 1085.99 595.234 1052.09 584.343 c 0
 836.569 515.096 675.586 437.4 506.281 387.54 c 1
 461.443 361.801 431.295 202.51 467.448 150.666 c 0
 530.558 60.1641 729.622 68.9609 873.661 73.9941 c 0
 896.366 74.7871 919.808 69.1582 928.726 55.3369 c 0
 961.981 3.79102 1058.58 0.666992 1119.41 26.7725 c 1
 1128.92 17.1289 1134.29 11.6924 1143.8 2.04883 c 1
 1156.8 8.39844 1164.14 11.9795 1177.15 18.3291 c 1
 1189.53 9.79883 1196.51 4.98828 1208.89 -3.54395 c 1
 1221.83 2.13281 1229.14 5.33398 1242.09 11.0127 c 1
 1305.27 3.84277 1365.89 11.0107 1392.84 -28.0469 c 1
 1431.29 11.3975 1469.66 -1.57617 1533.14 -5.28809 c 1
 1522.54 54.8047 1351.32 142.62 1250.47 85.1396 c 1
 1238.09 93.6709 1231.11 98.4824 1218.74 107.013 c 1
 1104.54 118.563 1017.5 180.539 924.325 264.596 c 0
 882.445 302.372 840.035 273.576 838.518 296.334 c 0
 836.301 329.565 897.366 327.857 924.653 308.083 c 0
 1044.55 221.194 1063.02 289.234 1025.5 365.563 c 0
 1018.77 379.251 1055.38 388.706 1063.68 376.21 c 0
 1078.36 354.088 1097.19 317.154 1113.21 315.387 c 0
 1143.12 312.087 1176.25 362.256 1150.06 410.565 c 1
 1156.25 413.38 1156.63 421.779 1163.45 421.6 c 1
 1253.52 358.16 1419.97 356.047 1500.24 401.371 c 1
 1576.32 355.211 1623.12 372.626 1704 380.384 c 1
 1766.49 357.379 1819.95 368.682 1877.48 377.665 c 1
 1963.45 347.652 2113.17 376.567 2114.18 407.811 c 1
 2035.29 410.334 1976.58 394.928 1964.28 476.39 c 1
 1861.67 488.599 1793.48 489.321 1701.16 507.695 c 0
 1682.99 511.314 1677.03 485.4 1658.54 486.987 c 0
 1637.44 488.802 1641.88 519 1590.79 522.399 c 0
 1231.29 546.32 1402.18 554.269 1143.19 592.183 c 0
1404.12 -100.385 m 1
 1436.54 -134.5 1554.76 -116.764 1558.25 -101.442 c 0
 1564.08 -75.8311 1512.07 -40.1699 1469.79 -39.8809 c 0
 1434.67 -39.6387 1405.9 -60.501 1404.12 -100.385 c 1
402.373 474.796 m 1
 304.342 389.222 237.955 -17.6104 376.058 -99.1006 c 1
 380.473 -96.085 382.967 -94.3838 387.383 -91.3711 c 1
 316.725 90.5078 393.227 392.028 437.294 409.132 c 1
 483.483 417.571 l 1
 451.853 439.887 434.009 452.477 402.373 474.796 c 1
EndSplineSet
Validated: 33
EndChar

StartChar: uni268A
Encoding: 9866 9866 352
Width: 746
VWidth: 0
Flags: W
HStem: 24 66<30 716>
LayerCount: 2
Fore
SplineSet
30 24 m 25
 30 90 l 25
 716 90 l 25
 716 24 l 25
 30 24 l 25
EndSplineSet
Validated: 1
EndChar

StartChar: uni211F
Encoding: 8479 8479 430
Width: 733
UnlinkRmOvrlpSave: 1
Flags: W
HStem: -32 36<596.465 649> -10 44<-2 66.8601 174.733 220.705> 322 45<232 342.514> 649 37<157 205.042> 664 42<320.443 473.118>
LayerCount: 2
Fore
SplineSet
454.381 -78 m 1x20
 530.503 198.297 611.918 497.405 660 714 c 1
 598.034 687.286 500.371 809.122 472 765 c 0
 425.548 682.696 359.742 776.223 432 825.578 c 0
 517.865 876.988 640 639 673 795.578 c 9
 694.84 788.558 707.16 784.598 729 777.578 c 1
 684.75 645.232 584.381 263.927 491.454 -90 c 1
 454.381 -78 l 1x20
EndSplineSet
Refer: 43 82 N 1 0 0 1 0 0 2
EndChar

StartChar: uni2123
Encoding: 8483 8483 431
Width: 709
UnlinkRmOvrlpSave: 1
Flags: W
HStem: 651 42<142.467 190.064 294.484 375.001 597.449 649.482 740.59 809.885>
VStem: 200.765 42.7793<-27 14.614> 201.254 85.0049<111 591.14> 201.391 92.2598<137.86 646.685>
LayerCount: 2
Fore
SplineSet
233.03125 -78 m 1x80
 309.154296875 198.296875 390.569335938 497.405273438 438.650390625 714 c 1
 376.684570312 687.286132812 279.021484375 809.122070312 250.650390625 765 c 0
 204.198242188 682.696289062 138.392578125 776.22265625 210.650390625 825.578125 c 0
 296.515625 876.98828125 418.650390625 639 451.650390625 795.578125 c 9
 473.490234375 788.557617188 485.810546875 784.59765625 507.650390625 777.578125 c 1
 463.400390625 645.232421875 363.032226562 263.926757812 270.104492188 -90 c 1
 233.03125 -78 l 1x80
EndSplineSet
Refer: 55 86 N 1 0 0 1 0 0 2
EndChar

StartChar: estimated
Encoding: 8494 8494 432
Width: 752
VWidth: 0
Flags: W
HStem: -9 50.917<266.135 484.333> 310.923 51.15<191.384 562.454> 632.006 50.917<264.706 485.147>
VStem: 30.1973 161.187<217.349 310.923 362.073 455.702> 562.454 159.576<362.073 456.3>
LayerCount: 2
Fore
SplineSet
632.777 191.846 m 1
 676.861 166.441 l 1
 673.98 161.581 l 2
 613.377 59.3301 501.767 -9 376 -9 c 0
 189.553 -9 30.1973 142.604 30.1973 338.341 c 0
 30.1973 525.945 184.438 682.615 375.52 682.923 c 2
 376.044 682.923 l 2
 564.48 682.923 722.035 529.016 722.03 336.942 c 0
 722.03 329.967 721.813 323.039 721.4 316.168 c 2
 721.084 310.923 l 1
 191.384 310.923 l 1
 191.384 107.399 l 1
 242.467 66.2236 307.069 41.917 376 41.917 c 0
 483.087 41.917 578.216 100.053 629.964 187.113 c 2
 632.777 191.846 l 1
191.384 566.668 m 1
 191.384 362.073 l 1
 562.454 362.073 l 1
 562.454 565.158 l 1
 511.302 606.997 446.18 632.006 376.044 632.006 c 2
 375.598 632.006 l 2
 305.803 631.894 241.805 607.323 191.384 566.668 c 1
EndSplineSet
Validated: 33
EndChar

StartChar: bullet
Encoding: 8226 8226 436
Width: 446
Flags: W
HStem: 122 288<148.717 298.663>
VStem: 79 288<191.67 339.225>
LayerCount: 2
Fore
SplineSet
79 266 m 0
 79 353 151 410 223 410 c 0
 311.5 410 367 336.5 367 264.5 c 0
 367 188 307 122 223 122 c 0
 149.5 122 79 180.5 79 266 c 0
EndSplineSet
Validated: 1
Position2: "cpsp-1" dx=0 dy=0 dh=10 dv=20
EndChar

StartChar: uni2023
Encoding: 8227 8227 437
Width: 614
Flags: W
HStem: 245.313 86.8271<277.825 527.585>
LayerCount: 2
Back
Fore
SplineSet
555 306.641 m 9
 555 276 l 17
 520 256 406.973 263.594 356 245.313 c 0
 137.841 205.319 171.251 96.8509 73.7197 8.78027 c 1
 52.1201 23.8203 l 17
 78.4402 121.58 102.61 383.548 37.0801 561.5 c 1
 69.96 569.021 l 17
 118.84 486.301 160.28 337.61 325.64 332.141 c 0
 415.653 328.91 517.4 321.212 555 306.641 c 9
EndSplineSet
Validated: 33
EndChar

StartChar: dagger
Encoding: 8224 8224 438
Width: 442
Flags: W
HStem: -237 10G<208 216> 247 98 290 55 728 10G<216 238>
VStem: 165 134<639 645 621 646 644 645 621 662> 202 39<-219 -3> 202 207<61 289 186 289 266 315 266 324>
LayerCount: 2
Fore
SplineSet
275 370 m 1x90
 247 262 246 250 234 -18 c 9
 209 -18 l 17
 195 266 194.440429688 282.899414062 168 370 c 1
 196 441 201 460 209 523 c 1
 134 513 l 2
 79 503 83 491 57 491 c 3
 43.9615951896 491 17 518 17 535 c 3
 17 552 45.9580078125 580 58 580 c 3
 83 580 84 569 134 560 c 2
 209 550 l 1
 198 620 l 2
 191 658 177 681 177 702 c 3
 177 718 205 741 222 741 c 3
 239 741 267 718 267 704 c 3
 267 681 253 657 246 620 c 2
 235 550 l 1
 310 560 l 2
 365 570 360 581 386 581 c 3
 398.165039062 581 427 554 427 537 c 3
 427 520 398.038085938 492 385 492 c 3
 360 492 360 504 310 513 c 2
 234 523 l 1
 242 461 247 442 275 370 c 1x90
EndSplineSet
Validated: 1
EndChar

StartChar: daggerdbl
Encoding: 8225 8225 439
Width: 442
Flags: W
HStem: -6 21G<212.5 229.5> 154 89<27.3301 140.031 301.969 413.942> 491 89<28.326 133.984 310.016 414.906>
VStem: 176 90<3.37628 120.469 620.011 730.972>
LayerCount: 2
Fore
SplineSet
176 369 m 1
 198.536585366 440 202.56097561 460 209 523 c 1
 134 513 l 2
 79 503 83 491 57 491 c 3
 43.9619140625 491 17 518 17 535 c 3
 17 552 45.9580078125 580 58 580 c 3
 83 580 84 569 134 560 c 2
 209 550 l 1
 198 620 l 2
 191 658 177 681 177 702 c 3
 177 718 205 741 222 741 c 3
 239 741 267 718 267 704 c 3
 267 681 253 657 246 620 c 2
 235 550 l 1
 310 560 l 2
 365 570 360 581 386 581 c 3
 398.165039062 581 427 554 427 537 c 3
 427 520 398.038085938 492 385 492 c 3
 360 492 360 504 310 513 c 2
 234 523 l 1
 240.43902439 461 244.463414634 441 267 369 c 1
 244.463414634 298 240.43902439 275 234 212 c 1
 309 222 l 2
 364 232 360 244 386 244 c 3
 399.038085938 244 426 217 426 200 c 3
 426 183 397.041992188 155 385 155 c 3
 360 155 359 166 309 175 c 2
 234 185 l 1
 245 115 l 2
 252 77 266 54 266 33 c 3
 266 17 238 -6 221 -6 c 3
 204 -6 176 17 176 31 c 3
 176 54 190 78 197 115 c 2
 208 185 l 1
 133 175 l 2
 78 165 83 154 57 154 c 3
 44.8349609375 154 16 181 16 198 c 3
 16 215 44.9619140625 243 58 243 c 3
 83 243 83 231 133 222 c 2
 209 212 l 1
 202.56097561 274 198.536585366 297 176 369 c 1
EndSplineSet
Validated: 1
EndChar

StartChar: uni0335
Encoding: 821 821 442
Width: 0
VWidth: 1159
Flags: W
HStem: 508.5 38<-325.5 -27.5>
VStem: -325.5 298<508.5 546.5>
LayerCount: 2
Fore
SplineSet
-325.5 546.5 m 25
 -27.5 546.5 l 25
 -27.5 508.5 l 25
 -325.5 508.5 l 25
 -325.5 546.5 l 25
EndSplineSet
Validated: 1
EndChar

StartChar: longs
Encoding: 383 383 446
Width: 210
VWidth: 1159
Flags: W
HStem: -326 36<-164.972 -124.316> 697 57<308.191 397.684>
AnchorPoint: "Top" 298 748 basechar 0
AnchorPoint: "Bottom" 75 -204 basechar 0
LayerCount: 2
Fore
SplineSet
111 493 m 0
 132 626 185.583007812 654.627929688 256 701 c 0
 297 728 334 754 391 754 c 3
 422 754 493 728 514 706 c 1
 509 679 500 672 448 646 c 1
 412 664 374 697 337 697 c 3
 255 697 231.352539062 620.734375 184 498 c 0
 126.142578125 348.038085938 108 19 40 -172 c 0
 17.5068359375 -235.178710938 -12.7578125 -278.947265625 -48 -323 c 1
 -58 -322 -57 -321 -99 -321 c 3
 -120 -321 -152 -325 -164 -326 c 1
 -169 -290 l 1
 -109.891601562 -275.814453125 -74.1162109375 -237.158203125 -46 -187 c 0
 22.359375 -65.0498046875 78.96484375 290.11328125 111 493 c 0
EndSplineSet
Validated: 1
Substitution2: "case-1" S
EndChar

StartChar: yen
Encoding: 165 165 452
Width: 463
VWidth: 1159
UnlinkRmOvrlpSave: 1
Flags: W
HStem: -4.67871 27.0137<146.569 183.29 299.257 339.58> 171.125 39.1<81 396> 271.775 39.1<81 396> 587.232 25.69<19.3948 54.5358 167.676 182.54 281.486 320.156 397.924 437>
VStem: 81 315<171.125 210.225> 81 315<271.775 310.875> 207.261 75.837<36.0924 306.389>
LayerCount: 2
Fore
SplineSet
185.742 586.334 m 1xf2
 192.531 586.418 175.157 583.632 167.301 583.917 c 0
 155.331 581.691 154.813 575.465 161.169 562.095 c 0
 210.725 457.854 251.72 406.49 255.486 401.838 c 1
 288.578 474.974 296.853 483.776 315.947 539.048 c 0
 320.974 553.598 329.289 569.356 316.519 578.514 c 0
 310.401 583.77 292.681 586.523 280.505 587.232 c 1
 281.818 612.922 l 1
 303.4 609.144 401.166 602.808 437 612.588 c 1
 437 584.514 l 1
 399.769 581.961 385.546 571.019 364.396 543.431 c 0
 331.463 500.469 300.119 425.931 274.891 363.709 c 1
 274.315 309.249 272.282 244.117 283.098 65.501 c 0
 285.016 33.8209 297.386 32.9414 342.783 26.6895 c 1
 339.58 -1.14258 l 1
 280.655 7.16309 208.32 10.7812 148.485 -4.67871 c 1
 141.09 22.335 l 1
 185.948 31.7314 205.669 38.7314 207.261 76.7793 c 0
 207.788 89.3788 205.843 344.768 205.118 337.751 c 1
 203.981 344.357 150.2 451.985 77.1982 552.015 c 0
 58.1482 578.118 49.2658 578.581 17.5654 587.716 c 1
 20.0312 613.417 l 1
 52.2452 609.881 150.699 605.606 182.54 612.427 c 1
 185.742 586.334 l 1xf2
EndSplineSet
Refer: 453 -1 N 0.9 0 0 0.85 443.25 -108.95 2
Refer: 453 -1 N 0.9 0 0 0.85 443.25 -8.29971 2
EndChar

StartChar: eth
Encoding: 240 240 454
Width: 471
VWidth: 1159
UnlinkRmOvrlpSave: 1
Flags: W
HStem: -5 49<172.89 302.553> 359 46<174.141 312.123> 700 27.453<74.4455 86.7927>
VStem: 28 64<133.432 266.724> 366 69<130.061 315.66>
LayerCount: 2
Fore
SplineSet
348.139 315.39 m 1
 309.311 349.295 235.815 359 222 359 c 0
 198 359 92 331.005 92 226 c 0
 92 129.917 150.98 44 252 44 c 0
 332.374 44 366 128.15 366 202 c 0
 366 235.619 359.775 274.394 348.139 315.39 c 1
319.727 395.21 m 1
 297.195 448.096 267.132 501.537 231.091 549.926 c 1
 113 477 l 1
 97 506 l 1
 210.377 576.358 l 1
 168.161 627.531 119.003 671.266 65 700 c 1
 69.0967 706.582 77.2373 727.453 77.2373 727.453 c 1
 145.386 707.325 209.364 664.636 263.844 609.538 c 1
 379 681 l 1
 398 653 l 1
 287.162 584.553 l 1
 376.496 483.21 435 349.111 435 235 c 0
 435 113.963 360.284 -5 193 -5 c 0
 102.911 -5 28 65.9238 28 171 c 0
 28 326.39 176 405 264 405 c 0
 275.736 405 298.098 401.774 319.727 395.21 c 1
EndSplineSet
Substitution2: "case-1" Eth
EndChar

StartChar: Uni0336
Encoding: 65556 -1 456
Width: 0
VWidth: 1159
Flags: W
HStem: 509.5 36<-818.5 -32.5>
LayerCount: 2
Fore
SplineSet
-818.5 545.5 m 25
 -32.5 545.5 l 25
 -32.5 509.5 l 25
 -818.5 509.5 l 25
 -818.5 545.5 l 25
EndSplineSet
Validated: 1
EndChar

StartChar: quotereversed
Encoding: 8219 8219 463
Width: 200
VWidth: 1159
Flags: W
HStem: 451 252
VStem: 29 141
LayerCount: 2
Fore
SplineSet
157 451 m 1
 39 516 29 627 29 633 c 3
 29 639 32 644 37 646 c 0
 58 657 76 673 87 694 c 0
 89 699 95 703 101 703 c 3
 107 703 113 699 115 694 c 0
 126 673 142 657 163 646 c 0
 168 644 170 639 170 633 c 3
 170 627 168 620 163 618 c 0
 142 607 120 592 110 570 c 0
 96 539 139 497 173 476 c 1
 157 451 l 1
EndSplineSet
Validated: 33
Position2: "cpsp-1" dx=0 dy=0 dh=10 dv=20
EndChar

StartChar: uni20B9
Encoding: 8377 8377 467
Width: 539
VWidth: 1159
UnlinkRmOvrlpSave: 1
Flags: W
HStem: -33 37<438.45 490> 322 45<41 147.579> 492.095 42.999<42.25 496.25> 685.094 20G<41.5 496.25>
VStem: 297 87<441.267 575.707>
LayerCount: 2
Fore
SplineSet
42.25 705.094 m 25
 496.25 705.094 l 25
 496.25 662.095 l 25
 42.25 662.095 l 25
 42.25 705.094 l 25
42.25 535.094 m 25
 496.25 535.094 l 25
 496.25 492.095 l 25
 42.25 492.095 l 25
 42.25 535.094 l 25
41.5 705 m 1
 80.2881 705 96.5903 705 141 705 c 0
 274 705 384 622 384 519 c 0
 384 432 314 373 234 343 c 1
 324.192 140 395.438 6 497 4 c 1
 490 -33 l 1
 347.099 -38 207.409 153 148 323 c 1
 139 322 131 322 124 322 c 0
 91.5904 322 73.4096 324.4 41 325 c 1
 41 369 l 9
 73.2426 368.5 89.7574 367 122 367 c 3
 268 367 297 455 297 508 c 3
 297 568 236 663 120 663 c 3
 95.4844 663 45.6632 663 42.5 663 c 1
 41.5 705 l 1
EndSplineSet
EndChar

StartChar: eng
Encoding: 331 331 468
Width: 499
VWidth: 1159
Flags: W
HStem: -7 21G<208.5 230.353> -5 33<20.3636 70.2898> 335 29<32 79.6511> 338 61<245.574 353.747> 396 20G<129 175>
VStem: 95 75<72.7464 318.176 330 331.265> 379 69<-91.4785 313.154>
LayerCount: 2
Fore
SplineSet
379 143 m 3x16
 379 187 376 253 374 271 c 0
 369 310 348 338 293 338 c 3
 245 338 203 326 170 308 c 1
 168 224 161 107 161 71 c 3
 161 41 174 37 194 32 c 0
 203 30 222 28 232 27 c 1
 228 -7 l 1x96
 189 -1 159 4 117 4 c 3
 87 4 51 -1 21 -5 c 1
 18 28 l 1
 29 30 35 31 46 33 c 0
 69 39 81 49 87 76 c 0
 94 107 95 167 95 199 c 3
 95 219 93 288 86 308 c 0
 77 334 72 336 54 336 c 3
 44 336 41 335 32 335 c 1
 30 364 l 1
 67 371 104 375 154 416 c 1x6e
 175 401 l 1
 170 383 167 357 167 330 c 1
 215 361 267 399 330 399 c 3
 403 399 448 359 448 288 c 3
 448 255 446 219 446 183 c 3
 446 80.0143 445 -34.4143 445 -84 c 3
 445 -134 433 -165 419 -186 c 0
 397 -220 363 -249 329 -267 c 0
 314 -274 282 -298 262 -316 c 1
 244 -294 l 1
 269 -273 288 -258 316 -225 c 0
 337 -199 353 -166 362 -140 c 0
 371.562 -110.021 379 -38.072 379 143 c 3x16
EndSplineSet
Validated: 1
Substitution2: "case-1" Eng
EndChar

StartChar: Eng
Encoding: 330 330 469
Width: 863
VWidth: 1159
Flags: W
HStem: -10 44<32 96.238> 665 37<780.205 840> 673 38<608.263 685.298>
VStem: 105 55<63.5964 311.035> 113 56<364.701 560>
LayerCount: 2
Fore
SplineSet
755 0 m 3xc8
 755 -92 694 -151 625 -200 c 0
 600 -217 575 -235 550 -251 c 9
 525 -218 l 1
 548 -207 567 -196 583 -182 c 0
 588 -178 593 -175 597 -171 c 0
 643.129 -130.678 660.071 -79.1809 670.66 -21 c 0
 683 46.8 658.328 97.5469 612 139.091 c 0
 467.896 283.034 321.026 422.806 169 560 c 1xc8
 160 154 l 2
 158 49 194 41 285 31 c 1
 277 -15 l 1
 182 16 100 -3 32 -10 c 1
 27 34 l 1
 85 34 103 45 105 93 c 0xd0
 114 250 115 416 113 581 c 0
 112 624 77 659 20 658 c 1
 22 702 l 1xc8
 61 698 113 695 154 694 c 0
 169 694 170 690 177 683 c 0
 326.792 523.458 481.299 370.2 644 223.228 c 0
 667.155 202.311 690.86 176.949 707 154 c 1
 716 285.255 718 416.51 717 555 c 0
 716 677 664 666 605 673 c 1
 609 711 l 1xa8
 701 697 769 698 840 702 c 1
 845 665 l 1
 796 659 775 661 771 619 c 0
 756 449 751 268 753 86 c 0
 753 63 755 43 755 0 c 3xc8
EndSplineSet
Validated: 33
Position2: "cpsp-1" dx=0 dy=0 dh=10 dv=20
EndChar

StartChar: circumcombhigh
Encoding: 65558 -1 472
Width: 0
VWidth: 1159
Flags: W
HStem: 450.319 133.361
VStem: -323.78 252.561
LayerCount: 2
Fore
SplineSet
-71.2197 465.56 m 1
 -93.3955 450.319 l 1
 -197.5 518.507 l 1
 -301.604 450.319 l 1
 -323.78 465.56 l 1
 -215.364 583.681 l 1
 -179.636 583.681 l 1
 -71.2197 465.56 l 1
EndSplineSet
Validated: 1
EndChar

StartChar: a.pcap
Encoding: 65568 -1 645
Width: 486
VWidth: 1159
Flags: W
HStem: -6.72754 24.5371<40.1534 63.4002 300.216 318.521> 138.178 25.7979<183.397 283.759> 394.827 20G<239.66 272.077>
VStem: 241.215 30.8623<358.173 414.501>
LayerCount: 2
Fore
SplineSet
181.972 168.094 m 1
 212.171 163.279 255.937 163.976 283.87 163.976 c 1
 261.54 219.156 254.36 228.901 230.438 282.917 c 1
 208.113 227.402 202.201 215.762 181.972 168.094 c 1
301.917 -6.72754 m 1
 301.917 -6.72754 297.573 10.3799 295.592 17.8096 c 1
 313.077 22.7344 330.908 36.7637 327.831 44.2598 c 0
 317.018 82.2109 307.17 97.3613 295.585 131.543 c 1
 274.338 138.334 200.348 142.833 169.37 138.178 c 1
 155.028 103.774 143.828 84.0557 133.173 50.7568 c 0
 129.067 36.9463 150.283 17.5801 187.904 22.4062 c 1
 186.511 -6.72754 l 1
 154.104 0.415039 73.1396 1.73926 40.6533 -3.68652 c 1
 40.4922 -2.07324 38.2686 12.4873 37.4512 21.5996 c 1
 67.0371 27.0771 87.0947 42.8047 89.4863 47.4512 c 0
 145.098 166.269 193.772 274.791 232.885 371.904 c 0
 241.662 393.705 238.104 389.572 241.215 414.827 c 1
 272.077 414.501 l 1
 275.683 394.878 272.319 395.758 280.222 373.374 c 0
 323.06 244.742 352.074 160.877 413.856 37.1631 c 0
 419.89 26.3779 438.806 20.4307 449 20.6895 c 1
 448.919 18.9961 448.182 4.68848 447.605 -3.11035 c 1
 408.944 2.71875 336.396 2.97168 301.917 -6.72754 c 1
EndSplineSet
Validated: 33
EndChar

StartChar: b.pcap
Encoding: 65569 -1 646
Width: 457
VWidth: 1159
Flags: W
HStem: -2.78809 27.4912<62.207 100.731 197.924 282.256> 199.25 19.0244<179.031 243.925> 372.902 26.8418<62.1856 92.4674 187.554 242.168>
VStem: 110.511 69.0166<32.0583 168.354 218.274 369.351> 270.896 77.8525<248.787 352.694> 310.656 78.3438<44.8722 163.307>
LayerCount: 2
Fore
SplineSet
60.3174 21.9229 m 1xf4
 72.3818 22.5107 104.204 25.1719 106.671 54.7432 c 0
 108.363 55.7578 110.511 106.556 110.511 168.354 c 1
 110.511 252.696 106.19 325.063 105.902 325.613 c 0
 105.326 350.167 103.921 364.521 92.7119 369.596 c 0
 87.793 370.668 63.6816 374.458 58.9238 375.114 c 1
 63.4395 399.905 l 1
 71.0547 399.502 102.634 393.984 134.866 393.984 c 1
 165.152 393.984 206.247 399.744 234.886 399.744 c 1
 313.945 399.744 348.749 335.024 348.749 297.562 c 3xf8
 348.749 257.757 317.145 237.154 278.824 214.922 c 1
 339.031 202.519 389 160.57 389 104.82 c 1
 389 40.2393 329.119 -2.78809 238.342 -2.78809 c 1
 208.137 -2.78809 170.002 0.587891 137.332 0.587891 c 1
 101.896 0.587891 68.3359 -1.63574 62.207 -1.79688 c 1
 60.3174 21.9229 l 1xf4
225.148 219.427 m 0
 250.729 223.739 270.896 249.198 270.896 282.829 c 1
 270.896 308.618 255.775 372.902 215.022 372.902 c 1
 212.665 372.902 201.064 371.993 198.942 372.468 c 0
 185.805 369.841 186.954 354.052 185.405 344.161 c 0
 180.247 281.553 179.674 220.524 179.031 218.274 c 1
 220.305 218.274 224.358 218.904 225.148 219.427 c 0
214.187 197.517 m 1
 211.768 199.33 165.858 199.25 177.96 199.25 c 1
 178.174 150.626 178.012 102.975 179.527 72.707 c 0
 180.465 45.1475 184.029 36.4541 197.757 31.8389 c 0
 200.974 29.5166 227.228 24.7031 235.683 24.7031 c 1
 284.38 24.7031 310.656 54.5156 310.656 99.2637 c 1xf4
 310.656 149.534 284.333 197.449 214.187 197.517 c 1
EndSplineSet
Validated: 37
EndChar

StartChar: c.pcap
Encoding: 65570 -1 647
Width: 515
VWidth: 1159
Flags: W
HStem: -5.74805 28.2881<248.634 357.7> 292.83 101.134<394.14 439.115> 378.525 27.4531<229.308 349.526>
VStem: 57.1709 86.0049<120.466 288.088> 394.14 24.333<294.116 340.369> 422.871 20.6309<91.7972 107.381>
LayerCount: 2
Fore
SplineSet
57.1709 199.964 m 1xbc
 57.1709 301.4 137.331 405.979 307.982 405.979 c 1xbc
 334.304 405.979 357.912 405.807 388.174 396.685 c 0
 417.198 388.228 426.598 393.725 439.115 393.964 c 1
 458 383.436 l 1
 431.056 349.01 419.476 329.918 418.473 311.272 c 0
 417.326 291.928 413.054 292.91 394.14 292.83 c 1xdc
 391.994 308.739 391.996 335.537 372.912 351.017 c 0
 345.431 369.314 326.109 378.525 292.753 378.525 c 1
 208.891 378.525 143.176 318.994 143.176 214.198 c 1
 143.176 96.4648 227.964 22.54 304.806 22.54 c 1
 354.975 22.54 398.156 57.1416 422.871 111.092 c 1
 443.502 105.476 l 1
 438.822 73.4639 435.665 59.6973 429.699 27.1543 c 1
 393.169 9.21777 340.326 -5.74805 286.92 -5.74805 c 1
 174.96 -5.74805 57.1709 73.4541 57.1709 199.964 c 1xbc
EndSplineSet
Validated: 33
EndChar

StartChar: d.pcap
Encoding: 65571 -1 648
Width: 554
VWidth: 1159
Flags: W
HStem: -4.59668 29.1143<50.9419 88.4936 154.692 316.994> 371.701 25.1631<179.271 302.206>
VStem: 91.8701 76.4385<33.3188 293.547> 410.276 82.7236<105.346 283.871>
LayerCount: 2
Fore
SplineSet
231.245 24.5176 m 1
 351.633 24.5176 410.276 87.2832 410.276 197.244 c 1
 410.276 302.179 331.503 371.701 233.188 371.701 c 1
 220.777 371.701 207.868 367.074 185.443 361.279 c 0
 171.237 358.229 170.505 348.569 170.11 338.861 c 0
 166.66 237.457 163.207 162.892 168.309 62.7852 c 0
 168.507 53.0225 170.745 40.2129 184.552 36.1045 c 0
 196.3 29.1631 212.636 24.5176 231.245 24.5176 c 1
49.4375 392.417 m 1
 74.6885 391.104 99.7891 388.8 124.88 388.8 c 1
 174.75 388.8 201.995 396.864 251.623 396.864 c 1
 414.622 396.864 493 295.459 493 199.296 c 1
 493 41.4717 354.094 -4.59668 237.96 -4.59668 c 1
 195.82 -4.59668 171.536 -0.564453 128.993 -0.564453 c 1
 85.1592 -0.564453 70.1387 -3.36426 51.2461 -6.56641 c 1
 49.8516 18.4668 l 1
 78.9395 20.5713 85.6084 18.9678 91.8701 54.0566 c 0
 99.3271 144.802 95.8662 282.266 89.2451 335.135 c 0
 85.335 365.741 86.5176 363.943 48.7002 365.737 c 1
 49.4375 392.417 l 1
EndSplineSet
Validated: 33
EndChar

StartChar: e.pcap
Encoding: 65572 -1 649
Width: 469
VWidth: 1159
Flags: W
HStem: -5.91016 22.9825<59.1113 83.6865> 189.377 23.64<167.007 306.626> 378.477 18.703<53.1904 82.1411>
VStem: 94.7002 72.1458<37.9719 189.377 213.017 361.009> 329.12 22.856<134.074 169.743 236.082 261.296> 347.939 19.861<295.923 342.541> 387.05 18.95<105.023 116.752>
LayerCount: 2
Fore
SplineSet
53.1904 397.18 m 1xfa
 161.847 391.742 356.483 394.968 373.153 398.907 c 1
 393.842 381.342 375.656 369.023 367.8 295.923 c 1
 347.939 294.034 l 1xf6
 342.85 305.504 351.86 335.474 328.811 352.161 c 0
 304.662 367.982 238.654 373.214 193.415 362.852 c 0
 184.088 361.398 176.87 352.257 176.596 343.823 c 0
 171.753 298.136 167.583 255.329 167.007 213.017 c 1
 203.392 213.35 270.707 214.094 285.123 217.4 c 0
 314.656 222.447 320.666 235.584 331.234 264.385 c 1
 352.172 259.788 l 1
 342.139 224.124 345.397 170.047 351.976 134.074 c 1
 329.12 128.003 l 1
 317.196 185.242 316.839 176.603 284.035 182.951 c 0
 258.188 189.784 218.582 189.526 166.846 189.377 c 1
 166.351 134.473 167.447 88.501 179.032 51.2109 c 0
 181.07 43.4648 185.288 37.8574 194.564 35.7217 c 0
 245.671 24.9014 276.268433608 17.988619498 323.852 48.4092 c 0
 363.276 73.6133 366.005 85.0664 387.05 119.701 c 1
 406 115.024 l 1
 396.623 75.3066 388.521 32.8184 381.367 -4.19141 c 1
 272.549 -2.67188 140.76 3.67871 59.1113 -5.91016 c 1
 52.626 17.0723 l 1
 81.4795 23.8145 90.9883 27.0146 94.7002 52.6143 c 1
 101.907 91.5518 101.718 297.985 97.2383 340.19 c 0
 94.8389 368.212 88.6953 369.499 49.9072 378.477 c 1
 53.1904 397.18 l 1xfa
EndSplineSet
Validated: 33
EndChar

StartChar: f.pcap
Encoding: 65573 -1 650
Width: 446
VWidth: 1159
Flags: W
HStem: -5.91016 22.9825<64.1621 84.3336> 186.35 27.987<174.2 297.49> 374.123 20.518<53.6328 85.7743> 387.355 20G<352.946 370.807>
VStem: 103.567 69.304<36.7848 186.35 214.337 364.086> 318.66 23.107<131.986 167.294 239.369 264.909> 348.485 20.517<297.745 329.862 401.111 402.897>
LayerCount: 2
Fore
SplineSet
246.621 -8.95117 m 1xde
 186.705 6.50879 138.454 6.50879 64.1621 -5.91016 c 1
 57.6758 17.0723 l 1
 85.3135 24.6523 100.32 34.2383 103.567 67.4854 c 1
 106.166 102.873 107.041 300.842 102.928 341.279 c 0
 100.854 362.674 88.2549 366.463 50.1885 374.123 c 1
 53.6328 394.641 l 1xee
 160.918 389.284 351.262 392.135 354.63 407.355 c 1
 386.983 391.904 371.802 373.95 369.002 297.745 c 1
 348.485 295.855 l 1
 342.068 312.844 343.632 338.674 318.409 350.974 c 0
 281.21 369.058 230.511 370.471 189.97 364.137 c 0
 180.893 363.182 179.325 354.241 178.83 344.519 c 0
 174.35 299.991 174.562 255.202 174.2 214.337 c 1
 203.477 214.582 268.227 216.925 276.003 217.916 c 0
 304.307 223.327 311.384 245.892 321.945 268.398 c 1
 344.356 263.91 l 1
 334.161 227.349 335.108 168.94 341.767 131.986 c 1
 318.66 125.996 l 1
 307.885 176.487 305.396 179.955 276.003 184.189 c 0
 249.275 188.822 227.632 188.58 172.871 186.35 c 1
 176.052 128.543 174.713 99.3564 179.862 70.0312 c 0
 184.992273142 40.8126554404 186.532 26.8887 250.642 26.4502 c 1
 246.621 -8.95117 l 1xde
EndSplineSet
Validated: 33
EndChar

StartChar: g.pcap
Encoding: 65574 -1 651
Width: 548
VWidth: 1159
Flags: W
HStem: -5.66797 27.3799<253.573 365.873> 383.816 28.5996<232.932 357.943>
VStem: 56.5967 83.7168<123.612 291.688> 396.628 71.5527<44.5193 178.581> 437.751 20.5176<299.387 313.65>
LayerCount: 2
Fore
SplineSet
56.5967 204.987 m 3xf0
 56.5967 367.702 235.931 412.416 318.59 412.416 c 1
 354.636 412.416 381.356 400.011 409.686 393.835 c 0
 417.871 392.239 424.124 395.388 429.481 406.736 c 1
 447.037 406.08 l 1
 458.269 300.813 l 1
 437.751 296.632 l 1xe8
 407.969 360.977 333.57 383.816 296.779 383.816 c 3
 187.493 383.816 140.313 281.57 140.313 211.323 c 1
 140.313 113.449 218.34 21.7119 312.605 21.7119 c 1
 338.183 21.7119 355.583 26.6211 381.844 44.3018 c 0
 390.111 48.7861 394.092 63.3535 394.455 74.2402 c 0
 394.434 93.1299 395.902 114.35 396.628 134.659 c 0
 395.504 160.904 391.576 177.173 365.781 181.129 c 0
 347.269 183.007 333.537 183.582 314.782 183.433 c 1
 316.177 205.252 l 1
 374.848 199.33 458.919 199.826 488.03 203.523 c 1
 490 186.716 l 1
 474.862 182.784 469.039 172.854 468.181 151.362 c 0
 466.818 119.9 466.126 92.4941 464.575 67.6523 c 0
 463.999 50.3057 467.536 45.2256 480.703 32.959 c 1
 478.813 18.7656 l 1
 433.068 11.6924 321.464 -5.66797 289.231 -5.66797 c 1
 159.113 -5.66797 56.5967 77.7305 56.5967 204.987 c 3xf0
EndSplineSet
Validated: 33
EndChar

StartChar: h.pcap
Encoding: 65575 -1 652
Width: 584
VWidth: 1159
Flags: W
HStem: -9.52734 21G<374.397 398.917> -7.95996 23.0508<52.1693 73.5435 185.361 217.797 503.01 528.587> 186.323 27.501<171.585 420.307> 378.489 24.8721<53.1371 88.1347 185.834 222.389 373.337 404.007>
LayerCount: 2
Fore
SplineSet
53.6689 403.361 m 1xb0
 112.056 398.094 159.699 393.48 222.389 401.138 c 1
 223.782 376.923 l 1
 210.467 373.938 182.153 372.797 179.209 360.095 c 1
 174.207 340.058 173.463 270.639 171.585 213.824 c 1
 420.307 214.55 l 1
 419.943 248.461 419.249 288.051 417.57 336.559 c 0
 415.986 371.478 392.946 370.641 370.135 379.388 c 1
 373.337 401.795 l 1
 423.61 392.095 473.928 392.176 527.818 405.826 c 1
 532 381.611 l 1
 506.495 374.231 498.557 372.18 495.388 346.344 c 0
 485.644 258.586 478.428 76.2197 491.073 48.5889 c 0
 497.849 19.1143 514.664 18.0928 531.09 15.0908 c 1
 531.09 15.0908 527.968 -1.02539 528.464 -7.95996 c 1x70
 486.923 1.16309 423.276 2.55762 374.559 -9.52734 c 1
 374.236 -7.83398 370.86 5.5752 369.467 13.6162 c 1
 394.821 21.8184 408.716 24.3721 412.54 53.2891 c 0
 417.524 103.581 418.861 132.254 420.307 185.598 c 1
 170.445 186.323 l 1
 169.144 139.279 168.947 90.3389 171.746 51.6719 c 0
 172.818 19.8066 201.971 20.8721 220.154 15.3447 c 1
 220.154 15.3447 217.608 -2.01562 217.112 -8.95117 c 1
 161.736 0.587891 99.1611 2.39648 53.2539 -7.79883 c 1
 53.2539 -7.79883 49.7285 10.541 48.7383 19.457 c 1
 67.7119 24.7314 90.6973 23.793 94.1924 53.2842 c 0
 104.311 151.288 105.503 331.745 98.6035 349.921 c 0
 93.8594 373.847 73.5869 375.332 51.7793 378.489 c 1
 53.6689 403.361 l 1xb0
EndSplineSet
Validated: 33
EndChar

StartChar: i.pcap
Encoding: 65576 -1 653
Width: 331
VWidth: 1159
Flags: W
HStem: -6.56641 26.1846<56.4055 101.954> 372.891 27.752<59.5411 109.06>
VStem: 57.2832 202.17
LayerCount: 2
Fore
SplineSet
60.1631 400.643 m 1
 126.092 388.224 188.098 390.032 258.059 398.834 c 1
 259.453 371.002 l 1
 230.134 369.739 211.722 375.403 203.805 340.755 c 0
 194.795 280.067 186.511 198.761 196.859 65.4365 c 0
 199.488 36.2217 229.711 20.6895 262.561 19.5381 c 1
 261.823 -5.8291 l 1
 202.277 0.749023 108.855 1.73926 57.2832 -6.56641 c 1
 54 19.6182 l 1
 88.3945 20.2725 118.453 31.7285 122.894 68.9414 c 0
 130.785 147.271 130.267 276.957 121.459 339.603 c 0
 113.778 370.183 85.2676 369.028 57.6973 372.891 c 1
 60.1631 400.643 l 1
EndSplineSet
Validated: 33
EndChar

StartChar: j.pcap
Encoding: 65577 -1 654
Width: 316
VWidth: 1355
Flags: W
HStem: 372.729 26.105<53.8711 99.9628>
VStem: 122.568 74.57<-62.9141 275.502>
LayerCount: 2
Fore
SplineSet
113.274 331.094 m 0
 105.885 372.844 80.9775 369.819 51.3252 372.729 c 1
 53.8711 398.834 l 1
 120.93 386.254 181.322 390.113 251.606 398.834 c 1
 253 371.002 l 1
 222.017 370.253 200.127199562 376.338476425 195.602 333.214 c 0
 188.902 269.364 191.187 208.438 191.126 130.164 c 1
 191.126 55.8486 195.94 26.4619 197.138 1.69336 c 1
 197.138 -51.9434 160.214165189 -87.7258593452 119.46 -114.877 c 0
 96.5996 -130.107 71.5762 -142.066 48.7939 -151.443 c 1
 41.5391 -151.443 24.9541 -125.225 24.9541 -125.225 c 1
 39.0488 -114.334 69.6035 -101.602 81.1172 -93.7793 c 1
 81.1171949359 -93.779300905 81.1171933134 -93.7792971211 81.1171875 -93.779296875 c 1
 135.924967514 -57.4340985684 123.123494802 13.15407535 122.568 38.166 c 1
 122.22 62.5186 118.830980299 299.695444381 113.274 331.094 c 0
EndSplineSet
Validated: 33
EndChar

StartChar: k.pcap
Encoding: 65578 -1 655
Width: 491
VWidth: 1159
Flags: W
HStem: -6.56641 20.3447<48.6875 73.7133 191.575 219.431> 375.852 20.5977<52.3848 78.3378 182.87 216.46 264.771 288.293 384.532 407.859>
VStem: 95.1924 68.2002<27.0142 170.655 245.78 368.209>
LayerCount: 2
Fore
SplineSet
264.771 393.569 m 1
 301.957 389.215 367.213 390.608 406.623 398.915 c 1
 412.371 375.356 l 1
 387.376 369.841 371.54 360.341 350.284 342.062 c 0
 296.952 295.877 256.671 262.555 208.098 220.446 c 1
 379.38 66.3945 l 1
 398.642 49.4443 426.913 28.1064 448 18.4727 c 1
 445.293 1.9873 l 1
 429.345 3.02637 396.788 3.6543 382.458 3.6543 c 0
 363.047 3.6543 324.173 1.76465 305.66 -1.11523 c 1
 302.791 16.3486 l 1
 306.967 22.0713 322.732 25.4287 307.29 43.5645 c 1
 297.376 59.4287 220.059 128.151 163.393 178.097 c 1
 163.393 132.041 164.684 91.8057 166.557 60.7793 c 0
 168.109 26.0664 187.331 25.3975 221.154 13.7783 c 1
 218.527 -6.56641 l 1
 173.854 0.587891 107.013 3.30664 48.6875 -3.60547 c 1
 46.7168 18.5469 l 1
 76.0293 20.1699 87.5176 25.082 91.5098 57.5811 c 0
 100.238 141.261 100.895 231.585 95.1924 321.732 c 0
 91.2383 366.209 84.1016 366.714 48.3643 375.852 c 1
 52.3848 396.449 l 1
 98.9492 389.215 170.336 391.023 216.002 396.944 c 1
 218.133 375.367 l 1
 186.405 371.497 175.571 373.231 170.203 332.756 c 1
 166.605 285.933 163.815 256.897 163.393 209.283 c 1
 210.891 253.817 242.615 282.028 287.338 327.521 c 0
 292.747 334.299 295.627 334.995 295.627 348.104 c 0
 296.122 365.864 283.352 371.577 263.953 374.872 c 1
 264.771 393.569 l 1
EndSplineSet
Validated: 33
EndChar

StartChar: l.pcap
Encoding: 65579 -1 656
Width: 465
VWidth: 1159
Flags: W
HStem: -4.59668 28.0859<59.7842 90.0198> 0.587891 34.6445<181.572 340.673> 369.193 29.8018<55.1737 92.4492 185.106 232.682>
VStem: 100.52 72.7471<67.0997 363.83> 388.018 22.9824<89.3817 109.699>
LayerCount: 2
Fore
SplineSet
232.682 397.105 m 1xb8
 235.147 370.668 l 1
 187.639 362.8 182.547 372.73 178.188 315.446 c 0
 173.959 298.379 172.613 95.1543 173.267 104.887 c 1
 173.869 59.749 179.234 36.3525 215.439 35.2324 c 0
 210.032 36.0293 287.885 37.3096 285.346 36.291 c 0
 338.585 34.5342 378.696 79.6211 388.018 114.296 c 1
 411 109.699 l 1
 410.295 67.6436 402.386 64.7168 384.434 -18.6309 c 1
 363.73 -8.94043 361.061 -4.11426 335.322 -2.59961 c 0
 328.906 -2.16797 278.448 0.587891 220.583 0.587891 c 0x78
 95.3721 0.587891 69.2656 -4.59668 59.7842 -4.59668 c 1
 56.6621 23.4893 l 1
 87.6084 30.0029 96.1396 33.8857 98.749 67.2725 c 0
 99.5107 62.7598 100.156 111.462 100.52 173.042 c 0
 101.245 254.564 98.0117 332.553 97.5781 333.961 c 0
 95.2588 367.256 88.501 367.029 53.2871 369.193 c 1
 55.7529 398.995 l 1
 105.53 386.496 188.664 390.367 232.682 397.105 c 1xb8
EndSplineSet
Validated: 33
EndChar

StartChar: m.pcap
Encoding: 65580 -1 657
Width: 648
VWidth: 1159
Flags: W
HStem: -6.56641 26.5195<42.204 86.2866 162.423 202.403 412.047 452.632> 377.833 28.4082<49.9604 98.5728 551.364 588.655>
VStem: 104.824 40.3398<79.1084 279.542> 292.358 29.4043<3.74121 55.1367> 469.391 62.8096<84.0046 286.745 347.435 370.37>
LayerCount: 2
Fore
SplineSet
590.44 -0.311523 m 1
 545.363 8.0752 470.439 8.73242 412.839 -1.95801 c 1
 409.476 23.1553 l 1
 466.302 28.5752 472.014 34.7354 469.391 108.509 c 0
 469.396 178.485 468.319 220.58 461.811 289.979 c 1
 418.614 228.975 389.621 180.521 355.436 104.692 c 0
 341.57 74.1768 327.65 32.2432 321.763 3.74121 c 1
 292.358 3.74121 l 1
 291.687 39.8232 275.847 79.8584 261.181 109.957 c 1
 262.492 108.667 166.155 290.334 165.044 283.034 c 1
 153.729 208.005 146.219 166.837 145.164 84.9814 c 0
 144.749 28.3623 166.152 28.2578 205.687 20.1943 c 1
 202.403 -6.40527 l 1
 160.193 0.253906 94.7178 2.97168 42.6357 -6.56641 c 1
 41 19.9531 l 1
 86.0439 26.0596 100.242 28.9863 104.824 79.1084 c 1
 104.847 77.5938 124.31 283.142 124.543 280.593 c 1
 125.428 312.119 123.231 334.988 109.906 352.588 c 0
 98.9219 367.95 82.708 375.792 46.1836 377.833 c 1
 51.1953 406.241 l 1
 85.248 401.887 140.876 397.44 177.74 398.592 c 1
 191.703 398.816 193.919 387.165 197.549 376.978 c 0
 239.518 281.575 276.571 216.599 329.241 134.17 c 1
 330.438 128.134 474.91 393.976 474.91 393.097 c 0
 477.951 398.684 483.458 401.553 487.881 400.896 c 0
 516.509 397.44 559.51 398.834 588.057 401.714 c 1
 590.683 375.529 l 1
 547.243 376.101 533.583 367.854 532.2 311.311 c 0
 533.477 233.201 530.705 160.88 536.871 104.488 c 0
 542.877 35.5352 554.787 28.2588 591.177 27.6826 c 1
 590.44 -0.311523 l 1
EndSplineSet
Validated: 33
EndChar

StartChar: n.pcap
Encoding: 65581 -1 658
Width: 564
VWidth: 1159
Flags: W
HStem: -9.68848 21G<175.92 206.616> -6.56641 28.9727<47.6191 85.8788> 384.584 25.2744<377.511 418.246 495.265 519.797>
VStem: 95.8086 41.3701<41.9182 308.676> 439.42 30.418<130.871 238.18> 452.616 24.2949<-5.99538 11.9605>
LayerCount: 2
Fore
SplineSet
47.2031 404.514 m 1x74
 81.1211 399.126 120.901 397.531 150.243 399.744 c 0
 159.358 399.903 160.749 396.634 164.62 392.763 c 0
 259.871 290.703 339.446 209.835 434.217 127.984 c 1
 441.572 189.917 436.655 229.738 439.42 297.312 c 0
 439.343 379.526 410.264 382.18 375.554 384.584 c 1
 378.261 409.858 l 1
 431.172 401.714 477.853 402.129 519.797 404.514 c 1
 523 380.298 l 1
 495.951 376.962 486.376 374.165 482.472 334.579 c 0
 472.358 247.635 468.687 136.86 469.838 44.3408 c 0x78
 469.838 30.2432 473.456 9.52441 476.911 -3.91406 c 1
 452.616 -11.1377 l 1
 443.136 14.0811 429.888 26.543 412.26 46.3018 c 0
 326.692 136.729 234.259 223.957 142.121 308.565 c 1
 142.121 314.254 135.698 104.428 137.179 109.984 c 1
 136.685 47.9697 159.563 28.5654 208.372 20.3555 c 1
 203.119 -9.68848 l 1xb4
 148.722 8.8125 88.3193 -2.29199 47.6191 -6.56641 c 1
 44.2549 22.4062 l 1
 79.9121 23.5762 94.6572 32.3037 95.8086 74.9287 c 0
 101.158 155.011 101.787 228.775 100.417 322.109 c 0
 96.3789 356.649 69.4004 368.719 45.9707 376.104 c 1
 47.2031 404.514 l 1x74
EndSplineSet
Validated: 33
EndChar

StartChar: o.pcap
Encoding: 65582 -1 659
Width: 589
VWidth: 1159
Flags: W
HStem: -4.67676 36.2852<246.986 376.4> 377.726 35.2666<208.211 328.755>
VStem: 62.1523 77.6943<147.048 285.958> 434.492 83.5078<110.981 270.329>
LayerCount: 2
Fore
SplineSet
263.874 377.726 m 1
 191.771 377.726 139.847 325.002 139.847 242.805 c 1
 139.847 135.743 217.9 31.6084 312.758 31.6084 c 1
 390.912 31.6084 434.492 91.7939 434.492 173.613 c 1
 434.492 291.393 350.277 377.726 263.874 377.726 c 1
298.191 412.992 m 1
 422.59 412.992 518 314.149 518 200.125 c 1
 518 87.1484 427.5 -4.67676 293.277 -4.67676 c 1
 149.817 -4.67676 62.1523 109.651 62.1523 200.287 c 1
 62.1523 313.839 171.565 412.992 298.191 412.992 c 1
EndSplineSet
Validated: 1
EndChar

StartChar: p.pcap
Encoding: 65583 -1 660
Width: 454
VWidth: 1159
Flags: W
HStem: -10.5986 24.3877<54.8303 72.329> -6.56641 29.8945<181.382 229.625> 137.215 22.421<171.622 250.081> 366.889 27.257<44.4043 90.4189> 374.598 17.082<172.148 239.359>
VStem: 100.282 71.34<28.9752 139.505 159.766 361.71> 304.887 76.668<198.808 328.194>
LayerCount: 2
Fore
SplineSet
197.55 159.636 m 1x2e
 246.794 159.636 304.887 183.529 304.887 260.963 c 1
 304.887 310.294 269.6 350.14 257.73 357.805 c 0
 233.949 372.343 206.477 374.598 175.354 374.598 c 1
 172.436 374.598 171.397 360.975 170.847 351.363 c 0
 172.268 308.679 168.267 239.423 169.895 166.133 c 1
 179.353 162.507 185.371 159.636 197.55 159.636 c 1x2e
44.8896 394.146 m 1xb6
 60.752 392.832 89.751 391.68 113.021 391.68 c 1
 153.675 391.68 185.796 398.016 226.288 398.016 c 1
 320.845 398.016 381.555 324.825 381.555 266.135 c 1
 381.555 175.145 293.667 137.215 195.643 137.215 c 1
 182.614 137.215 182.602 137.362 171.622 139.505 c 1
 172.693 103.331 171.391 69.5625 175.35 54.7227 c 0
 180.239 24.499 190.469 28.832 232.171 23.3281 c 1
 229.625 -6.56641 l 1x6e
 169.79 4.12402 122.143 5.85254 57.4688 -10.5986 c 1
 48.2764 13.7891 l 1
 91.3037 33.748 98.8848 32.7314 100.282 60.9404 c 0
 105.011 135.688 102.478 246.529 95.7744 337.311 c 0
 93.6631 358.095 81.8262 366.312 43 366.889 c 1
 44.8896 394.146 l 1xb6
EndSplineSet
Validated: 33
EndChar

StartChar: q.pcap
Encoding: 65584 -1 661
Width: 564
VWidth: 1187
Flags: W
HStem: -150.849 45.027<519.002 707.554> 387.413 25.003<210.377 313.492>
VStem: 66.252 79.212<133.813 305.67> 405.267 81.781<119.857 294.903>
LayerCount: 2
Fore
SplineSet
263.718 387.413 m 3
 193.141 387.413 145.464 339.343 145.464 243.161 c 3
 145.464 138.426 200.559 28.6729 289.269 28.6729 c 3
 361.35 28.6729 405.267 87.3115 405.267 188.062 c 3
 405.267 307.792 340.95 387.413 263.718 387.413 c 3
351.935 13.5684 m 1
 456.991 -50.9404 518.276 -105.822 629.213 -105.822 c 7
 684.912 -105.822 753.848 -93.5605 774.453 -81.9951 c 1
 782 -102.916 l 1
 756.723 -116.645 649.17 -150.849 575.363 -150.849 c 7
 456.368 -150.849 383.393 -78.7578 256.088 -5.94336 c 1
 153.324 0.195312 66.252 96.4004 66.252 210.159 c 3
 66.252 349.012 171.419 412.416 280.629 412.416 c 3
 386.199 412.416 487.048 332.977 487.048 211.392 c 3
 487.048 116.09 424.594 46.2803 351.935 13.5684 c 1
EndSplineSet
Validated: 1
EndChar

StartChar: r.pcap
Encoding: 65585 -1 662
Width: 528
VWidth: 1159
Flags: W
HStem: -19.4922 24.1348<440.728 488.323> -6.64746 28.3281<59.4863 93.8987 187.39 220.647> 187.868 27.2793<170.981 223.708> 371.002 24.1338<52.7471 92.0511> 381.646 24.4346<184.127 252.133>
VStem: 99.792 71.1895<30.229 187.868 215.147 367.283> 304.484 74.6406<239.885 343.529>
LayerCount: 2
Fore
SplineSet
170.981 215.147 m 1x2e
 192.288 214.571 203.004 212.924 224.062 212.924 c 1
 276.897 212.924 304.484 243.815 304.484 285.676 c 1
 304.484 324.894 270.116 380.148 207.99 381.646 c 1
 194.689 379.909 181.619 377.828 175.975 346.091 c 0
 168.601 310.358 169.628 255.776 170.981 215.147 c 1x2e
52.7471 395.136 m 1x76
 79.2871 394.56 98.0967 393.984 127.871 393.984 c 1
 170.749 393.984 189.901 406.08 238.673 406.08 c 1
 314.636 406.08 379.125 358.353 379.125 298.218 c 1
 379.125 249.389 340.982 215.822 296.514 198.575 c 1
 373.762 78.3896 408.814 3.51758 493 4.64258 c 1
 488.323 -19.4922 l 1xae
 369.416 -29.4619 286.699 55.2324 220.598 184.767 c 1
 218.128 184.67 216.595 185.068 215.595 185.068 c 1
 196.113 185.468 190.318 187.131 170.981 187.868 c 1
 173.418 136.366 174.934 98.0781 179.546 55.2812 c 0
 181.95 29.7051 194.083 26.5615 224.48 21.6807 c 1
 219.389 -6.64746 l 1
 167.642 3.54785 111.576 4.7002 59.4863 -4.83887 c 1
 54.8086 21.9229 l 1
 86.2236 23.9697 96.7324 28.9385 99.792 53.9707 c 1
 106.098 178.697 107.229 221.016 101.883 330.543 c 1
 96.8086 362.487 88.9375 369.85 52.7471 371.002 c 1
 52.7471 395.136 l 1x76
EndSplineSet
Validated: 33
EndChar

StartChar: s.pcap
Encoding: 65586 -1 663
Width: 435
VWidth: 1159
Flags: W
HStem: -6.32422 31.0566<160.899 271.688> 384.129 24.8311<174.521 272.438>
VStem: 59.124 24.2441<89.4071 119.203> 72.3828 21.1738<-0.40332 6.53268> 78.2148 65.7725<264.338 350.96> 296.743 66.2568<45.4187 137.196>
LayerCount: 2
Fore
SplineSet
59.124 117.835 m 1xe4
 83.3682 122.572 l 1xe4
 86.4854 103.654 93.8984 86.2178 108.776 71.8281 c 0
 136.09 45.0244 191.478 24.7324 225.811 24.7324 c 1
 273.165 24.7324 296.743 59.2188 296.743 86.6455 c 1
 296.743 163.083 196.922 169.416 142.034 194.954 c 0
 129.367 201.141 78.2148 226.787 78.2148 285.216 c 1
 78.2148 344.695 126.946 408.96 232.861 408.96 c 1
 259.59 408.96 288.232 403.31 297.997 401.136 c 0
 310.743 398.444 321.678 395.564 332.888 404.018 c 1
 352.909 398.27 l 1
 342.574 346.854 344.892 344.891 352.058 307.205 c 0
 355.841 296.757 343.732 285.365 330.059 289.542 c 1
 328.042 285.741 319.918 315.502 321.492 325.57 c 0
 314.117 355.134 263.677 384.129 223.016 384.129 c 1
 192.891 384.129 143.987 374.947 143.987 311.486 c 1xcc
 143.987 245.562 197.238 259.072 286.258 219.792 c 0
 350.391 192.037 363 139.771 363 105.933 c 1
 363 59.4492 324.839 -6.32422 209.016 -6.32422 c 1
 171.384 -6.32422 139.788 -2.0957 109.809 8.43359 c 1
 96.3301 11.1748 97.8828 9.3877 93.5566 -2.94922 c 1
 72.3828 -0.40332 l 1xd4
 72.3789 33.7441 67.6924 73.4971 59.124 117.835 c 1xe4
EndSplineSet
Validated: 33
EndChar

StartChar: t.pcap
Encoding: 65587 -1 664
Width: 492
VWidth: 1159
Flags: W
HStem: -13.0635 32.3594<143.255 195.791> 356.938 36.833<78.4714 207.69 290.969 412.151> 381.541 28.882G<64.7353 74.521 438.326 457>
VStem: 411.213 24.78<307.432 347.986>
LayerCount: 2
Fore
SplineSet
115.856 393.771 m 0xd0
 215.792 390.805 317.316 390.741 418.776 392.256 c 0
 428.366712035 392.399208444 436.229 396.196 440.423 401.541 c 1
 457 390.874 l 1
 447.884 365.301 437.622 341.277 435.993 304.605 c 1
 411.213 308.545 l 1
 411.213 308.545 413.186 323.282 413.796 326.39 c 1
 422.496 364.585 318.641 358.276 290.969 356.725 c 1
 284.896 257.502 283.362 174.165 286.875 68.8457 c 0
 289.636 24.3916 289.737 28.4551 347.391 21.1855 c 1
 343.116 -7.30371 l 1
 286.729 4.45801 196.503 0.425781 144.356 -13.0635 c 1
 139.265 19.2959 l 1
 201.216 29.3027 202.098 36.4658 204.399 54.2949 c 0
 211.482 118.648 218.468 320.393 203.553 356.938 c 1xd0
 161.128 358.884 139.167 358.614 104.915 349.201 c 0
 78.6291736044 341.977232516 79.584 346.038 52.9971 301.563 c 1
 27.4688 313.557 l 1
 42.6631 344.199 60.8799 393.468 68.5908 410.423 c 1xb0
 80.4512 401.362 92.7311647272 394.45732186 115.856 393.771 c 0xd0
EndSplineSet
Validated: 33
EndChar

StartChar: u.pcap
Encoding: 65588 -1 665
Width: 569
VWidth: 1159
Flags: W
HStem: -6.32422 38.3193<209.793 379.971> 370.506 25.9434<49.1221 91.4305 184.262 228.194 476.24 521.102>
VStem: 97.4258 71.7637<67.9692 317.161> 424.758 38.1787<73.1868 350.523>
LayerCount: 2
Fore
SplineSet
49.1221 396.449 m 1
 89.9785 392.256 174.922 392.176 228.194 396.368 c 1
 230.901 372.729 l 1
 192.753 369.273 175.196 366.645 172.422 317.178 c 0
 172.781 319.347 168.826 157.697 169.189 147.122 c 1
 169.539 113.947 175.896 85.4844 193.203 65.042 c 0
 211.924 43.54 243.329 31.9951 295.392 31.9951 c 1
 313.291 31.9951 362.244 30.4541 394.69 59.7773 c 0
 416.688 80.0293 422.651 104.969 424.758 147.709 c 0
 426.659 199.1 425.216 283.375 424.246 336.538 c 0
 422.534 371.175 405.515 369.931 365.323 370.506 c 1
 366.475 396.449 l 1
 399.653 392.176 497.628 389.629 521.102 395.539 c 1
 523.072 369.769 l 1
 490.47 370.242 474.48 372.032 471.522 340.041 c 0
 468.616 337.492 464.154 273.926 462.937 146.719 c 0
 462.666 102.01 448.814 67.4678 425.372 42.6191 c 0
 392.334 9.70703 338.631 -6.32422 269.959 -6.32422 c 1
 205.032 -6.32422 159.566 9.13574 132.032 36.3574 c 0
 107.929 60.6299 96.8135 94.3467 97.4258 136.017 c 0
 98.8408 147.049 100.153 318.175 99.1367 324.629 c 0
 95.6357 364.291 93.5557 363.907 46 370.506 c 1
 49.1221 396.449 l 1
EndSplineSet
Validated: 33
EndChar

StartChar: v.pcap
Encoding: 65589 -1 666
Width: 568
VWidth: 1159
Flags: W
HStem: 374.123 20.792<39.2647 67.4909 168.045 209.199 377.926 414.003 495.88 525.325>
VStem: 265.175 30.749<-21.6221 26.4169>
LayerCount: 2
Fore
SplineSet
209.36 393.521 m 1
 209.199 373.397 l 1
 196.142 373.802 182.577 372.104 176.148 369.143 c 0
 160.309 366.479 164.8 359.358 167.409 353.929 c 1
 165.393 361.116 307.434 73.542 305.163 84.4854 c 1
 300.473 71.3936 423.415 357.782 419.632 350.969 c 1
 421.406 357.238 419.757 363.916 407.203 368.048 c 0
 403.203 369.364 378.223 374.58 377.27 374.631 c 1
 377.926 397.795 l 1
 425.024 388.913 495.03 390.398 524.717 398.036 c 1
 528 373.962 l 1
 498.827 371.275 480.558 358.764 453.556 316.909 c 0
 440.604 299.336 347.528 119.958 311.236 34.7217 c 0
 304.598 18.5928 296.978 -3.63867 295.924 -21.6221 c 1
 265.175 -21.7021 l 1
 265.197 -3.89258 257.645 8.79199 247.429 32.9131 c 0
 221.138 89.3086 158.769 210.567 95.0469 327.235 c 0
 74.3672 363.621 65.9941 370.156 36.4629 374.123 c 1
 39.9072 394.915 l 1
 107.732 384.224 139.823 390.56 209.36 393.521 c 1
EndSplineSet
Validated: 37
EndChar

StartChar: w.pcap
Encoding: 65590 -1 667
Width: 720
VWidth: 1159
Flags: W
HStem: -9.94141 21G<466.738 488.395> 377.366 23.293<183.943 212.214 262.861 292.197 397.092 446.03 656.434 677.117>
VStem: 259.773 23.5693<-12.6602 25.9001> 467.073 21.3213<-9.2041 22.3598>
LayerCount: 2
Fore
SplineSet
676.061 401.569 m 1
 680 378.253 l 1
 629.955 363.745 630.323 329.177 596.45 249.366 c 1
 528.413 79.041 510.181 45.7744 499.614 24.3535 c 0
 493.874 10.3926 489.56 4.19336 488.395 -9.2041 c 1
 467.073 -9.94141 l 1
 466.403 1.95801 467.588 10.9844 457.071 33.8916 c 0
 426.155 98.7871 404.246 162.39 373.75 227.843 c 1
 337.63 137.078 315.909 78.627 289.944 13.8125 c 0
 285.524 1.89551 283.781 -3.70898 283.343 -12.6602 c 1
 259.773 -12.6602 l 1
 259.219 -2.72461 260.68 6.96973 245.371 40.9004 c 0
 179.891 194.095 114.422 319.264 101.765 331.585 c 0
 97.6973 336.503 93.5186 342.317 81.9521 356.683 c 0
 69.8281 371.755 50.2969 373.689 33.5947 375.131 c 1
 37.6963 401.892 l 1
 81.0771 388.989 161.987 389.727 212.214 400.659 c 1
 217.387 377.366 l 1
 187.566 377.076 178.049 367.958 178.049 347.565 c 1
 178.049 340.573 181.098 331.479 184.303 325.74 c 1
 183.768 332.816 297.162 86.9609 296.53 102.379 c 1
 308.516 124.409 335.385 207.479 354.213 264.877 c 1
 323.453 336.854 308.47 349.132 305.265 354.773 c 1
 291.231 374.092 270.022 375.322 258.841 380.073 c 1
 262.861 399.922 l 1
 317.363 393.264 387.353 392.111 445.306 401.649 c 1
 448.013 378.184 l 1
 447.081 378.078 428.024 377.11 421.271 377.973 c 0
 399.806 377.9 391.969 364.171 396.645 352.057 c 1
 396.479 347.934 505.399 90.6016 500.251 104.556 c 1
 538.148 176.489 552.579 222.287 572.092 296.131 c 0
 587.192 352.302 588.931 379.266 518.932 377.285 c 1
 519.173 398.689 l 1
 554.898 394.254 616.321 393.344 676.061 401.569 c 1
EndSplineSet
Validated: 33
EndChar

StartChar: x.pcap
Encoding: 65591 -1 668
Width: 536
VWidth: 1159
Flags: W
HStem: -0.806641 24.7109<177.68 212.974 458.226 489.403> 382.011 17.7178<47.4873 70.5438 201.107 223.314 295.207 309.292 445.836 460.234>
LayerCount: 2
Fore
SplineSet
47.4873 399.729 m 1
 115.029 396.272 162.501 395.121 223.314 403.922 c 1
 224.052 381.273 l 1
 219.87 379.88 209.322 380.273 200.701 377.91 c 0
 190.402 374.781 193.968 361.902 199.268 352.315 c 1
 198.129 351.951 276.814 237.887 274.987 239.363 c 1
 299.577 274.071 316.484 305.304 326.826 321.331 c 0
 334.28 332.783 340.941 356.92 323.173 367.286 c 1
 319.143 371.029 295.276 377.981 291.924 377.817 c 1
 295.207 398.081 l 1
 343.591 392.655 411.267 393.888 460.054 399.81 c 1
 461.528 376.827 l 1
 453.687 374.717 424.223 372.056 397.685 347.773 c 0
 383.641 336.52 378.72 333.405 290.174 224.337 c 1
 319.48 190.495 417.995 69.8252 430.369 59.4668 c 1
 459.224 29.1221 469.517 30.5703 494 23.9043 c 1
 489.403 -0.806641 l 1
 449.176 7.58008 346.812 5.19531 304.925 -4.42383 c 1
 302.955 17.5684 l 1
 307.819 22.1553 320.577 25.2607 326.193 29.4609 c 0
 342.331 40.6553 331.387 60.209 321.521 75.167 c 0
 302.697 106.938 285.612 132.64 253.359 173.014 c 1
 218.332 127.936 200.782 97.8213 183.032 67.7861 c 0
 175.723 55.7861 167.956 36.8369 188.065 25.4453 c 0
 197.257 20.8291 207.702 18.3809 213.135 17.4756 c 1
 212.974 -3.60547 l 1
 159.9 0.0917969 102.685 1.82031 53.7363 -4.75781 c 1
 52.5039 16.8311 l 1
 63.5049 18.0898 94.1689 29.5723 119.936 55.0322 c 0
 127.75 65.1035 131.788 60.6191 235.633 190.147 c 1
 123.683 329.364 121.053 335.136 110.766 341.393 c 0
 77.5244 371.968 62.874 379.804 46.9111 382.011 c 1
 47.4873 399.729 l 1
EndSplineSet
Validated: 37
EndChar

StartChar: y.pcap
Encoding: 65592 -1 669
Width: 516
VWidth: 1159
Flags: W
HStem: -10.6787 27.0137<170.569 207.29 323.346 363.58> 374.232 25.6895<35.3949 72.2345 191.676 206.54 305.486 343.412 427.91 469>
VStem: 231.261 67.6299<31.4137 177.802>
LayerCount: 2
Fore
SplineSet
209.742 373.334 m 1
 216.531 373.418 199.157 370.632 191.301 370.917 c 0
 179.331 368.691 177.291 361.629 185.169 349.095 c 1
 234.725 269.571 275.72 230.387 279.486 226.838 c 1
 312.578 279.719 338.956 320.174 339.947 326.048 c 1
 347.674 340.57 353.289 356.356 340.519 365.514 c 0
 334.401 370.77 316.681 373.523 304.505 374.232 c 1
 305.818 399.922 l 1
 328.513 396.144 431.318 389.808 469 399.588 c 1
 469 371.514 l 1
 427.667 368.961 414.763 355.815 388.396 330.431 c 1
 354.463 300.139 324.119 247.581 298.891 203.709 c 1
 298.315 177.372 296.282 145.876 307.098 59.501 c 0
 311.748 28.1055 321.386 26.9414 366.783 20.6895 c 1
 363.58 -7.14258 l 1
 304.655 1.16309 232.32 4.78125 172.485 -10.6787 c 1
 165.09 16.335 l 1
 209.948 25.7314 229.669 32.7314 231.261 70.7793 c 1
 231.516 67.749 229.843 180.628 229.118 177.751 c 1
 227.981 182.724 174.2 263.729 101.198 339.015 c 1
 75.9092 362.404 69.5186 365.581 33.5654 374.716 c 1
 36.0312 400.417 l 1
 69.8311 396.881 173.132 392.606 206.54 399.427 c 1
 209.742 373.334 l 1
EndSplineSet
Validated: 33
EndChar

StartChar: z.pcap
Encoding: 65593 -1 670
Width: 511
VWidth: 1159
Flags: W
HStem: -0.0693359 29.9336<166.464 340.178> 363.469 5.20508<184.875 185.177> 398.473 20G<76.9077 94.3906>
LayerCount: 2
Fore
SplineSet
42.2568 309.852 m 1
 83.6367 398.928 64.4365 412.493 89.3789 418.473 c 1
 99.4023 398.247 125.271 399.204 142.265 397.652 c 0
 158.232 393.232 354.822 392.286 414.867 394.192 c 0
 422.216 394.382 433.307 395.431 437.333 396.5 c 1
 445.455 381.57 l 1
 444.867 381.272 428.418 360.615 427.909 360.47 c 0
 432.441 361.552 160.091 28.459 166.464 29.8643 c 1
 175.597 30.1504 175.452 27.6113 209.5 27.3418 c 0
 338.531 29.8809 428 66.3955 437.303 102.073 c 1
 456 92.7188 l 1
 432.483 37.4521 422.725 10.832 406.105 -16.6807 c 1
 391.054 -9.7207 385.132 -3.95801 336.046 -3.53027 c 0
 248.551 0.529297 100.491 4.46387 51.0371 -0.0693359 c 1
 44.3906 17.8213 l 1
 67.5205 29.917 86.8242 50.2852 102.157 68.2676 c 1
 180.299 163.868 259.215 263.555 328.956 361.165 c 1
 328.918 361.193 331.18 363.469 331.18 363.469 c 1
 349.313 366.733 175.91 368.276 185.177 368.674 c 1
 129.771 364.54 95.5713 350.173 62.0488 299.655 c 1
 42.2568 309.852 l 1
EndSplineSet
Validated: 37
EndChar

StartChar: Q.alt
Encoding: 65565 -1 672
Width: 725
VWidth: 1361
Flags: W
HStem: -260 55<621.32 905.446> 684 32<406.163 558.177>
AnchorPoint: "Top" 500 699 basechar 0
AnchorPoint: "Bottom" 256 -15 basechar 0
LayerCount: 2
Fore
SplineSet
485 684 m 3
 357 684 235 567 192 392 c 0
 148 214 198 46 349 46 c 3
 478 46 599 171 643 347 c 0
 696 560 615 684 485 684 c 3
1084 -187 m 17
 1034 -210 860 -260 726 -260 c 3
 508 -260 349 -159 279 -2 c 1
 125 25 44 173 92 364 c 0
 146 582 326 716 503 716 c 3
 681 716 793 567 743 367 c 0
 699 189 541 33 374 1 c 1
 455 -153 629 -205 790 -205 c 3
 899 -205 1031 -178 1080 -156 c 9
 1084 -187 l 17
EndSplineSet
Validated: 33
Position2: "cpsp-1" dx=0 dy=0 dh=10 dv=20
EndChar

StartChar: R.alt
Encoding: 65566 -1 673
Width: 645
VWidth: 1159
Flags: W
HStem: -33 37<639.992 700.888> -10 21G<254.888 298.524> 323.094 38.906<208.888 337.913> 656 37<42.8878 110.54> 665 42<228.839 392.897>
VStem: 118.888 90<71.4111 285.703 435.244 645.652> 486.888 87<439.148 576.324>
LayerCount: 2
Fore
SplineSet
209.864257812 345 m 1x2e
 250.614257812 344 270.6171875 340 311.6171875 340 c 3
 443.030273438 340 493.649414062 429.618164062 502.122070312 480 c 0
 513.856445312 549.77734375 484.44140625 665 391.65625 665 c 3
 360.65625 665 296.084960938 657.93359375 281.189453125 615 c 0
 253.06640625 533.940429688 228.086914062 426.059570312 209.864257812 345 c 1x2e
131.63671875 693 m 1x76
 174.387695312 692 199.138671875 691 242.138671875 691 c 3
 311.138671875 691 344.127929688 707 423.127929688 707 c 3
 537.409179688 707 618.654296875 606.885742188 591.864257812 491 c 0
 571.451171875 402.700195312 493.1015625 340.330078125 418.40625 317.09375 c 1
 456.342773438 129.8046875 481.836914062 5.8916015625 579.850585938 4 c 1
 563.625 -33 l 1xae
 419.422851562 -37.7060546875 342.909179688 141.10546875 326.416992188 301.09375 c 1
 300.262695312 297.09375 247.947265625 302.21875 199.890625 305 c 1
 183.447265625 217.584960938 171.436523438 154.671875 157.048828125 81 c 0
 149.823242188 44 173.576171875 39 227.330078125 34 c 1
 208.359375 -10 l 1
 132.59765625 7 53.0966796875 9 -31.892578125 -7 c 1
 -28.669921875 34 l 1
 24.828125 36 40.3271484375 38 52.056640625 69 c 1
 119.900390625 301 142.8359375 397 188.696289062 605 c 1
 192.920898438 642 184.913085938 654 122.412109375 656 c 1
 131.63671875 693 l 1x76
EndSplineSet
Validated: 33
Position2: "cpsp-1" dx=0 dy=0 dh=10 dv=20
EndChar

StartChar: a.smcp
Encoding: 65594 -1 674
Width: 547
VWidth: 1159
Flags: W
HStem: -7.54565 21G<182.106 202.074 342.949 368.617> -4.01489 28.7146<36.259 73.5765> 164.883 28.8484<199.929 326.713>
VStem: 270.911 33.8967<426.373 488.876>
LayerCount: 2
Fore
SplineSet
198.229 197.82 m 1x30
 234.128 192.959 294.452 193.732 327.653 193.732 c 1
 301.155 260.117 289.27 282.426 260.829 348.438 c 1
 233.835 281.552 222.651 256.321 198.229 197.82 c 1x30
348.188 -7.54565 m 1xb0
 348.188 -7.54565 343.43 10.7849 340.944 20.1072 c 1
 364.558 26.3008 384.431 39.5728 379.623 52.1948 c 0
 365.763 96.4082 354.877 116.271 340.439 157.657 c 1
 309.503 165.25 229.761 170.125 184.778 164.883 c 1
 167.521 123.581 154.121 99.7917 140.88 59.8176 c 0
 134.801 40.4597 156.712 20.4351 202.678 25.3047 c 1
 201.133 -7.54565 l 1xb0
 163.078 0.561279 75.3547 2.30444 37.24 -4.01489 c 1
 37.1191 -2.80493 34.4514 14.3655 33.5884 24.6997 c 1x70
 68.0278 32.3079 89.071 46.3535 93.6147 55.5884 c 0
 158.323 196.951 214.329 323.593 260.664 438.928 c 0
 270.997 464.779 267.578 461.929 270.911 489.12 c 1
 304.808 488.876 l 1
 308.762 467.408 304.99 467.068 314.416 440.531 c 0
 365.045 287.807 397.806 190.908 469.642 43.3723 c 0
 477.167 28.7834 497.604 23.823 512.25 23.5171 c 1
 512.189 22.2471 511.386 5.51636 510.704 -3.33276 c 1
 465.208 3.28906 389.047 3.72876 348.188 -7.54565 c 1xb0
EndSplineSet
Validated: 33
EndChar

StartChar: b.smcp
Encoding: 65595 -1 675
Width: 501
VWidth: 1159
Flags: W
HStem: -3.09106 30.1184<58.1553 105.655 195.988 314.498> 236.688 21.7683<187.273 269.921> 442.927 30.3813<59.5796 105.279 196.671 271.581>
VStem: 115.383 72.5125<34.2589 236.688 258.456 438.488> 307.422 80.8894<297.722 411.698> 354.992 81.2578<57.8673 188.52>
LayerCount: 2
Fore
SplineSet
55.988 24.9421 m 1xf4
 76.7864 25.8831 109.403 27.8789 111.753 59.3074 c 0
 113.022 61.3184 115.383 123.917 115.383 199.265 c 1
 115.383 304.772 110.393 395.048 109.927 397.71 c 0
 109.245 418.625 107.441 433.641 93.7839 438.697 c 0
 88.3447 440.001 59.7612 444.594 54.4429 445.336 c 1
 59.5796 473.429 l 1
 67.791 473.126 101.725 466.488 139.4 466.488 c 1
 175.364 466.488 219.935 473.308 253.914 473.308 c 1
 351.959 473.308 388.312 395.768 388.312 352.671 c 3xf8
 388.312 305.068 352.108 278.366 300.368 253.441 c 1
 376.273 242.639 436.25 189.928 436.25 123.865 c 1
 436.25 47.6794 365.839 -3.09106 258.006 -3.09106 c 1
 222.103 -3.09106 181.001 0.940918 142.249 0.940918 c 1
 100.922 0.940918 64.502 -1.72681 58.1553 -1.84766 c 1
 55.988 24.9421 l 1xf4
246.611 259.82 m 0
 283.046 265.554 307.422 296.899 307.422 336.872 c 1
 307.422 365.714 291.332 442.927 234.517 442.927 c 1
 229.249 442.927 214.298 441.745 210.457 441.601 c 0
 195.104 438.381 195.466 421.539 194.054 411.621 c 0
 187.685 336.415 187.755 260.143 187.273 258.456 c 1
 238.729 258.456 243.519 259.178 246.611 259.82 c 0
232.39 235.387 m 1
 230.576 236.748 176.894 236.688 185.97 236.688 c 1
 186.38 175.719 186.259 115.981 187.896 78.5303 c 0
 188.849 48.6106 192.772 39.0906 209.568 34.1292 c 0
 214.48 31.8875 245.421 27.0273 258.262 27.0273 c 1
 317.785 27.0273 354.992 61.6367 354.992 118.948 c 1xf4
 354.992 177.651 320.75 235.337 232.39 235.387 c 1
EndSplineSet
Validated: 37
EndChar

StartChar: c.smcp
Encoding: 65596 -1 676
Width: 576
VWidth: 1159
Flags: W
HStem: -6.56104 31.7161<273.399 408.993> 448.644 30.5898<256.376 400.453>
VStem: 55.3782 90.2537<148.009 333.524> 455.605 26.4998<351.218 402.388> 487.153 22.2231<107.356 122.813>
LayerCount: 2
Fore
SplineSet
55.3782 236.973 m 1
 55.3782 356.05 146.498 479.234 344.487 479.234 c 1
 379.728 479.234 406.184 478.105 443.63 467.013 c 0
 475.649 457.921 486.948 463.543 500.086 464.973 c 1
 521 453.577 l 1
 491.292 412.757 482.857 389.188 482.104 369.704 c 0
 481.245 350.196 477.79 349.183 455.605 349.123 c 1
 450.246 370.304 453.247 399.903 430.434 416.762 c 0
 396.323 438.486 371.082 448.644 329.565 448.644 c 1
 226.668 448.644 145.632 377.746 145.632 252.649 c 1
 145.632 112.599 247.223 25.155 343.354 25.155 c 1
 406.481 25.155 459.367 64.3562 487.153 127.069 c 1
 509.376 120.857 l 1
 503.617 85.0979 499.249 68.2729 491.774 32.1157 c 1
 448.627 10.9133 389.745 -6.56104 326.44 -6.56104 c 1
 187.47 -6.56104 55.3782 90.0906 55.3782 236.973 c 1
EndSplineSet
Validated: 33
EndChar

StartChar: d.smcp
Encoding: 65597 -1 677
Width: 629
VWidth: 1159
Flags: W
HStem: -5.19751 32.8357<49.6513 95.4293 188.147 359.282> 434.303 30.2598<47.8281 92.7901> 441.776 28.1223<189.365 340.098>
VStem: 98.6526 79.8289<38.0884 299.625> 478.957 85.5427<131.41 326.035>
LayerCount: 2
Fore
SplineSet
262.184 27.6382 m 1xb8
 402.475 27.6382 478.957 101.712 478.957 231.933 c 1
 478.957 357.634 385.377 441.776 260.391 441.776 c 1
 240.833 441.776 225.401 437.056 198.333 431.459 c 0
 180.678 428.171 179.879 416.427 179.583 404.146 c 0
 176.995 282.843 173.405 188.169 178.481 68.5889 c 0
 178.63 56.7668 181.059 42.6597 198.414 38.5784 c 0
 214.975 32.1223 236.727 27.6382 262.184 27.6382 c 1xb8
47.8281 464.563 m 1xd8
 77.5164 463.078 102.592 460.35 132.16 460.35 c 1
 191.312 460.35 223.746 469.898 282.717 469.898 c 1xb8
 458.717 469.898 564.5 360.094 564.5 235.972 c 1
 564.5 49.1038 404.57 -5.19751 266.47 -5.19751 c 1
 216.365 -5.19751 187.402 -0.42334 136.995 -0.42334 c 1
 85.6194 -0.42334 71.604 -3.77319 49.9346 -7.4248 c 1
 48.3887 20.8501 l 1
 80.4546 23.4285 93.4563 22.4758 98.6526 57.0425 c 0
 106.745 166.351 102.65 338.199 95.4338 403.351 c 0
 92.0012 435.306 88.6382 432.958 47.0251 434.303 c 1
 47.8281 464.563 l 1xd8
EndSplineSet
Validated: 33
EndChar

StartChar: e.smcp
Encoding: 65598 -1 678
Width: 519
VWidth: 1159
Flags: W
HStem: -6.68262 25.9868<56.8499 88.7871> 225.033 26.729<176.505 348.343> 447.357 21.778<51.8928 88.7758>
VStem: 102.025 74.359<43.4096 225.033 251.762 428.343> 371.09 26.142<162.556 201.384> 395.455 22.395<355.442 410.318> 439.787 21.213<116.719 130.503>
LayerCount: 2
Fore
SplineSet
51.8928 469.135 m 1xfa
 183.135 462.557 404.363 466.726 423.365 471.18 c 1
 446.881 451.006 426.492 443.518 417.85 355.442 c 1
 395.455 353.276 l 1xf6
 388.887 370.878 400.395 405.105 374.108 420.371 c 0
 340.247 436.737 260.991 441.91 206.811 431.639 c 0
 195.316 430.049 186.653 419.693 186.197 408.867 c 0
 181.565 354.352 177.187 302.247 176.505 251.762 c 1
 219.794 252.512 310.28 253.07 324.592 255.8 c 0
 355.992 260.835 361.75 277.188 373.676 309.789 c 1
 397.879 304.591 l 1
 386.104 261.843 389.548 205.535 397.232 162.556 c 1
 371.09 155.752 l 1
 357.147 216.432 358.629 213.202 323.776 218.963 c 0
 293.391 225.338 238.437 224.895 176.384 225.033 c 1
 175.763 159.604 177.585 103.126 189.274 58.6582 c 0
 191.803 48.5986 197.216 40.8931 208.423 39.0413 c 0
 270.003 28.676 310.654996557 22.2121562138 365.389 50.8069 c 0
 409.707 73.96 414.254 89.0498 439.787 134.026 c 1
 461 128.768 l 1
 449.967 82.48 441.14 40.1138 432.775 -3.14355 c 1
 303.162 -2.25391 152.07 5.75903 58.8335 -6.68262 c 1
 51.4695 19.3042 l 1
 86.3596 26.8608 99.2412 32.511 102.025 58.7107 c 1
 108.43 107.164 108.288 355.739 103.429 408.393 c 0
 101.379 436.159 95.5215 437.124 48.1804 447.357 c 1
 51.8928 469.135 l 1xfa
EndSplineSet
Validated: 33
EndChar

StartChar: f.smcp
Encoding: 65599 -1 679
Width: 481
VWidth: 1159
Flags: W
HStem: -6.68262 25.9868<60.3716 84.0519> 222.762 30.741<180.65 334.526> 444.092 23.138<47.9746 86.6203>
VStem: 106.926 72.477<43.7693 222.762 253.503 433.289> 355.245 26.33<160.99 200.922> 389.614 23.137<356.809 397.267>
LayerCount: 2
Fore
SplineSet
267.466 -10.2134 m 1
 196.279 7.88159 148.091 7.88159 60.3716 -6.68262 c 1
 53.0068 19.3042 l 1
 86.9851 27.4893 104.49 37.9287 106.926 69.864 c 1
 109.875 115.655 110.281 357.881 105.696 409.209 c 0
 103.891 432.005 90.9412 434.847 44.1414 444.092 c 1
 47.9746 467.23 l 1
 178.188 460.713 394.446 465.351 398.722 480.517 c 1
 431.488 463.928 416.101 447.213 412.751 356.809 c 1
 389.614 354.642 l 1
 382.051 376.383 384.224 407.505 356.307 419.48 c 0
 312.657 437.543 249.383 440.603 198.727 433.353 c 0
 187.419 432.136 185.494 421.181 184.873 409.389 c 0
 180.512 355.743 180.922 302.902 180.65 253.503 c 1
 218.607 254.187 300.17 255.194 309.502 256.187 c 0
 339.98 261.495 346.788 284.919 358.709 312.799 c 1
 384.017 307.683 l 1
 372.121 264.261 373.831 204.705 381.575 160.99 c 1
 355.245 154.247 l 1
 342.164 209.865 341.797 215.716 309.502 219.892 c 0
 278.457 224.617 243.724 224.185 179.403 222.762 c 1
 183.039 151.157 180.535 111.267 187.897 72.7734 c 0
 192.887681532 46.6786840801 195.899 30.6665 271.981 30.3376 c 1
 267.466 -10.2134 l 1
EndSplineSet
Validated: 33
EndChar

StartChar: g.smcp
Encoding: 65600 -1 680
Width: 613
VWidth: 1159
Flags: W
HStem: -6.50098 29.7849<282.881 418.482> 457.362 30.9497<256.897 404.867>
VStem: 51.9475 87.5376<156.532 336.693> 455.721 75.4146<49.473 210.924> 495.813 23.1382<359.458 375.415>
LayerCount: 2
Fore
SplineSet
51.9475 242.99 m 3xf0
 51.9475 428.777 251.198 488.312 354.192 488.312 c 1
 396.977 488.312 428.767 475.008 462.264 466.626 c 0
 475.403 463.679 480.093 468.041 486.611 481.552 c 1
 506.278 480.81 l 1
 518.951 360.86 l 1
 495.813 356.224 l 1xe8
 462.477 428.482 386.178 457.362 332.084 457.362 c 3
 202.37 457.362 139.485 341.428 139.485 250.492 c 1
 139.485 130.337 236.505 23.2839 353.954 23.2839 c 1
 386.887 23.2839 408.187 29.7158 440.133 49.2263 c 0
 450.083 54.3396 453.319 69.0151 453.591 81.4302 c 0
 453.575 105.097 455.177 136.762 455.721 166.244 c 0
 454.878 193.678 450.432 210.88 418.836 214.847 c 0
 396.951 216.755 380.903 217.437 358.837 217.574 c 1
 360.383 241.939 l 1
 429.886 234.998 520.939 235.62 555.023 239.893 c 1
 557.25 221.287 l 1
 538.897 216.588 532.029 207.391 531.135 186.022 c 0
 529.614 144.175 528.844 107.121 527.181 75.2393 c 0
 526.499 56.7292 530.652 51.1692 546.277 38.2192 c 1
 544.11 22.3242 l 1
 490.051 14.0193 365.348 -6.50098 327.674 -6.50098 c 1
 173.085 -6.50098 51.9475 94.2979 51.9475 242.99 c 3xf0
EndSplineSet
Validated: 33
EndChar

StartChar: h.smcp
Encoding: 65601 -1 681
Width: 652
VWidth: 1159
Flags: W
HStem: -8.84912 30.9419<46.4993 87.2118 183.417 232.953 427.525 468.066 565.402 602.335> 221.492 30.6257<177.939 483.48> 449.367 28.1541<47.4629 92.2905 190.612 238.792 428.003 465.995>
VStem: 95.6443 82.4153<29.0572 221.492 252.118 301.578>
LayerCount: 2
Fore
SplineSet
48.0017 477.521 m 1
 113.292 470.82 166.274 466.11 238.792 474.853 c 1
 240.337 447.442 l 1
 223.6 444.203 189.365 443.348 186.657 430.071 c 1
 181.405 405.793 179.847 321.229 177.939 252.118 c 1
 483.48 252.662 l 1
 483.208 295.346 482.687 344.788 480.178 406.419 c 0
 478.74 441.858 451.71 440.73 424.351 450.291 c 1
 428.003 475.596 l 1
 487.458 464.321 538.196 464.382 601.864 480.37 c 1
 606.5 452.958 l 1
 575.121 444.424 566.417 443.385 563.541 417.008 c 0
 553.483 307.939 543.821 85.6648 558.555 48.9417 c 0
 565.886 20.5857 585.498 19.5696 605.317 16.8181 c 1
 605.317 16.8181 601.726 -0.269043 602.348 -8.96997 c 1
 553.442 1.62231 486.957 3.16821 429.169 -10.8955 c 1
 428.927 -9.62549 424.895 6.1814 423.35 15.2122 c 1
 454.116 23.8638 471.787 26.2791 475.155 54.7168 c 0
 480.643 117.436 482.146 154.69 483.48 220.948 c 1
 176.834 221.492 l 1
 175.608 163.709 174.71 100.754 178.06 54.2539 c 0
 179.364 21.355 214.228 23.1541 235.866 17.2585 c 1
 235.866 17.2585 232.956 -1.51172 232.334 -10.2134 c 1
 166.802 0.940918 101.621 3.04736 47.4404 -8.84912 c 1
 47.4404 -8.84912 43.5464 10.9058 42.3037 22.0928 c 1
 65.5339 27.5486 92.7729 26.8447 95.6443 55.4631 c 0
 106.233 176.716 108.377 397.059 100.203 421.191 c 0
 94.8945 444.635 71.6902 445.749 45.8345 449.367 c 1
 48.0017 477.521 l 1
EndSplineSet
Validated: 33
EndChar

